<?xml version="1.0" encoding="utf-8"?>
<svg version="1.1" xmlns:cc="http://creativecommons.org/ns#" xmlns:dc="http://purl.org/dc/elements/1.1/" xmlns:rdf="http://www.w3.org/1999/02/22-rdf-syntax-ns#" xmlns="http://www.w3.org/2000/svg" xmlns:xlink="http://www.w3.org/1999/xlink" x="0px" y="0px" viewBox="0 0 200 200" xml:space="preserve">
<defs>
<filter id="filter" x="-100%" y="-300%" width="300%" height="900%">
<feGaussianBlur stdDeviation="2" in="SourceAlpha" result="bumpMap"/>
<feDiffuseLighting in="bumpMap" 
				  surfaceScale="1"
				  diffuseConstant="3"
				  result="shading">
	<fePointLight id="light" x="500" y="0" z="100">
			 
	</fePointLight>
  </feDiffuseLighting>
<feBlend in="SourceGraphic" in2="shading" mode="multiply" result="lit" />
<feColorMatrix
	in="lit"
      type="matrix"
      values="2 0 0 0 0
              0 2 0 0 0
              0 0 2 0 0
              0 0 0 1 0 "
	result="brighter" />
<feComposite in="brighter" in2="SourceAlpha" operator="atop" result="masked"/>
</filter>
</defs>

<g filter="url(#filter)">

  
  <defs id="defs703250"/>
  <linearGradient id="3d_gradient2-logo-b77cf230-863a-42b4-b3d1-03dbbf3f5020" x1="30%" y1="120%" x2="-10%" y2="30%" spreadMethod="pad">
    <stop offset="0%" stop-color="#ffffff" stop-opacity="1" id="stop703227"/>
    <stop offset="100%" stop-color="#000000" stop-opacity="1" id="stop703229"/>
  </linearGradient>
  <linearGradient id="3d_gradient3-logo-b77cf230-863a-42b4-b3d1-03dbbf3f5020" x1="30%" y1="120%" x2="-10%" y2="30%" spreadMethod="pad" gradientTransform="rotate(-30)">
    <stop offset="0%" stop-color="#ffffff" stop-opacity="1" id="stop703232"/>
    <stop offset="50%" stop-color="#cccccc" stop-opacity="1" id="stop703234"/>
    <stop offset="100%" stop-color="#000000" stop-opacity="1" id="stop703236"/>
  </linearGradient>
  <path id="icon" d="m 100.00549,40.000005 h -1.988951 v 10.01567 h 3.977901 v -10.01567 z m -16.017788,2.23936 c -0.0099,0.0011 -0.861287,0.276675 -1.891664,0.612311 -1.030376,0.335636 -1.873522,0.6251 -1.873522,0.643203 0,0.01812 0.688685,2.151973 1.530042,4.741904 0.841741,2.590251 1.535408,4.714181 1.541413,4.720186 0.0061,0.0061 0.855602,-0.263535 1.888087,-0.599171 1.032484,-0.335278 1.883487,-0.615511 1.890897,-0.622257 0.0075,-0.0067 -0.679805,-2.146671 -1.526848,-4.754999 -0.847425,-2.608712 -1.548567,-4.742224 -1.558468,-4.741138 z m 32.053468,0.0089 c -0.0195,-0.0064 -0.7281,2.12393 -1.57451,4.733728 -0.8464,2.609414 -1.53361,4.749314 -1.52723,4.755383 0.006,0.0057 0.85739,0.284136 1.89096,0.618705 1.03358,0.334569 1.8849,0.602371 1.89199,0.595267 0.007,-0.0071 0.69967,-2.130637 1.5393,-4.71878 0.83964,-2.588462 1.52653,-4.721271 1.52653,-4.739732 0,-0.01812 -0.83503,-0.303313 -1.85576,-0.63327 -1.02073,-0.32995 -1.87174,-0.605207 -1.89128,-0.61125 z m -48.455173,7.689816 c -0.01279,-0.01314 -0.72631,0.486225 -1.585106,1.11029 -0.858796,0.623681 -1.582296,1.154686 -1.607145,1.179535 -0.03729,0.03729 0.494044,0.788848 2.867999,4.057819 1.602545,2.206654 2.928365,4.017 2.946507,4.023388 0.01812,0.0064 0.752245,-0.511445 1.631674,-1.150407 l 1.598649,-1.161777 -0.07814,-0.11046 c -0.0428,-0.06005 -1.354246,-1.867837 -2.914184,-4.016744 -1.560577,-2.148907 -2.84711,-3.917731 -2.859886,-3.931146 z m 64.920753,0.01385 -0.0661,-0.04546 -2.91737,4.015211 c -1.60427,2.208443 -2.92089,4.030095 -2.92588,4.047854 -0.004,0.01812 0.70785,0.553356 1.58332,1.189436 0.87547,0.636112 1.60287,1.156092 1.61602,1.155708 0.0132,-3.55e-4 1.334,-1.804277 2.93476,-4.008439 1.60107,-2.204163 2.91488,-4.021919 2.91987,-4.039358 0.005,-0.0174 -0.6855,-0.53524 -1.53433,-1.150406 -0.84921,-0.615511 -1.57373,-1.139355 -1.61033,-1.164588 z m -32.679482,4.049323 c -0.361207,0.0039 -0.816892,0.01101 -1.012235,0.01634 -0.195344,0.005 -0.690793,0.02628 -1.101027,0.04688 -0.410222,0.02095 -1.025394,0.0618 -1.367405,0.09021 -0.341673,0.02877 -0.909261,0.08453 -1.260854,0.123952 -0.351619,0.03943 -0.87087,0.104066 -1.154303,0.143844 -0.28307,0.03978 -0.842443,0.126794 -1.243096,0.193567 -0.400275,0.06677 -1.039575,0.184689 -1.42068,0.262117 -0.380741,0.07743 -0.940115,0.198187 -1.243096,0.268154 -0.302603,0.07033 -0.886136,0.216654 -1.29637,0.325338 -0.410222,0.109036 -1.129454,0.315035 -1.598266,0.458527 -0.468825,0.143487 -1.036062,0.324272 -1.260854,0.402052 -0.224466,0.07778 -0.655659,0.231927 -0.957873,0.342381 -0.302253,0.110461 -0.884732,0.335636 -1.29388,0.50079 -0.409512,0.165154 -1.040981,0.431174 -1.404008,0.591 -0.362631,0.159827 -1.146829,0.533822 -1.742825,0.831073 -0.595977,0.297276 -1.395128,0.714237 -1.77585,0.92702 -0.380741,0.212393 -0.980295,0.55975 -1.331888,0.771409 -0.351619,0.212035 -0.990899,0.616578 -1.420681,0.899295 -0.429756,0.28307 -0.996967,0.66703 -1.260854,0.853495 -0.263535,0.186822 -0.791339,0.575018 -1.172061,0.863076 -0.380741,0.288397 -0.900382,0.693987 -1.154303,0.901787 -0.253947,0.207417 -0.709254,0.58994 -1.012235,0.849214 -0.302604,0.259632 -0.782077,0.685491 -1.06551,0.946503 -0.28307,0.260692 -0.784185,0.738767 -1.113484,1.061933 -0.329242,0.323205 -0.874766,0.883326 -1.211858,1.244884 -0.337412,0.361207 -0.795556,0.864865 -1.017921,1.118786 -0.222339,0.253947 -0.62119,0.725288 -0.88652,1.047752 -0.264959,0.322138 -0.678719,0.84174 -0.919162,1.154303 -0.240449,0.31255 -0.653871,0.871955 -0.918843,1.243095 -0.264602,0.371153 -0.691496,0.994477 -0.948675,1.385164 -0.25714,0.390687 -0.655978,1.021817 -0.885817,1.402922 -0.230151,0.380741 -0.600946,1.020028 -0.823982,1.42068 -0.223399,0.400276 -0.587097,1.087549 -0.808012,1.527232 -0.221272,0.439344 -0.541634,1.102433 -0.711745,1.47287 -0.170482,0.370444 -0.437217,0.977804 -0.593135,1.349646 -0.155917,0.371862 -0.43224,1.075476 -0.614086,1.563835 -0.181846,0.488359 -0.451066,1.255552 -0.598819,1.704816 -0.147396,0.449291 -0.357655,1.128368 -0.466691,1.509473 -0.109394,0.380741 -0.292658,1.068002 -0.407737,1.527232 -0.115073,0.459236 -0.290173,1.229617 -0.388911,1.71229 -0.09874,0.482674 -0.235479,1.21007 -0.303313,1.616024 -0.06819,0.406312 -0.163378,1.03389 -0.211684,1.395448 -0.04831,0.361207 -0.120049,0.976718 -0.159827,1.367405 -0.03943,0.390688 -0.08843,0.925934 -0.108684,1.18982 -0.0206,0.263535 -0.05292,0.783163 -0.07245,1.154303 -0.01918,0.371153 -0.03516,1.346069 -0.03516,2.166538 -3.55e-4,0.820469 0.01563,1.787221 0.03516,2.148781 0.01989,0.36121 0.06038,0.96854 0.09093,1.34965 0.03019,0.38074 0.08631,0.97211 0.124667,1.31413 0.03836,0.34167 0.09412,0.80513 0.12431,1.02999 0.03019,0.22446 0.10229,0.70395 0.160184,1.06551 0.05754,0.36121 0.161602,0.95257 0.23086,1.31413 0.06926,0.3612 0.181846,0.9046 0.250395,1.20758 0.06855,0.3026 0.203514,0.86697 0.300477,1.25408 0.09696,0.38713 0.264602,1.01045 0.372571,1.38516 0.107969,0.37471 0.317168,1.04916 0.465273,1.49849 0.147753,0.44929 0.393529,1.155 0.546253,1.56843 0.152723,0.41342 0.380741,1.00476 0.506826,1.31413 0.126085,0.30935 0.352328,0.84213 0.502566,1.18414 0.150238,0.34167 0.479837,1.04385 0.732698,1.56025 0.252528,0.51607 0.589225,1.17954 0.747965,1.47396 0.15876,0.29443 0.383942,0.70287 0.50079,0.90817 0.116848,0.20529 0.373286,0.6418 0.569339,0.97072 l 0.356946,0.59739 -0.204223,3.02534 c -0.112236,1.66361 -0.214878,3.11521 -0.228018,3.22527 l -0.02415,0.20032 -1.078989,-1.48852 c -0.593491,-0.81868 -1.090742,-1.49561 -1.104604,-1.50449 -0.01385,-0.009 -1.829829,1.29497 -4.035461,2.89713 -2.205249,1.60184 -4.015211,2.92734 -4.021216,2.94542 -0.0064,0.0181 0.511445,0.75225 1.150726,1.63097 0.639306,0.87905 1.176661,1.58939 1.193717,1.57872 0.01705,-0.0103 1.790031,-1.29778 3.939897,-2.86052 2.149865,-1.56237 3.917539,-2.8328 3.927823,-2.82252 0.0103,0.0103 -0.469182,7.16792 -1.06551,15.90536 -0.595977,8.73808 -1.073304,15.89642 -1.060528,15.90856 0.01279,0.0121 0.899999,0.0813 1.971578,0.15414 1.071579,0.0728 1.959823,0.11899 1.973685,0.10229 0.01385,-0.0164 1.060911,-15.22952 2.327067,-33.80632 1.265837,-18.57744 2.324256,-33.984544 2.352299,-34.238146 0.02806,-0.253946 0.0966,-0.734486 0.153081,-1.068001 0.05612,-0.333503 0.144553,-0.797025 0.196053,-1.029994 0.05186,-0.232994 0.164087,-0.679422 0.249686,-0.991985 0.0856,-0.31255 0.237255,-0.808012 0.337054,-1.101027 0.0998,-0.293016 0.269929,-0.756525 0.377898,-1.029994 0.108327,-0.273481 0.363692,-0.841037 0.567915,-1.260853 0.204222,-0.41981 0.485165,-0.963559 0.62439,-1.207579 0.139225,-0.244358 0.375414,-0.636112 0.524943,-0.870869 0.149529,-0.23477 0.411639,-0.623324 0.582479,-0.863077 0.170481,-0.240097 0.4706,-0.637172 0.666327,-0.882623 0.195701,-0.245425 0.544119,-0.655979 0.774284,-0.912774 0.230502,-0.256432 0.63256,-0.67444 0.89361,-0.928425 0.26105,-0.254305 0.610535,-0.583188 0.776392,-0.731293 0.166221,-0.147753 0.473443,-0.407027 0.683,-0.576085 0.209908,-0.168705 0.537373,-0.422294 0.728098,-0.563302 0.191083,-0.14065 0.594553,-0.418743 0.897508,-0.617287 0.302961,-0.198895 0.750456,-0.477346 0.994476,-0.619063 0.244358,-0.14171 0.723819,-0.398148 1.06551,-0.56969 0.34203,-0.171548 0.797344,-0.386778 1.012235,-0.478413 0.214878,-0.09199 0.502566,-0.211326 0.639306,-0.26602 0.136741,-0.05434 0.456394,-0.171548 0.710341,-0.260341 0.253946,-0.08843 0.650996,-0.218429 0.88224,-0.288397 0.231569,-0.06997 0.638923,-0.181845 0.905683,-0.248619 0.266736,-0.06677 0.73947,-0.17119 1.050244,-0.231927 0.310773,-0.06074 0.870166,-0.148814 1.243095,-0.195701 0.372929,-0.04688 0.923059,-0.102291 1.222526,-0.122892 0.29941,-0.0206 0.871253,-0.03765 1.270819,-0.03765 0.403118,0 0.956852,0.02415 1.244182,0.05434 0.284845,0.02983 0.687982,0.08666 0.895718,0.126085 0.207775,0.03978 0.561878,0.118273 0.786357,0.175101 0.224824,0.05683 0.592425,0.165863 0.816891,0.242582 0.224824,0.07636 0.536307,0.190374 0.692582,0.252529 0.156275,0.06251 0.500081,0.221981 0.763616,0.354461 0.263893,0.132122 0.631494,0.332441 0.816891,0.445029 0.185756,0.112588 0.497238,0.318235 0.692582,0.457103 0.195344,0.138874 0.53915,0.406669 0.763616,0.59491 0.224824,0.18824 0.594201,0.53524 0.82149,0.770706 0.226952,0.23583 0.551932,0.601656 0.722031,0.812995 0.169772,0.211684 0.743046,1.035295 1.274013,1.830531 0.530621,0.795236 0.97314,1.445913 0.982787,1.445913 0.01,0 0.45213,-0.650677 0.98272,-1.445913 0.53098,-0.795236 1.10422,-1.618835 1.27402,-1.830531 0.17013,-0.211327 0.4912,-0.573242 0.71353,-0.804116 0.22233,-0.230503 0.54128,-0.537016 0.70823,-0.680892 0.16729,-0.143843 0.48872,-0.399208 0.71462,-0.567914 0.22589,-0.168348 0.59669,-0.418743 0.82366,-0.555841 0.22696,-0.13745 0.6045,-0.345582 0.83893,-0.462788 0.23442,-0.117206 0.57005,-0.272772 0.74586,-0.345582 0.17581,-0.07317 0.50363,-0.194986 0.7281,-0.271347 0.22482,-0.076 0.59243,-0.185047 0.81689,-0.241516 0.22483,-0.05683 0.5285,-0.127504 0.67482,-0.156984 0.14669,-0.02948 0.46634,-0.0824 0.71035,-0.117564 0.35801,-0.05114 0.67482,-0.06322 1.63378,-0.06251 0.88473,0.0011 1.34006,0.0174 1.77585,0.06393 0.32214,0.03445 0.83395,0.100866 1.13725,0.147396 0.30296,0.04653 0.81478,0.141359 1.13692,0.210617 0.32214,0.06962 0.82188,0.190725 1.10991,0.269929 0.2884,0.07885 0.77569,0.228376 1.08327,0.332442 0.30757,0.103709 0.81478,0.290531 1.12728,0.415191 0.3122,0.124668 0.94299,0.413416 1.40222,0.641798 0.45924,0.228018 1.05842,0.549447 1.33189,0.713917 0.27348,0.164445 0.61728,0.376839 0.76361,0.472019 0.14669,0.09519 0.45498,0.306864 0.68581,0.4706 0.23051,0.163736 0.6219,0.459588 0.87017,0.657448 0.2479,0.197829 0.60272,0.494754 0.78815,0.659556 0.18575,0.165155 0.54234,0.501499 0.79312,0.747646 0.25075,0.246134 0.64461,0.657448 0.87586,0.913861 0.23086,0.256789 0.57964,0.667349 0.77537,0.912774 0.1957,0.245425 0.49013,0.634688 0.65387,0.865184 0.16408,0.230861 0.4262,0.619063 0.58248,0.863396 0.15662,0.244 0.3985,0.643586 0.53772,0.887925 0.13887,0.244001 0.41981,0.787762 0.62403,1.207579 0.20423,0.419809 0.4596,0.987385 0.56757,1.260854 0.10797,0.27348 0.27028,0.712831 0.36049,0.976717 0.0902,0.263893 0.21026,0.639307 0.26709,0.83465 0.0568,0.195344 0.15912,0.578927 0.22731,0.852408 0.0682,0.273481 0.16551,0.712129 0.2163,0.97461 0.0505,0.262826 0.12218,0.686194 0.15912,0.941201 0.0373,0.255013 0.0863,0.647483 0.10939,0.872275 0.0231,0.224466 1.07579,15.571277 2.33882,34.103357 1.26334,18.53209 2.30822,33.70603 2.32208,33.72008 0.0135,0.0139 0.90818,-0.0355 1.98755,-0.10939 1.07969,-0.0735 1.96589,-0.13638 1.96979,-0.13923 0.004,-0.003 -0.48161,-7.16217 -1.07797,-15.90919 -0.59633,-8.74766 -1.0765,-15.91239 -1.06659,-15.92197 0.01,-0.01 1.77725,1.26047 3.92744,2.82322 2.14986,1.56275 3.92354,2.85024 3.9413,2.86123 0.0174,0.011 0.5601,-0.70645 1.20547,-1.59399 l 1.17385,-1.61353 -4.00205,-2.90709 c -2.20097,-1.59897 -4.02052,-2.9184 -4.04326,-2.93227 -0.0273,-0.0164 -0.42656,0.50329 -1.13654,1.47926 l -1.09502,1.50488 -0.0241,-0.1989 c -0.0132,-0.10975 -0.11578,-1.56064 -0.22802,-3.22496 l -0.20422,-3.02533 0.36653,-0.61196 c 0.20174,-0.33635 0.54164,-0.92485 0.75544,-1.30736 0.21417,-0.38287 0.64212,-1.20719 0.95117,-1.83232 0.309,-0.6251 0.68121,-1.40822 0.82685,-1.74033 0.14598,-0.33209 0.36938,-0.8595 0.49688,-1.17206 0.12751,-0.31255 0.35944,-0.91208 0.51536,-1.33189 0.15592,-0.42017 0.41164,-1.15539 0.56827,-1.63378 0.15699,-0.47877 0.37329,-1.18203 0.48126,-1.56275 0.10797,-0.3811 0.26815,-0.9803 0.35623,-1.33189 0.0881,-0.35162 0.22376,-0.92702 0.3019,-1.27861 0.0778,-0.35162 0.19001,-0.89502 0.24897,-1.20758 0.0593,-0.31255 0.13958,-0.76004 0.1783,-0.99448 0.0391,-0.23441 0.11081,-0.70606 0.15947,-1.04775 0.049,-0.34203 0.12111,-0.91744 0.16053,-1.27861 0.0394,-0.36157 0.0956,-0.94478 0.12431,-1.29637 0.0291,-0.35162 0.0714,-1.01115 0.0941,-1.466167 0.0259,-0.518906 0.0344,-1.47715 0.0231,-2.574983 -0.0114,-1.089337 -0.0398,-2.03584 -0.0753,-2.511743 -0.0316,-0.420167 -0.0895,-1.075475 -0.12857,-1.456197 -0.0394,-0.381099 -0.10407,-0.940498 -0.14349,-1.243096 -0.0394,-0.302961 -0.13532,-0.93839 -0.21311,-1.412503 -0.0781,-0.474153 -0.21381,-1.217544 -0.30189,-1.651541 -0.0881,-0.434375 -0.26283,-1.205088 -0.3882,-1.712994 -0.12537,-0.507893 -0.31787,-1.235302 -0.42763,-1.616024 -0.10974,-0.381099 -0.32817,-1.084355 -0.48551,-1.562748 -0.15734,-0.478771 -0.41768,-1.22176 -0.57893,-1.651541 -0.16124,-0.429756 -0.36796,-0.965348 -0.45994,-1.18982 -0.0916,-0.224466 -0.32854,-0.776072 -0.52672,-1.225337 -0.19783,-0.44929 -0.57893,-1.256574 -0.84711,-1.793609 -0.26815,-0.537374 -0.67054,-1.304548 -0.89393,-1.704817 -0.2234,-0.400633 -0.59455,-1.039958 -0.82468,-1.42068 -0.23051,-0.381099 -0.618,-0.996265 -0.86129,-1.367405 -0.24329,-0.371153 -0.6876,-1.018623 -0.98739,-1.438439 -0.29941,-0.41981 -0.75614,-1.035296 -1.01434,-1.367405 -0.25821,-0.332084 -0.71603,-0.899615 -1.01754,-1.260854 -0.30153,-0.361565 -0.81331,-0.952891 -1.13724,-1.31413 -0.32428,-0.361564 -1.03,-1.09713 -1.56805,-1.635187 -0.53809,-0.537725 -1.21825,-1.193398 -1.51127,-1.456901 -0.29301,-0.263183 -0.74834,-0.663452 -1.01223,-0.889011 -0.26389,-0.225891 -0.72701,-0.609826 -1.02999,-0.853494 -0.30261,-0.243649 -0.80623,-0.634688 -1.11879,-0.869081 -0.31255,-0.234412 -0.76004,-0.563654 -0.99448,-0.730909 -0.23441,-0.167639 -0.80162,-0.552648 -1.26085,-0.855219 -0.45924,-0.302962 -1.1543,-0.74228 -1.54499,-0.976718 -0.39069,-0.234055 -0.97423,-0.572182 -1.29637,-0.751159 -0.32214,-0.178652 -1.02539,-0.546962 -1.56275,-0.817978 -0.53702,-0.270996 -1.2484,-0.615862 -1.58051,-0.766426 -0.33208,-0.150238 -0.8915,-0.393881 -1.24309,-0.540568 -0.35162,-0.147038 -0.95078,-0.386068 -1.33189,-0.531688 -0.38074,-0.14562 -1.09215,-0.398857 -1.58051,-0.562945 -0.48836,-0.164087 -1.19161,-0.387493 -1.56275,-0.49688 -0.37115,-0.109036 -1.07439,-0.300119 -1.56274,-0.424429 -0.48836,-0.124309 -1.19161,-0.291239 -1.56275,-0.370795 -0.37116,-0.07955 -0.97493,-0.199962 -1.34186,-0.268153 -0.36653,-0.06784 -0.98987,-0.171191 -1.38516,-0.229442 -0.39495,-0.05825 -0.9817,-0.13745 -1.30416,-0.176167 -0.32214,-0.03871 -0.8496,-0.09483 -1.17206,-0.124668 -0.32214,-0.02983 -0.82578,-0.07103 -1.11879,-0.09093 -0.29302,-0.02024 -0.97212,-0.05257 -1.50947,-0.07174 -0.53702,-0.01918 -1.27223,-0.03196 -1.633787,-0.02806 z m 0.497242,4.025879 c 0.96713,0.0057 1.98186,0.0277 2.25533,0.04866 0.27348,0.0206 0.76891,0.06215 1.10102,0.09199 0.33209,0.02983 0.92345,0.09412 1.31413,0.142777 0.39069,0.04831 1.00623,0.136383 1.36741,0.194986 0.36156,0.05896 0.87298,0.147754 1.13654,0.197477 0.2639,0.04972 0.7672,0.15379 1.11879,0.231219 0.35162,0.07743 0.97493,0.226951 1.38516,0.332084 0.41022,0.105484 1.08966,0.295858 1.50947,0.42301 0.41981,0.127503 1.01933,0.318944 1.33189,0.425137 0.31255,0.106551 0.85599,0.301537 1.20758,0.433308 0.35162,0.13177 0.93481,0.36334 1.29637,0.514639 0.36157,0.151305 0.91278,0.391754 1.22534,0.534173 0.31255,0.142426 0.95187,0.452842 1.42068,0.690474 0.46882,0.237255 1.07618,0.556199 1.34965,0.708935 0.27348,0.152723 0.77038,0.441829 1.10422,0.641797 0.33421,0.200314 0.87476,0.535949 1.20189,0.745474 0.32711,0.209908 0.90108,0.597753 1.27542,0.86199 0.37435,0.264602 0.84033,0.600947 1.03568,0.747966 0.19534,0.147037 0.61906,0.477703 0.9412,0.73487 0.32214,0.257498 0.82539,0.673737 1.11808,0.92555 0.29231,0.251813 0.732,0.641414 0.97672,0.865567 0.24436,0.224115 0.71392,0.67163 1.04315,0.994477 0.32889,0.322847 0.84283,0.8503 1.14153,1.172764 0.29906,0.322138 0.73838,0.809417 0.9771,1.082183 0.23867,0.273123 0.65278,0.768598 0.92095,1.101027 0.2678,0.332793 0.67872,0.860585 0.91316,1.173147 0.23406,0.31255 0.53844,0.728099 0.67623,0.923443 0.1378,0.195343 0.46207,0.674823 0.7203,1.06551 0.25856,0.390687 0.66595,1.037787 0.9053,1.438439 0.23903,0.400276 0.56757,0.967839 0.72989,1.260854 0.16196,0.293015 0.49831,0.940115 0.74726,1.438439 0.24898,0.497947 0.60486,1.249483 0.79026,1.6693 0.18575,0.419809 0.44538,1.035295 0.57715,1.367405 0.13177,0.332084 0.3573,0.931235 0.5015,1.331887 0.1442,0.400276 0.35695,1.031782 0.47273,1.402922 0.11614,0.371153 0.28272,0.930533 0.37044,1.243096 0.0874,0.31255 0.21524,0.792042 0.28378,1.06551 0.0686,0.273481 0.18824,0.784952 0.26638,1.136545 0.0781,0.351618 0.19854,0.950782 0.26815,1.331888 0.0693,0.380741 0.17333,1.012234 0.23086,1.402922 0.0576,0.390687 0.13746,1.005846 0.17759,1.367405 0.0401,0.361206 0.0966,0.95289 0.12538,1.314832 0.0287,0.361564 0.071,1.080777 0.0934,1.598265 0.0249,0.564012 0.0323,1.430965 0.0195,2.165835 -0.0121,0.673738 -0.0462,1.568819 -0.076,1.988959 -0.0298,0.41981 -0.0867,1.07509 -0.12608,1.45619 -0.0398,0.38074 -0.11224,0.9803 -0.16126,1.33189 -0.049,0.35162 -0.12111,0.83107 -0.16053,1.06551 -0.0391,0.23441 -0.12715,0.71392 -0.1957,1.06551 -0.0685,0.35162 -0.19641,0.95078 -0.28414,1.33189 -0.0881,0.38074 -0.24826,1.02003 -0.35623,1.42068 -0.10798,0.40028 -0.29799,1.05555 -0.4223,1.4562 -0.12395,0.40027 -0.32427,1.00763 -0.44503,1.34964 -0.1204,0.34168 -0.32817,0.90109 -0.46101,1.2431 -0.13283,0.34167 -0.28697,0.73308 -0.34203,0.86946 l -0.10051,0.24791 -0.0263,-0.17687 c -0.0146,-0.0973 -0.33884,-4.78803 -0.72031,-10.42322 -0.38181,-5.635839 -0.71852,-10.510741 -0.74797,-10.832694 -0.0298,-0.322495 -0.0941,-0.865886 -0.14348,-1.207578 -0.049,-0.34203 -0.14349,-0.895016 -0.20955,-1.229234 -0.0661,-0.334569 -0.18505,-0.865184 -0.26389,-1.179152 -0.0792,-0.314325 -0.22447,-0.837141 -0.32285,-1.162096 -0.0984,-0.324623 -0.26425,-0.825068 -0.36832,-1.111695 -0.10406,-0.286621 -0.27383,-0.728801 -0.37683,-0.982786 -0.10336,-0.253947 -0.31255,-0.73091 -0.46527,-1.060209 -0.15237,-0.329241 -0.41626,-0.856688 -0.58603,-1.172061 -0.17013,-0.315393 -0.42869,-0.773198 -0.57503,-1.017537 -0.14597,-0.244001 -0.39707,-0.643906 -0.55797,-0.887925 -0.16089,-0.244359 -0.40134,-0.595977 -0.53418,-0.781375 -0.13283,-0.185755 -0.39779,-0.53844 -0.58851,-0.784185 -0.19108,-0.245776 -0.55052,-0.683702 -0.79952,-0.97314 -0.24862,-0.289822 -0.69258,-0.773581 -0.9863,-1.075476 -0.29372,-0.301894 -0.75831,-0.751542 -1.0321,-0.999459 -0.27419,-0.24791 -0.64212,-0.570405 -0.81798,-0.716728 -0.17581,-0.146329 -0.46704,-0.381808 -0.64748,-0.522458 -0.18007,-0.141001 -0.50789,-0.386068 -0.7281,-0.544828 -0.2202,-0.15876 -0.59988,-0.420168 -0.84423,-0.581412 -0.244,-0.161245 -0.64569,-0.413064 -0.89182,-0.56046 -0.24649,-0.147038 -0.63824,-0.370795 -0.87017,-0.497238 -0.23228,-0.126443 -0.5981,-0.317877 -0.81299,-0.425495 -0.21488,-0.10726 -0.70217,-0.331375 -1.08327,-0.497238 -0.38074,-0.166221 -0.95647,-0.398149 -1.27861,-0.515355 -0.32214,-0.117564 -0.78566,-0.277742 -1.03,-0.356588 -0.244,-0.07885 -0.71564,-0.216296 -1.04775,-0.305089 -0.33208,-0.08915 -0.81938,-0.20955 -1.08327,-0.267795 -0.26389,-0.0586 -0.75901,-0.153433 -1.10103,-0.211327 -0.34167,-0.05789 -0.81938,-0.130346 -1.06161,-0.161244 -0.24187,-0.0309 -0.74515,-0.08205 -1.11878,-0.114012 -0.4326,-0.03694 -1.07797,-0.05825 -1.77975,-0.05931 -0.8084,-0.0014 -1.24489,0.01421 -1.64305,0.0586 -0.29798,0.03303 -0.78246,0.100865 -1.07649,0.150589 -0.29444,0.04972 -0.78994,0.153081 -1.10142,0.229794 -0.31148,0.07672 -0.76962,0.20529 -1.01862,0.285203 -0.24897,0.08027 -0.69718,0.241873 -0.99626,0.359431 -0.29906,0.117206 -0.81051,0.345933 -1.13655,0.508251 -0.32604,0.16196 -0.81829,0.430822 -1.09425,0.597043 -0.27597,0.166221 -0.69616,0.439344 -0.93443,0.606983 -0.23797,0.167288 -0.63505,0.468467 -0.88263,0.668755 -0.24719,0.200313 -0.67022,0.57857 -0.93979,0.840335 l -0.49014,0.475928 -0.45213,-0.441478 c -0.248619,-0.242933 -0.595977,-0.562235 -0.771792,-0.709637 -0.175809,-0.147754 -0.47948,-0.388912 -0.674823,-0.536307 -0.195344,-0.147038 -0.546962,-0.394948 -0.781375,-0.550872 -0.234412,-0.155565 -0.600595,-0.383226 -0.813697,-0.506117 -0.21346,-0.122534 -0.629009,-0.341321 -0.923442,-0.485516 -0.29193,-0.150117 -0.772942,-0.362197 -1.065511,-0.47718 -0.293207,-0.114983 -0.735253,-0.274682 -0.982467,-0.354532 -0.247213,-0.07921 -0.670096,-0.199304 -0.940945,-0.267016 -0.270849,-0.06707 -0.659237,-0.154588 -0.864929,-0.194194 -0.204931,-0.03978 -0.540567,-0.09625 -0.745857,-0.125018 -0.204932,-0.02877 -0.56472,-0.07245 -0.799133,-0.09696 -0.249685,-0.02593 -0.875149,-0.04333 -1.509473,-0.04226 -0.679422,0.0018 -1.337956,0.02415 -1.765885,0.06038 -0.375414,0.03197 -0.870869,0.0824 -1.101027,0.111879 -0.230152,0.02948 -0.665944,0.09412 -0.968925,0.143844 -0.302604,0.04937 -0.87796,0.162311 -1.278612,0.250752 -0.400276,0.08879 -1.023606,0.246486 -1.385164,0.35091 -0.361207,0.104775 -0.896804,0.272772 -1.18982,0.373995 -0.293015,0.100866 -0.807309,0.293016 -1.142932,0.426913 -0.335278,0.133898 -0.892525,0.374705 -1.237793,0.53524 -0.345225,0.160536 -0.933727,0.458879 -1.307742,0.66275 -0.373995,0.204223 -0.964261,0.549096 -1.311319,0.766427 -0.347357,0.217363 -0.874446,0.569339 -1.171678,0.781757 -0.297276,0.212393 -0.711426,0.521034 -0.920248,0.685492 -0.208841,0.164445 -0.61125,0.49688 -0.893611,0.738766 -0.282718,0.241516 -0.780671,0.699673 -1.106329,1.017537 -0.326048,0.318235 -0.7739,0.778883 -0.995562,1.024308 -0.221624,0.245425 -0.549447,0.621548 -0.728802,0.836055 -0.179003,0.214878 -0.515354,0.6425 -0.747262,0.951166 -0.23157,0.308289 -0.60379,0.835736 -0.827176,1.172062 -0.223048,0.335993 -0.54412,0.848831 -0.713535,1.139355 -0.169414,0.29053 -0.449647,0.801943 -0.622965,1.136544 -0.172967,0.334569 -0.421944,0.848128 -0.552648,1.141144 -0.130703,0.293015 -0.317519,0.732379 -0.415191,0.976718 -0.09803,0.244 -0.248977,0.643586 -0.335993,0.887925 -0.08702,0.244001 -0.236898,0.703952 -0.332794,1.021497 -0.09589,0.317878 -0.239382,0.835353 -0.318586,1.150407 -0.0792,0.315034 -0.198186,0.84602 -0.264244,1.180557 -0.06606,0.334218 -0.160893,0.887223 -0.210259,1.229234 -0.04937,0.341672 -0.113655,0.885114 -0.143135,1.207578 -0.02948,0.322138 -0.365825,5.196854 -0.747646,10.832682 -0.38145,5.63545 -0.705741,10.32677 -0.720305,10.4245 l -0.02628,0.17759 -0.262468,-0.65707 c -0.144201,-0.36156 -0.372571,-0.95934 -0.507535,-1.32908 -0.134607,-0.36937 -0.348067,-0.99658 -0.47451,-1.39334 -0.126085,-0.39708 -0.310065,-1.00546 -0.408446,-1.35245 -0.09874,-0.34736 -0.259632,-0.95896 -0.358012,-1.35923 -0.09838,-0.40063 -0.264602,-1.15961 -0.369377,-1.68706 -0.104776,-0.52743 -0.231219,-1.22285 -0.280942,-1.54499 -0.04972,-0.3225 -0.130347,-0.90108 -0.179361,-1.28609 -0.04902,-0.385 -0.120758,-1.08045 -0.159827,-1.54499 -0.03907,-0.46491 -0.08702,-1.20476 -0.106551,-1.644059 -0.01953,-0.439702 -0.03552,-1.190906 -0.03552,-1.6693 0,-0.47877 0.01563,-1.221759 0.03481,-1.651541 0.01918,-0.429755 0.05967,-1.093234 0.09021,-1.473956 0.03055,-0.381098 0.08737,-0.980295 0.126443,-1.331888 0.03907,-0.351618 0.118982,-0.967135 0.177943,-1.367405 0.0586,-0.400633 0.162669,-1.031781 0.23086,-1.402921 0.06819,-0.371153 0.180428,-0.930533 0.249328,-1.243096 0.06855,-0.31255 0.196762,-0.855985 0.284494,-1.207578 0.08773,-0.351619 0.199604,-0.783163 0.248977,-0.95896 0.04937,-0.175809 0.194277,-0.663452 0.321787,-1.083269 0.127861,-0.419809 0.351618,-1.099238 0.497947,-1.509473 0.145977,-0.410221 0.365467,-1.001566 0.488359,-1.314129 0.122533,-0.31255 0.343097,-0.848128 0.489777,-1.18982 0.147038,-0.34203 0.426562,-0.957873 0.621547,-1.36881 0.194986,-0.411288 0.502566,-1.026416 0.683,-1.367405 0.180779,-0.341321 0.492269,-0.907792 0.691879,-1.259449 0.199962,-0.351618 0.511445,-0.879046 0.692965,-1.172061 0.181137,-0.293015 0.537725,-0.844615 0.792362,-1.225337 0.254656,-0.381099 0.630785,-0.924528 0.835736,-1.207578 0.204931,-0.283427 0.533112,-0.722797 0.729184,-0.976718 0.195702,-0.253947 0.532755,-0.677315 0.748668,-0.941201 0.215945,-0.263893 0.609475,-0.727396 0.874447,-1.029993 0.264959,-0.302962 0.738383,-0.82296 1.051648,-1.155709 0.313617,-0.332793 0.879749,-0.902873 1.258746,-1.266539 0.378614,-0.364049 0.944395,-0.888308 1.256958,-1.164971 0.312549,-0.277032 0.855985,-0.739788 1.207578,-1.028204 0.351618,-0.288755 0.942989,-0.752629 1.314129,-1.03108 0.371153,-0.278808 0.97065,-0.709957 1.331888,-0.958576 0.361565,-0.248977 0.920951,-0.619772 1.243096,-0.824365 0.322496,-0.20458 0.817977,-0.50896 1.101027,-0.676228 0.28307,-0.167288 0.73091,-0.423362 0.994477,-0.569339 0.263892,-0.14562 0.775305,-0.418034 1.136544,-0.605208 0.361564,-0.186822 0.992688,-0.494395 1.402922,-0.682616 0.410221,-0.188598 0.985597,-0.443605 1.278612,-0.566139 0.293016,-0.122891 0.684789,-0.283427 0.870167,-0.356237 0.185755,-0.07317 0.609117,-0.233345 0.941201,-0.355528 0.332084,-0.122533 0.906067,-0.321429 1.275418,-0.441477 0.369377,-0.120401 0.920632,-0.29124 1.225337,-0.379675 0.30438,-0.08808 0.857391,-0.238673 1.228531,-0.334569 0.371153,-0.09554 0.890736,-0.221272 1.154303,-0.279517 0.263893,-0.05789 0.71922,-0.153433 1.012235,-0.212393 0.293015,-0.0586 0.772495,-0.147038 1.06551,-0.196762 0.293016,-0.04937 0.820469,-0.129995 1.172062,-0.178652 0.351618,-0.04866 0.935132,-0.120049 1.296371,-0.15876 0.361564,-0.03836 1.024691,-0.09483 1.473956,-0.125727 0.44929,-0.03055 0.928744,-0.06145 1.06551,-0.06819 0.136741,-0.0071 1.039959,-0.0078 2.006712,-0.0018 z m 45.42855,4.327007 -0.0575,-0.07459 -3.85251,2.803033 c -2.11927,1.541796 -3.93639,2.862697 -4.03827,2.935456 l -0.18505,0.132479 1.16178,1.603249 c 0.6393,0.881856 1.17487,1.604334 1.1909,1.605356 0.0156,0.0014 1.83443,-1.310936 4.04147,-2.915973 2.76822,-2.012779 4.00703,-2.93373 3.99387,-2.967778 -0.0103,-0.0277 -0.50931,-0.724202 -1.10811,-1.548184 -0.59917,-0.824365 -1.11489,-1.531831 -1.14651,-1.573033 z M 54.315922,62.30431 c -0.01136,0 -0.08205,0.08382 -0.157693,0.186464 -0.07529,0.102642 -0.588164,0.806926 -1.139738,1.565559 -0.551581,0.758314 -1.01083,1.400111 -1.020731,1.426366 -0.01207,0.03126 1.146126,0.89361 3.367345,2.507527 1.861832,1.353223 3.675308,2.671249 4.029775,2.92945 l 0.644289,0.469534 1.161393,-1.596158 c 0.638598,-0.87796 1.15392,-1.61564 1.144721,-1.639084 -0.0092,-0.02344 -1.814944,-1.349263 -4.012719,-2.946124 C 56.135108,63.611495 54.327318,62.30452 54.31582,62.30452 Z m -8.164441,16.051645 -0.629852,-0.203137 -0.428632,1.319112 c -0.235479,0.725288 -0.514639,1.579421 -0.619772,1.897669 -0.13248,0.400984 -0.178294,0.583897 -0.148814,0.594552 0.02309,0.0085 2.158362,0.70325 4.744716,1.543585 2.586353,0.840718 4.707409,1.523654 4.713094,1.517649 0.0061,-0.0057 0.285203,-0.854516 0.620481,-1.885595 0.335278,-1.031399 0.595977,-1.887384 0.578928,-1.901949 -0.01661,-0.01405 -1.868476,-0.622825 -4.115119,-1.352329 -2.246004,-0.729504 -4.367443,-1.418126 -4.714308,-1.529276 z M 154.4592,78.159189 c -0.0164,-0.0028 -2.14239,0.683702 -4.72446,1.526146 -2.58208,0.842443 -4.70492,1.542498 -4.71776,1.555274 -0.0128,0.01314 0.25289,0.872658 0.5903,1.910445 0.35659,1.096428 0.62936,1.880613 0.65099,1.872436 0.0206,-0.0078 2.13958,-0.696861 4.70812,-1.531831 2.56898,-0.834649 4.68786,-1.528317 4.70958,-1.541093 0.0259,-0.01527 -0.16657,-0.654573 -0.57396,-1.90444 -0.33705,-1.034593 -0.62616,-1.883807 -0.64288,-1.887001 z m -54.45729,11.8126 c -0.01494,0 -0.415545,0.68332 -0.890029,1.518353 -0.47451,0.835033 -1.0222,1.781919 -1.216841,2.104383 -0.194634,0.322138 -0.526009,0.84174 -0.735892,1.154303 -0.210259,0.312549 -0.553708,0.799835 -0.763999,1.083268 -0.210259,0.28307 -0.510378,0.674824 -0.667349,0.870167 -0.156633,0.195344 -0.46314,0.562945 -0.680892,0.816891 -0.217363,0.253947 -0.635046,0.717431 -0.928042,1.029994 -0.293015,0.31255 -0.771089,0.792361 -1.062699,1.066596 -0.291598,0.27419 -0.722031,0.665946 -0.956468,0.870866 -0.234413,0.20458 -0.625809,0.53312 -0.870167,0.72989 -0.244001,0.19641 -0.659556,0.51784 -0.923443,0.71354 -0.263534,0.19605 -0.751159,0.54057 -1.083268,0.7654 -0.332084,0.22518 -0.923443,0.60059 -1.31413,0.83465 -0.390687,0.23441 -0.98598,0.57254 -1.322306,0.75193 -0.336702,0.179 -0.882943,0.45248 -1.213647,0.60734 -0.330666,0.15485 -0.824684,0.37719 -1.097833,0.49403 -0.273123,0.11686 -0.837844,0.33955 -1.255169,0.49476 -0.416967,0.15521 -0.990196,0.35481 -1.27331,0.4436 -0.28307,0.0884 -0.682617,0.20884 -0.887926,0.2678 -0.205289,0.0586 -0.636463,0.17261 -0.958959,0.25359 -0.322138,0.0806 -0.937623,0.21666 -1.367405,0.30155 -0.429756,0.0852 -1.060911,0.19569 -1.402922,0.24506 -0.341672,0.0497 -0.989174,0.12893 -1.438439,0.17652 -0.44929,0.0473 -1.908656,0.19464 -3.242716,0.32747 l -2.426144,0.24151 0.01456,6.62559 c 0.0099,4.46128 0.0277,6.77634 0.05434,7.08743 0.02202,0.25395 0.065,0.71743 0.09554,1.02999 0.0309,0.31255 0.09554,0.84781 0.144202,1.18982 0.04866,0.34168 0.13674,0.88512 0.19641,1.20758 0.05931,0.32214 0.170124,0.8634 0.246486,1.20189 0.07636,0.33884 0.220205,0.91425 0.32001,1.27862 0.09945,0.36476 0.305804,1.03817 0.45817,1.4974 0.152014,0.45887 0.396724,1.13833 0.54341,1.50947 0.147038,0.37115 0.3502,0.86659 0.452133,1.10103 0.101933,0.23441 0.3502,0.76182 0.551581,1.17206 0.20138,0.41022 0.489425,0.96963 0.640008,1.24309 0.15059,0.27348 0.418034,0.73698 0.594201,1.03 0.176519,0.29301 0.509669,0.81619 0.740556,1.1628 0.23086,0.34629 0.574308,0.84174 0.763615,1.10102 0.189307,0.25893 0.522458,0.69469 0.740172,0.96823 0.217721,0.27348 0.498657,0.61692 0.624391,0.76361 0.125376,0.14633 0.36014,0.41342 0.521742,0.59278 l 0.293724,0.3264 0.0089,9.8317 0.0089,9.8317 h 3.977905 l 0.0089,-8.01816 0.0089,-8.01752 0.506117,0.36653 c 0.278451,0.20174 0.748349,0.52814 1.044175,0.726 0.295858,0.19782 0.815102,0.526 1.154303,0.72918 0.338829,0.20316 0.834266,0.48729 1.101027,0.63078 l 0.485165,0.26141 0.07956,0.30332 c 0.04369,0.16693 0.147037,0.50291 0.229793,0.74726 0.0824,0.244 0.20138,0.57182 0.263893,0.7281 0.06251,0.15627 0.207775,0.47663 0.322847,0.71213 0.114721,0.23512 0.323563,0.6187 0.463855,0.8524 0.140292,0.23335 0.35126,0.56011 0.468824,0.72631 0.117564,0.16587 0.334569,0.45355 0.482323,0.63931 0.147753,0.1854 0.50896,0.57857 0.802326,0.87336 0.293725,0.29479 0.725608,0.68798 0.960046,0.87406 0.234412,0.18611 0.594201,0.45036 0.799132,0.58745 0.20529,0.1371 0.516773,0.33209 0.692582,0.43367 0.175809,0.10122 2.073849,1.06231 4.217645,2.13562 l 3.898376,1.95094 3.96864,-1.98684 c 2.18289,-1.09285 4.14482,-2.09301 4.35971,-2.22301 0.21488,-0.12964 0.5665,-0.36192 0.78138,-0.51606 0.21488,-0.1545 0.57467,-0.43828 0.79913,-0.6315 0.22447,-0.19286 0.58497,-0.53417 0.80022,-0.75863 0.21559,-0.22411 0.51215,-0.55833 0.65917,-0.74228 0.14669,-0.18363 0.3637,-0.47025 0.48233,-0.63611 0.11827,-0.16622 0.32995,-0.49298 0.47024,-0.72631 0.1403,-0.23371 0.34878,-0.61729 0.4635,-0.85241 0.11507,-0.23548 0.27206,-0.58781 0.34949,-0.78316 0.0774,-0.19535 0.20529,-0.55514 0.28449,-0.79914 0.0792,-0.24435 0.16977,-0.54802 0.20173,-0.6752 l 0.0579,-0.23121 0.4326,-0.23051 c 0.2376,-0.1268 0.72809,-0.40702 1.09004,-0.62261 0.36156,-0.21595 0.92912,-0.57396 1.26123,-0.79594 0.33209,-0.22234 0.80763,-0.55229 1.05663,-0.7341 l 0.45285,-0.33031 0.009,8.01624 0.009,8.01624 h 3.97791 l 0.009,-9.83106 0.009,-9.83106 0.31077,-0.34629 c 0.17084,-0.19072 0.46386,-0.52955 0.65138,-0.75365 0.18718,-0.22375 0.48801,-0.59739 0.66844,-0.83037 0.18042,-0.23299 0.46846,-0.61693 0.64001,-0.85349 0.17154,-0.23619 0.48729,-0.69297 0.70178,-1.01473 0.21487,-0.32178 0.53808,-0.83107 0.7189,-1.13194 0.18077,-0.30083 0.48054,-0.82826 0.66664,-1.17206 0.18611,-0.34381 0.40276,-0.75295 0.48162,-0.90927 0.0788,-0.15627 0.27774,-0.57999 0.44218,-0.9412 0.1648,-0.36156 0.42727,-0.97671 0.5839,-1.3674 0.15627,-0.39069 0.41803,-1.10991 0.58106,-1.59827 0.16338,-0.48836 0.38464,-1.21575 0.49191,-1.61602 0.10726,-0.40063 0.26673,-1.05555 0.35481,-1.4562 0.0881,-0.40063 0.20849,-1.01581 0.2678,-1.3674 0.0597,-0.35162 0.13994,-0.88684 0.17865,-1.18982 0.0387,-0.30296 0.0948,-0.83037 0.12538,-1.17206 0.0302,-0.34203 0.0707,-0.96535 0.0902,-1.38517 0.0206,-0.44077 0.0355,-3.34217 0.0355,-6.86449 3.5e-4,-4.84916 -0.009,-6.10433 -0.044,-6.11672 -0.0245,-0.009 -1.33898,-0.1442 -2.92127,-0.30154 -1.5823,-0.1577 -3.14077,-0.31859 -3.46291,-0.35801 -0.32214,-0.0394 -0.82577,-0.11153 -1.11879,-0.15983 -0.29301,-0.0487 -0.80443,-0.14349 -1.13654,-0.21097 -0.33209,-0.0671 -0.86768,-0.18753 -1.18982,-0.26709 -0.32214,-0.0792 -0.75365,-0.19214 -0.95896,-0.2511 -0.20493,-0.0586 -0.66844,-0.20316 -1.02999,-0.32143 -0.36157,-0.11792 -0.89681,-0.30296 -1.18982,-0.41129 -0.29302,-0.10797 -0.79665,-0.30793 -1.11879,-0.44431 -0.32214,-0.13603 -0.85771,-0.37577 -1.18982,-0.53241 -0.33208,-0.15662 -0.8595,-0.42123 -1.17206,-0.5878 -0.31255,-0.16693 -0.79984,-0.43864 -1.08327,-0.60414 -0.28307,-0.16552 -0.75474,-0.45462 -1.04775,-0.64212 -0.29302,-0.18753 -0.81619,-0.54341 -1.16248,-0.79096 -0.34629,-0.24756 -0.84174,-0.61764 -1.10103,-0.82187 -0.25927,-0.20458 -0.70465,-0.57183 -0.99019,-0.81619 -0.2852,-0.24471 -0.77141,-0.681914 -1.08046,-0.972438 -0.309,-0.290173 -0.80163,-0.783482 -1.09464,-1.096045 -0.29266,-0.312549 -0.71073,-0.776072 -0.92804,-1.029993 -0.21772,-0.253947 -0.52423,-0.621548 -0.68083,-0.816891 -0.15699,-0.195344 -0.4571,-0.587098 -0.66735,-0.870167 -0.21027,-0.283427 -0.55372,-0.770706 -0.764,-1.083269 -0.20991,-0.31255 -0.54128,-0.832158 -0.73589,-1.154303 -0.19499,-0.322496 -0.74267,-1.26935 -1.21716,-2.104383 -0.47451,-0.835033 -0.87515,-1.518352 -0.89042,-1.518352 z m 0.005,7.708342 c 0.0128,-7.03e-4 0.0305,0.01847 0.0401,0.04298 0.01,0.0245 0.22127,0.316101 0.4706,0.648185 0.24933,0.332085 0.59029,0.77141 0.75793,0.976718 0.16728,0.204932 0.49297,0.592068 0.72382,0.859876 0.23051,0.26816 0.67201,0.75544 0.98062,1.08327 0.30864,0.32818 0.8158,0.83823 1.12696,1.13374 0.31112,0.29586 0.7654,0.71423 1.00942,0.93021 0.24436,0.21559 0.65176,0.56259 0.90569,0.77071 0.25394,0.20813 0.74157,0.58958 1.08326,0.84742 0.34203,0.25785 0.72561,0.54164 0.85241,0.63078 0.12715,0.0891 0.49617,0.33919 0.82047,0.55549 0.32392,0.21665 0.90747,0.5839 1.29637,0.81651 0.38856,0.23264 0.9497,0.55406 1.24667,0.71424 0.29693,0.16053 0.88046,0.45746 1.29638,0.66025 0.41625,0.20245 1.04417,0.49121 1.39583,0.6418 0.35162,0.1506 0.94299,0.38927 1.31413,0.53098 0.37115,0.14136 1.01862,0.37045 1.43844,0.50896 0.41981,0.13852 1.07649,0.33919 1.459,0.44574 0.38252,0.10655 1.04565,0.27455 1.47396,0.37364 0.42833,0.0987 1.08218,0.23513 1.45339,0.30261 0.37115,0.0678 0.96962,0.16444 1.32939,0.21523 0.36014,0.0508 1.27932,0.15556 2.04223,0.23299 0.76323,0.0774 1.40043,0.141 1.41608,0.141 0.0156,0 0.0224,2.20953 0.0149,4.91023 -0.0117,4.26025 -0.0213,4.98765 -0.0728,5.49626 -0.0323,0.32213 -0.092,0.83075 -0.13212,1.12945 -0.0398,0.29905 -0.11259,0.77039 -0.16089,1.04775 -0.0487,0.27739 -0.15237,0.79556 -0.23087,1.15111 -0.0781,0.35588 -0.21381,0.90709 -0.30153,1.22534 -0.0877,0.31823 -0.23229,0.80232 -0.32179,1.07579 -0.0895,0.27348 -0.23476,0.69686 -0.32249,0.9412 -0.0881,0.244 -0.24471,0.65177 -0.34878,0.90569 -0.10371,0.25394 -0.27668,0.65745 -0.38394,0.8961 -0.10726,0.23903 -0.37754,0.79057 -0.60059,1.22534 -0.22269,0.43508 -0.57751,1.07867 -0.78847,1.43026 -0.21061,0.35162 -0.56543,0.90779 -0.78814,1.23632 -0.2227,0.32818 -0.5736,0.82117 -0.77997,1.09496 -0.20671,0.27384 -0.57076,0.73238 -0.80942,1.01901 -0.23868,0.28662 -0.61871,0.72062 -0.84461,0.96496 -0.22554,0.244 -0.6883,0.71564 -1.02789,1.04775 -0.33954,0.33209 -0.78527,0.74867 -0.99058,0.92626 -0.20493,0.17722 -0.52458,0.44574 -0.71034,0.59633 l -0.33741,0.27383 -0.0234,-0.64959 c -0.0128,-0.35729 -0.0497,-0.84142 -0.082,-1.07579 -0.0323,-0.23441 -0.0984,-0.61338 -0.14633,-0.84245 -0.0483,-0.22873 -0.15167,-0.61586 -0.2298,-0.8602 -0.0781,-0.24471 -0.21381,-0.61551 -0.30118,-0.82468 -0.0877,-0.20919 -0.26212,-0.57715 -0.38785,-0.81798 -0.12573,-0.24081 -0.34735,-0.61764 -0.49262,-0.83714 -0.14491,-0.21949 -0.39744,-0.5672 -0.56081,-0.77211 -0.16338,-0.20529 -0.48907,-0.56579 -0.7235,-0.80163 -0.23477,-0.23583 -0.59243,-0.56046 -0.79486,-0.72132 -0.2028,-0.1609 -0.50647,-0.385 -0.67482,-0.49831 -0.1687,-0.11329 -0.47948,-0.3058 -0.69118,-0.42762 -0.21132,-0.12182 -0.50718,-0.27774 -0.65706,-0.34629 -0.14988,-0.0689 -0.45462,-0.19605 -0.67731,-0.28236 -0.22269,-0.0867 -0.59847,-0.21133 -0.83465,-0.27739 -0.23655,-0.0661 -0.5974,-0.15272 -0.80271,-0.1925 -0.20494,-0.0398 -0.49262,-0.0924 -0.63931,-0.11685 -0.20351,-0.0334 -1.85787,-0.0469 -7.01461,-0.0565 -4.649918,-0.008 -6.875353,-3.5e-4 -7.156423,0.0263 -0.224466,0.0209 -0.552289,0.0622 -0.728098,0.0909 -0.17581,0.0291 -0.431532,0.0785 -0.568273,0.10939 -0.13674,0.0312 -0.414482,0.10407 -0.617287,0.1616 -0.202804,0.0579 -0.546252,0.17475 -0.763615,0.25928 -0.217363,0.0849 -0.504342,0.20458 -0.637531,0.26567 -0.133546,0.0615 -0.389269,0.1925 -0.568272,0.29159 -0.179361,0.0987 -0.501499,0.29479 -0.716409,0.4358 -0.214878,0.14064 -0.558326,0.39068 -0.763615,0.55513 -0.204932,0.16444 -0.564721,0.49084 -0.799133,0.72561 -0.234412,0.23477 -0.548738,0.57821 -0.698651,0.76399 -0.14988,0.1854 -0.405603,0.53702 -0.568272,0.78138 -0.16302,0.244 -0.410579,0.66773 -0.550513,0.9412 -0.139935,0.27348 -0.317878,0.65706 -0.395306,0.85241 -0.07743,0.19534 -0.191792,0.51499 -0.254304,0.71034 -0.06251,0.19534 -0.15059,0.515 -0.196053,0.71034 -0.04546,0.19534 -0.107618,0.515 -0.137807,0.71034 -0.03055,0.19534 -0.06642,0.44289 -0.07956,0.55051 -0.0135,0.10726 -0.0341,0.47948 -0.04581,0.82686 l -0.02167,0.63114 -0.35517,-0.28734 c -0.195344,-0.1584 -0.58674,-0.49297 -0.870167,-0.74374 -0.283069,-0.25075 -0.827559,-0.7732 -1.209367,-1.1607 -0.381808,-0.38748 -0.861288,-0.89642 -1.065894,-1.13085 -0.204223,-0.23442 -0.50079,-0.58603 -0.65815,-0.78138 -0.157693,-0.19534 -0.437217,-0.55513 -0.620839,-0.79913 -0.183622,-0.24436 -0.542344,-0.75582 -0.797025,-1.13655 -0.255013,-0.38109 -0.576794,-0.88434 -0.715642,-1.11878 -0.138874,-0.23441 -0.335636,-0.57644 -0.436859,-0.76004 -0.101582,-0.18327 -0.32569,-0.6148 -0.498305,-0.95896 -0.172615,-0.34381 -0.409513,-0.84142 -0.52601,-1.10601 -0.116848,-0.26425 -0.300476,-0.70395 -0.408088,-0.97672 -0.107617,-0.27277 -0.268511,-0.70357 -0.358012,-0.95755 -0.08915,-0.25395 -0.218788,-0.6432 -0.288046,-0.86519 -0.0689,-0.22162 -0.189307,-0.6361 -0.267444,-0.92063 -0.07814,-0.28484 -0.19712,-0.76642 -0.26496,-1.07081 -0.06748,-0.30402 -0.162311,-0.76892 -0.210968,-1.03248 -0.04831,-0.2639 -0.1204,-0.70325 -0.159827,-0.97672 -0.03978,-0.27348 -0.09625,-0.73698 -0.125728,-1.03 -0.02948,-0.29301 -0.06997,-0.78814 -0.08986,-1.10032 -0.02167,-0.33705 -0.03623,-2.41976 -0.03623,-5.12333 0,-3.76161 0.0082,-4.55576 0.04724,-4.55576 0.02593,0 0.597044,-0.0562 1.269733,-0.12467 0.672332,-0.0682 1.526146,-0.16443 1.89735,-0.21381 0.371152,-0.049 0.954679,-0.13745 1.296371,-0.19676 0.34203,-0.059 0.885434,-0.16373 1.207578,-0.23263 0.322496,-0.0686 0.84174,-0.18895 1.154303,-0.26674 0.31255,-0.0781 0.844615,-0.22127 1.182026,-0.31823 0.33777,-0.097 0.905301,-0.27384 1.260854,-0.39246 0.35588,-0.11898 0.83893,-0.28769 1.073304,-0.37471 0.234412,-0.087 0.679103,-0.2614 0.988088,-0.38749 0.308998,-0.12608 0.812292,-0.34238 1.118403,-0.4809 0.306155,-0.13851 0.844615,-0.39566 1.196208,-0.57147 0.351976,-0.17581 0.815486,-0.4159 1.030377,-0.53346 0.214877,-0.11757 0.662366,-0.37435 0.994476,-0.57041 0.332084,-0.19605 0.827559,-0.49937 1.101027,-0.67412 0.273481,-0.17475 0.705038,-0.46244 0.95896,-0.63892 0.253946,-0.17688 0.685491,-0.48907 0.958959,-0.69367 0.273481,-0.20493 0.697181,-0.53311 0.941201,-0.72919 0.244358,-0.19605 0.548028,-0.44538 0.674823,-0.55371 0.127152,-0.10868 0.446805,-0.38891 0.71034,-0.62297 0.263893,-0.2337 0.839633,-0.78527 1.280018,-1.22533 0.440053,-0.44006 1.000864,-1.02642 1.246289,-1.30314 0.245425,-0.27632 0.597753,-0.684024 0.783163,-0.905686 0.185755,-0.221624 0.535598,-0.659556 0.778181,-0.973141 0.242582,-0.313616 0.520681,-0.684405 0.618353,-0.823982 0.09767,-0.139934 0.187883,-0.254656 0.200308,-0.255722 z m -0.07103,36.230549 c 4.13064,-0.003 6.36285,0.008 6.60642,0.0327 0.20245,0.0206 0.51606,0.0678 0.69686,0.10549 0.18078,0.0373 0.47664,0.1172 0.65707,0.17687 0.18042,0.06 0.50398,0.19499 0.71883,0.30012 0.21488,0.10478 0.52636,0.282 0.69258,0.39353 0.16623,0.11117 0.43651,0.31645 0.60131,0.45604 0.16444,0.13922 0.41768,0.38891 0.56294,0.55477 0.14491,0.16551 0.37435,0.4667 0.50967,0.66914 0.13532,0.20245 0.31859,0.51926 0.40738,0.70395 0.0884,0.18433 0.22198,0.52246 0.29621,0.75116 0.0746,0.22838 0.16516,0.55939 0.20174,0.73519 l 0.0668,0.31965 v 3.83584 l -0.92983,0.46172 c -0.51144,0.25395 -0.9373,0.46954 -0.9465,0.47948 -0.009,0.01 -0.0593,0.32143 -0.11117,0.69258 -0.0519,0.37116 -0.12644,0.82399 -0.16586,1.00585 -0.0391,0.1822 -0.12751,0.50115 -0.19641,0.70855 -0.0686,0.20743 -0.19535,0.53738 -0.2813,0.73308 -0.0863,0.1957 -0.25536,0.52778 -0.37577,0.73839 -0.1204,0.21026 -0.34238,0.5466 -0.49333,0.74694 -0.15059,0.20067 -0.40596,0.50541 -0.56685,0.67693 -0.16089,0.17155 -0.44645,0.44113 -0.63469,0.59846 -0.18788,0.1577 -0.50931,0.39815 -0.71462,0.53453 -0.25288,0.16836 -1.36421,0.74446 -3.45365,1.79004 l -3.0811,1.54218 -3.021435,-1.51088 c -1.661825,-0.83108 -3.162802,-1.59827 -3.335405,-1.70482 -0.172615,-0.1069 -0.454975,-0.30367 -0.627942,-0.43721 -0.172966,-0.13355 -0.447514,-0.36832 -0.610535,-0.52175 -0.16302,-0.15343 -0.424428,-0.43153 -0.581061,-0.61835 -0.156274,-0.18682 -0.393529,-0.50434 -0.527069,-0.70574 -0.133547,-0.20138 -0.323914,-0.52387 -0.422653,-0.71634 -0.09874,-0.19214 -0.251462,-0.53347 -0.339187,-0.75793 -0.08773,-0.22447 -0.208133,-0.59527 -0.267087,-0.82437 -0.05896,-0.22872 -0.155566,-0.75365 -0.21452,-1.16637 -0.05896,-0.41271 -0.11117,-0.76432 -0.11614,-0.78138 -0.005,-0.017 -0.43224,-0.2408 -0.948994,-0.49724 l -0.937112,-0.46632 v -3.83583 l 0.08276,-0.38643 c 0.04546,-0.21239 0.138874,-0.54803 0.207416,-0.74586 0.06855,-0.19783 0.194635,-0.50576 0.280227,-0.6844 0.0856,-0.17865 0.266378,-0.49049 0.4017,-0.69258 0.135322,-0.20209 0.356946,-0.49547 0.49262,-0.65177 0.135673,-0.15627 0.349133,-0.37293 0.474152,-0.48125 0.125376,-0.10869 0.323562,-0.26993 0.440769,-0.35872 0.117206,-0.0888 0.360497,-0.25004 0.540925,-0.35873 0.180428,-0.10832 0.500081,-0.26922 0.71034,-0.3573 0.21026,-0.0881 0.494396,-0.19285 0.631136,-0.23264 0.136741,-0.0394 0.376481,-0.0973 0.532755,-0.12857 0.156275,-0.0309 0.411998,-0.0696 0.568273,-0.0859 0.156274,-0.0164 3.091385,-0.0316 6.522098,-0.0344 z m 0.06452,4.01163 h -7.991329 v 3.97791 h 15.982659 v -3.9797 z M 47.062275,95.938775 h -4.990013 v 4.013423 h 9.980536 v -4.013423 z m 105.873915,0 h -4.98899 v 4.013423 h 9.98053 V 95.938647 Z M 53.724909,110.89489 c -0.03303,0.002 -1.642662,0.51996 -3.576551,1.15072 -1.933888,0.63114 -4.039677,1.31771 -4.679366,1.52583 -0.670543,0.21771 -1.163182,0.39601 -1.163182,0.42052 3.55e-4,0.0234 0.26922,0.86978 0.598104,1.88061 0.328532,1.01083 0.606632,1.84727 0.617996,1.85826 0.01101,0.0114 2.143477,-0.66985 4.738327,-1.51337 2.595233,-0.84353 4.72587,-1.54039 4.73475,-1.54889 0.0089,-0.008 -0.05789,-0.24258 -0.148463,-0.51997 -0.09093,-0.27775 -0.366534,-1.12409 -0.613026,-1.88099 -0.362273,-1.11278 -0.459587,-1.37559 -0.508602,-1.37271 z m 92.516701,-0.004 c -0.0199,0 -0.059,0.076 -0.087,0.16871 -0.0277,0.0927 -0.30154,0.94082 -0.60876,1.88451 -0.30687,0.94369 -0.55265,1.72149 -0.54555,1.72788 0.007,0.007 2.13601,0.70216 4.73124,1.54607 2.59555,0.84353 4.73156,1.52046 4.74682,1.50417 0.0157,-0.0164 0.30047,-0.86837 0.63363,-1.89339 0.33279,-1.02501 0.60201,-1.86643 0.5981,-1.86924 -0.004,-0.003 -2.12744,-0.69469 -4.71948,-1.53719 -2.59204,-0.84213 -4.72907,-1.53152 -4.749,-1.53152 z" style="fill:#33b9c7;stroke-width:0.6387952"/>

</g>
</svg>