<?xml version="1.0" encoding="utf-8"?>
<svg version="1.1" xmlns="http://www.w3.org/2000/svg" xmlns:xlink="http://www.w3.org/1999/xlink" x="0px" y="0px" viewBox="0 0 200 200" enable-background="new 0 0 200 200" xml:space="preserve">
<path fill="#ffffff" d="m98.016 40v10.016h3.9785v-10.016h-1.9883zm-14.027 2.2402c-0.01 0.000851-0.86221 0.27569-1.8926 0.61133-1.0304 0.33563-1.873 0.62448-1.873 0.64258 0 0.01814 0.68795 2.1523 1.5293 4.7422 0.84174 2.5902 1.537 4.7147 1.543 4.7207s0.85424-0.26397 1.8867-0.59961c1.0325-0.33527 1.8832-0.61435 1.8906-0.6211 0.0077-0.0068-0.67835-2.1475-1.5254-4.7559-0.84743-2.6087-1.5487-4.7413-1.5586-4.7402zm32.053 0.0077c-0.0196-0.006-0.72781 2.1246-1.5742 4.7344-0.8464 2.6094-1.5337 4.7498-1.5273 4.7559 0.007 0.006 0.85706 0.28262 1.8906 0.61719 1.0336 0.33457 1.8855 0.60281 1.8926 0.59571 0.007-0.0068 0.69944-2.1306 1.5391-4.7187 0.83964-2.5885 1.5274-4.7218 1.5274-4.7402 0-0.01814-0.83669-0.30286-1.8574-0.63282-1.0207-0.32995-1.8711-0.60529-1.8906-0.61133zm16.4 7.6582-2.918 4.0156c-1.6043 2.2084-2.9208 4.0291-2.9258 4.0469-0.004 0.01814 0.70851 0.55338 1.584 1.1895 0.87546 0.63611 1.6021 1.1566 1.6152 1.1563 0.0131-0.000349 1.3348-1.8037 2.9356-4.0078 1.6011-2.2042 2.9149-4.0216 2.9199-4.0391 0.005-0.01737-0.68632-0.53522-1.5352-1.1504-0.84922-0.61552-1.5747-1.1408-1.6113-1.166zm-64.855 0.03126c-0.01278-0.01312-0.72714 0.48727-1.5859 1.1113-0.8588 0.62368-1.5806 1.1548-1.6055 1.1797-0.03731 0.03731 0.49324 0.78768 2.8672 4.0566 1.6025 2.2067 2.9291 4.0171 2.9473 4.0234 0.01814 0.0068 0.75144-0.51144 1.6309-1.1504l1.5996-1.1621-0.0781-0.10938c-0.04284-0.06005-1.3561-1.8687-2.916-4.0176-1.5606-2.1489-2.8466-3.9163-2.8594-3.9297zm32.242 4.0645c-0.36121 0.0043-0.81832 0.01022-1.0137 0.01559-0.19534 0.0051-0.68938 0.02632-1.0996 0.04684-0.41023 0.02095-1.0271 0.0615-1.3691 0.08984-0.34167 0.02879-0.90817 0.08554-1.2598 0.125-0.35162 0.03943-0.87086 0.1028-1.1543 0.14258-0.28307 0.03977-0.84349 0.12658-1.2441 0.19336-0.40028 0.06677-1.0388 0.18625-1.4199 0.26367-0.38074 0.07742-0.93921 0.19761-1.2422 0.26758-0.3026 0.07035-0.88664 0.21553-1.2969 0.32422-0.41022 0.10903-1.1289 0.3155-1.5977 0.45899-0.46882 0.14349-1.0369 0.32457-1.2617 0.40235-0.22446 0.07776-0.65482 0.23135-0.95704 0.3418-0.30226 0.11046-0.88577 0.3368-1.2949 0.50195-0.40951 0.16516-1.0413 0.43002-1.4043 0.58985-0.36262 0.15983-1.1462 0.53477-1.7422 0.83203-0.59598 0.29727-1.3947 0.71495-1.7754 0.92774-0.38074 0.21239-0.98044 0.55787-1.332 0.76954-0.35162 0.21204-0.99209 0.61766-1.4219 0.90039-0.42976 0.28307-0.99588 0.66706-1.2598 0.85352-0.26353 0.18683-0.79115 0.57522-1.1719 0.86328-0.38074 0.2884-0.90038 0.69455-1.1543 0.90234-0.25395 0.20742-0.71068 0.58838-1.0137 0.84766-0.3026 0.25963-0.78102 0.68625-1.0645 0.94726-0.28307 0.26069-0.78398 0.73933-1.1133 1.0625-0.32924 0.3232-0.8758 0.88258-1.2129 1.2441-0.33741 0.36121-0.79522 0.86522-1.0176 1.1191-0.22234 0.25394-0.62138 0.72441-0.88672 1.0469-0.26496 0.32214-0.67753 0.84173-0.91798 1.1543-0.24045 0.31255-0.65494 0.873-0.91992 1.2441-0.26461 0.37115-0.69205 0.99408-0.94922 1.3848-0.25714 0.39069-0.65493 1.0212-0.88476 1.4023-0.23015 0.38074-0.60118 1.0212-0.82422 1.4219-0.2234 0.40028-0.58768 1.0877-0.8086 1.5273-0.22127 0.43934-0.54083 1.1022-0.71094 1.4727-0.17048 0.37045-0.43783 0.97777-0.59375 1.3496-0.15592 0.37186-0.43144 1.0741-0.61329 1.5625-0.18184 0.48836-0.45186 1.2558-0.59961 1.7051-0.1474 0.44929-0.35776 1.1287-0.4668 1.5098-0.1094 0.38074-0.29117 1.0681-0.40625 1.5273-0.11507 0.45923-0.2919 1.2302-0.39063 1.7129-0.09874 0.48267-0.2349 1.2093-0.30273 1.6152-0.06822 0.40632-0.16264 1.0349-0.21094 1.3965-0.04829 0.36121-0.12038 0.9765-0.16016 1.3672-0.03943 0.39069-0.08912 0.92556-0.10938 1.1895-0.02061 0.26353-0.05264 0.78316-0.07223 1.1543-0.01916 0.37115-0.03518 1.3455-0.03518 2.166-0.000358 0.82047 0.01559 1.7869 0.03518 2.1484 0.01984 0.3612 0.06124 0.9685 0.0918 1.3496 0.03015 0.38074 0.08665 0.97244 0.125 1.3144 0.03833 0.34167 0.09286 0.8064 0.12304 1.0313 0.03024 0.22446 0.10227 0.70289 0.16016 1.0644 0.05749 0.36121 0.16122 0.95289 0.23047 1.3144 0.06925 0.3612 0.18341 0.90404 0.25196 1.207 0.06856 0.3026 0.20187 0.8668 0.29883 1.2539 0.09695 0.38714 0.26507 1.012 0.37304 1.3867s0.31674 1.0487 0.46485 1.498c0.14776 0.44929 0.39415 1.1549 0.54688 1.5684 0.15272 0.41342 0.38172 1.0051 0.50781 1.3144 0.12608 0.30935 0.35172 0.84159 0.50196 1.1836 0.15024 0.34167 0.47956 1.0442 0.73242 1.5606 0.25253 0.51606 0.58931 1.1782 0.74806 1.4726 0.15876 0.29443 0.38315 0.70289 0.5 0.9082 0.11685 0.20529 0.37426 0.64179 0.57031 0.9707l0.35743 0.59766-0.20508 3.0254c-0.11224 1.6636-0.21538 3.1165-0.22852 3.2266l-0.02342 0.19922-1.0781-1.4883c-0.5935-0.81868-1.0916-1.495-1.1055-1.5039-0.01388-0.009-1.8295 1.2943-4.0352 2.8965-2.2052 1.6018-4.0155 2.9272-4.0215 2.9453-0.0068 0.018 0.5111 0.75213 1.1504 1.6309 0.63931 0.87905 1.1763 1.5888 1.1934 1.5781 0.01703-0.0103 1.7915-1.2966 3.9414-2.8594 2.1499-1.5624 3.9175-2.8326 3.9277-2.8223 0.01031 0.0103-0.47008 7.1669-1.0664 15.904-0.59598 8.7381-1.0733 15.896-1.0605 15.908 0.01278 0.0121 0.89912 0.0815 1.9707 0.1543s1.9607 0.12021 1.9746 0.10351c0.01388-0.0163 1.06-15.23 2.3262-33.807 1.2658-18.577 2.3255-33.985 2.3535-34.238 0.02802-0.25394 0.09587-0.73484 0.15235-1.0684 0.05613-0.33349 0.14576-0.79633 0.19726-1.0293 0.05187-0.23298 0.16246-0.67962 0.24805-0.99219 0.0856-0.31255 0.23808-0.80854 0.33789-1.1016 0.09981-0.29302 0.26898-0.75583 0.37696-1.0293 0.10833-0.27348 0.36413-0.8419 0.56836-1.2617 0.20422-0.41981 0.48577-0.96301 0.625-1.207 0.13922-0.24436 0.37587-0.63634 0.5254-0.8711 0.14954-0.23477 0.41119-0.62353 0.58203-0.86328 0.17049-0.2401 0.47029-0.63736 0.66602-0.88281 0.1957-0.24543 0.54522-0.65532 0.77539-0.91212 0.23051-0.25643 0.63153-0.67375 0.89258-0.92774 0.26105-0.2543 0.61149-0.58431 0.77734-0.73242 0.16622-0.14775 0.47208-0.40712 0.68164-0.57618 0.20991-0.16871 0.53779-0.42149 0.72852-0.5625 0.19108-0.14064 0.59548-0.41865 0.89844-0.61719 0.30296-0.1989 0.75012-0.47742 0.99414-0.61914 0.24436-0.14171 0.72277-0.39878 1.0645-0.57032 0.34203-0.17156 0.79878-0.38688 1.0137-0.47852 0.21488-0.09199 0.50193-0.21093 0.63868-0.26562 0.13674-0.05434 0.45699-0.17098 0.71094-0.25977 0.25395-0.08844 0.64961-0.21911 0.88086-0.28907 0.23158-0.07001 0.63949-0.18126 0.90625-0.24804 0.26673-0.06678 0.74001-0.17169 1.0508-0.23243 0.31077-0.06073 0.86926-0.14842 1.2422-0.19531 0.37293-0.04685 0.92319-0.10245 1.2227-0.12305 0.29941-0.02061 0.87191-0.03713 1.2715-0.03713 0.40311 0 0.95682 0.02257 1.2441 0.05272 0.28485 0.02981 0.6868 0.08752 0.89453 0.12695 0.20778 0.03977 0.56263 0.11895 0.78711 0.17578 0.22483 0.05681 0.59193 0.16547 0.8164 0.24219 0.22482 0.0764 0.53708 0.1898 0.69336 0.25196 0.15628 0.06252 0.50014 0.22299 0.76368 0.35547 0.2639 0.13212 0.63101 0.33272 0.8164 0.44531 0.18576 0.11258 0.49801 0.31817 0.69336 0.45704 0.19534 0.13887 0.53921 0.40551 0.76368 0.59375 0.22483 0.18824 0.59303 0.53602 0.82032 0.77149 0.22695 0.23584 0.55256 0.60116 0.72266 0.8125 0.16977 0.21168 0.74247 1.0348 1.2734 1.8301 0.53063 0.79523 0.97278 1.4473 0.98243 1.4473 0.01 0 0.45379-0.65203 0.98437-1.4473 0.53099-0.79524 1.1036-1.6184 1.2734-1.8301 0.17012-0.21133 0.49056-0.57382 0.71288-0.80469 0.22233-0.2305 0.54203-0.53581 0.70899-0.67969 0.16729-0.14384 0.48894-0.39965 0.71485-0.56836 0.22589-0.16834 0.59528-0.41955 0.82226-0.55665 0.22695-0.13745 0.60542-0.34568 0.83985-0.46289 0.23441-0.11721 0.57028-0.27289 0.74609-0.34571 0.17581-0.07316 0.50405-0.19512 0.72852-0.27148 0.22482-0.07597 0.59194-0.18377 0.8164-0.24024 0.22483-0.05681 0.5275-0.12871 0.67383-0.1582 0.14669-0.02947 0.46694-0.08202 0.71094-0.11719 0.35801-0.0511 0.6758-0.0632 1.6348-0.06252 0.88473 0.000852 1.3396 0.01789 1.7754 0.06448 0.32214 0.03449 0.83343 0.09995 1.1367 0.14649 0.30297 0.0465 0.81458 0.14168 1.1367 0.21094 0.32214 0.06959 0.82134 0.19228 1.1094 0.27148 0.2884 0.07887 0.7764 0.22797 1.084 0.33204 0.30757 0.10371 0.81445 0.2894 1.127 0.41406 0.3122 0.12467 0.94311 0.41419 1.4023 0.64258 0.45924 0.22802 1.0586 0.54842 1.332 0.7129 0.27348 0.16444 0.61735 0.37748 0.76367 0.47266 0.14669 0.09519 0.45471 0.30696 0.68555 0.4707 0.2305 0.16374 0.62282 0.46035 0.87109 0.65821 0.24791 0.19783 0.60169 0.4934 0.78711 0.65821 0.18575 0.16514 0.54218 0.5019 0.79297 0.74805 0.25074 0.24613 0.64571 0.65764 0.87695 0.91406 0.23087 0.25679 0.57968 0.66669 0.7754 0.91211 0.1957 0.24543 0.49056 0.63474 0.65429 0.86524 0.1641 0.23086 0.42576 0.61894 0.58203 0.86328 0.15663 0.244 0.39788 0.64434 0.53711 0.88868 0.13887 0.244 0.42078 0.78722 0.625 1.207 0.20422 0.41981 0.45845 0.98825 0.5664 1.2617 0.10798 0.27348 0.27112 0.71268 0.36133 0.97656 0.0902 0.26389 0.21075 0.63864 0.26758 0.83398 0.0568 0.19534 0.15838 0.58004 0.22657 0.85352 0.0682 0.27348 0.16601 0.71212 0.2168 0.9746 0.0505 0.26283 0.12125 0.6864 0.1582 0.94141 0.0373 0.25501 0.0863 0.64631 0.10937 0.8711 0.0231 0.22447 1.0768 15.571 2.3398 34.104 1.2634 18.532 2.3084 33.707 2.3223 33.721 0.0135 0.0139 0.90695-0.0355 1.9863-0.10938 1.0797-0.0735 1.9668-0.13583 1.9707-0.13867 0.004-0.003-0.48176-7.1631-1.0781-15.91-0.59633-8.7476-1.0763-15.912-1.0664-15.922 0.01-0.01 1.7776 1.2595 3.9277 2.8223 2.1499 1.5628 3.9217 2.8503 3.9395 2.8613 0.0174 0.011 0.56166-0.70621 1.207-1.5938l1.1738-1.6133-4.002-2.9062c-2.201-1.599-4.0222-2.9197-4.0449-2.9336-0.0273-0.0164-0.42478 0.5045-1.1348 1.4805l-1.0957 1.5039-0.0234-0.19922c-0.0131-0.10976-0.11628-1.5603-0.22851-3.2246l-0.20508-3.0254 0.36719-0.61133c0.20173-0.33633 0.54205-0.92413 0.75585-1.3066 0.21417-0.38287 0.64213-1.2089 0.95118-1.834 0.309-0.6251 0.68052-1.4081 0.82617-1.7402 0.14597-0.33208 0.36859-0.85931 0.49609-1.1719 0.12751-0.31255 0.35971-0.91222 0.51563-1.332 0.15592-0.42016 0.41172-1.1544 0.56836-1.6328 0.15698-0.47876 0.37446-1.1818 0.48242-1.5625 0.10797-0.3811 0.26739-0.98043 0.35547-1.332 0.0881-0.35162 0.22459-0.9277 0.30273-1.2793 0.0778-0.35161 0.18909-0.89446 0.24805-1.207 0.0594-0.31255 0.13902-0.75972 0.17774-0.99415 0.0391-0.23442 0.11149-0.70712 0.16015-1.0488 0.049-0.34203 0.12074-0.91618 0.16016-1.2773 0.0394-0.36156 0.0962-0.94529 0.125-1.2969 0.0291-0.35162 0.071-1.0118 0.0937-1.4668 0.026-0.51891 0.0348-1.4764 0.0234-2.5742-0.0114-1.0893-0.0406-2.0358-0.0762-2.5117-0.0316-0.42017-0.0898-1.0763-0.12891-1.457-0.0394-0.3811-0.10315-0.93959-0.14257-1.2422-0.0394-0.30296-0.13511-0.938-0.21289-1.4121-0.0781-0.47414-0.21466-1.2183-0.30274-1.6523-0.0881-0.43437-0.26135-1.205-0.38672-1.7129-0.12537-0.50789-0.31799-1.2345-0.42774-1.6152-0.10974-0.3811-0.32898-1.0861-0.48632-1.5645-0.15734-0.47877-0.41688-1.2206-0.57812-1.6504-0.16125-0.42975-0.36895-0.96499-0.46094-1.1895-0.0916-0.22447-0.32916-0.77729-0.52735-1.2266-0.19783-0.44929-0.57753-1.2559-0.8457-1.793-0.26816-0.53737-0.67114-1.3048-0.89453-1.7051-0.2234-0.40063-0.59409-1.0392-0.82422-1.4199-0.23051-0.3811-0.61804-0.99604-0.86133-1.3672-0.24329-0.37115-0.6885-1.0196-0.98828-1.4395-0.29942-0.41981-0.75547-1.0351-1.0137-1.3672-0.25821-0.33208-0.71607-0.90049-1.0176-1.2617-0.30154-0.36157-0.81278-0.95126-1.1367-1.3125-0.32427-0.36156-1.0303-1.0987-1.5684-1.6367-0.53808-0.53772-1.2187-1.1935-1.5117-1.457-0.29302-0.26318-0.74782-0.66311-1.0117-0.88868-0.26389-0.22589-0.72826-0.60984-1.0312-0.85352-0.30259-0.24365-0.80463-0.63474-1.1172-0.86914-0.31255-0.2344-0.7597-0.56321-0.99414-0.73048-0.23441-0.16764-0.80249-0.55289-1.2617-0.85547-0.45924-0.30296-1.1542-0.74212-1.5449-0.97656-0.39069-0.23405-0.97473-0.57102-1.2969-0.75-0.32213-0.17865-1.0251-0.54735-1.5625-0.81836-0.53701-0.27099-1.248-0.61701-1.5801-0.76758-0.33209-0.15024-0.89254-0.39236-1.2441-0.53906-0.35162-0.14703-0.95093-0.3876-1.332-0.53321-0.38074-0.14563-1.0917-0.39841-1.5801-0.5625-0.48835-0.16408-1.1914-0.38671-1.5625-0.4961-0.37116-0.10904-1.0741-0.30148-1.5625-0.42578-0.48837-0.12432-1.1914-0.28959-1.5625-0.36914-0.37116-0.07955-0.97489-0.20135-1.3418-0.26954-0.36654-0.06788-0.98946-0.17026-1.3848-0.22851-0.39495-0.05826-0.98222-0.13707-1.3047-0.17579-0.32214-0.03875-0.84942-0.09516-1.1719-0.125-0.32214-0.02981-0.82612-0.07189-1.1191-0.09179-0.29301-0.02027-0.97242-0.05306-1.5098-0.07231-0.53702-0.01916-1.2713-0.03126-1.6328-0.02734zm0.50001 4.0195-0.004 0.006c0.96713 0.006 1.9824 0.02785 2.2559 0.0488 0.27348 0.02061 0.76945 0.06201 1.1016 0.09179 0.33208 0.02981 0.92181 0.09392 1.3125 0.14258 0.39069 0.04829 1.008 0.13671 1.3691 0.19532 0.36156 0.05894 0.8712 0.14754 1.1348 0.19726 0.26389 0.04974 0.76754 0.15304 1.1191 0.23047 0.35162 0.07742 0.97454 0.22691 1.3848 0.33204 0.41022 0.10549 1.0899 0.29667 1.5098 0.42383 0.41981 0.1275 1.0195 0.31958 1.332 0.42578 0.31255 0.10655 0.85739 0.29987 1.209 0.43164 0.35162 0.13177 0.93337 0.36433 1.2949 0.51563 0.36156 0.1513 0.91399 0.39079 1.2266 0.53321 0.31255 0.14243 0.95111 0.45378 1.4199 0.69141 0.46882 0.23726 1.0761 0.55624 1.3496 0.70898 0.27348 0.15272 0.76968 0.44262 1.1035 0.64259 0.33422 0.20032 0.87599 0.53461 1.2031 0.74414 0.3271 0.20991 0.90106 0.59904 1.2754 0.86328 0.37436 0.26461 0.83981 0.60102 1.0352 0.74805 0.19535 0.14703 0.61927 0.47721 0.94141 0.73438 0.32214 0.25749 0.8245 0.67396 1.1172 0.92578 0.29231 0.25181 0.7338 0.64109 0.97852 0.86524 0.24436 0.22412 0.71372 0.6713 1.043 0.99414 0.32889 0.32285 0.84193 0.84941 1.1406 1.1719 0.29906 0.32213 0.73785 0.81122 0.97656 1.084 0.23868 0.27312 0.65371 0.76718 0.92188 1.0996 0.26779 0.3328 0.67766 0.86127 0.91211 1.1738 0.23405 0.31255 0.53994 0.72848 0.67773 0.92383 0.1378 0.19534 0.46053 0.67377 0.71875 1.0645 0.25857 0.39069 0.6669 1.0388 0.90625 1.4395 0.23904 0.40027 0.56814 0.96674 0.73047 1.2598 0.16196 0.29301 0.49714 0.94112 0.74609 1.4395 0.24898 0.49794 0.60562 1.2482 0.79102 1.668 0.18575 0.41981 0.44441 1.037 0.57617 1.3691 0.13178 0.33208 0.35775 0.92942 0.50195 1.3301 0.14419 0.40028 0.35688 1.0332 0.47266 1.4043 0.11614 0.37115 0.28337 0.92962 0.3711 1.2422 0.0874 0.31255 0.21465 0.79293 0.2832 1.0664 0.0686 0.27348 0.18944 0.78513 0.26757 1.1367 0.0781 0.35162 0.19798 0.95093 0.26758 1.332 0.0693 0.38074 0.17293 1.0117 0.23047 1.4023 0.0576 0.39069 0.13761 1.0056 0.17774 1.3672 0.0401 0.36121 0.0962 0.95251 0.125 1.3145 0.0287 0.36157 0.0714 1.0821 0.0937 1.5996 0.0249 0.56401 0.0323 1.4292 0.0195 2.1641-0.0121 0.67373-0.0463 1.5701-0.0761 1.9902-0.0298 0.4198-0.0856 1.074-0.125 1.4551-0.0398 0.38074-0.11309 0.98044-0.16211 1.332-0.049 0.35162-0.12073 0.83197-0.16016 1.0664-0.0391 0.23441-0.12677 0.71286-0.19532 1.0644-0.0686 0.35162-0.19741 0.95093-0.28515 1.332-0.0881 0.38074-0.2475 1.0212-0.35546 1.4219-0.10798 0.40028-0.29952 1.0544-0.42383 1.4551-0.12395 0.40028-0.32261 1.0076-0.44337 1.3496-0.1204 0.34167-0.32811 0.90213-0.46094 1.2441-0.13283 0.34167-0.2887 0.73276-0.34374 0.86914l-0.0996 0.24805-0.0254-0.17774c-0.0146-0.0973-0.33923-4.7867-0.72069-10.422-0.38181-5.6358-0.71861-10.512-0.74806-10.834-0.0298-0.32249-0.0952-0.86534-0.14453-1.207-0.049-0.34203-0.14292-0.8943-0.20898-1.2285-0.0661-0.33457-0.18483-0.86571-0.26367-1.1797-0.0792-0.31432-0.22388-0.83715-0.32226-1.1621-0.0984-0.32462-0.26508-0.8247-0.36915-1.1113-0.10406-0.28662-0.27395-0.72844-0.37695-0.98242-0.10336-0.25394-0.31212-0.73125-0.46485-1.0605-0.15237-0.32924-0.41616-0.8565-0.58593-1.1719-0.17014-0.3154-0.42984-0.77324-0.57617-1.0176-0.14597-0.24399-0.39576-0.64465-0.55665-0.88867-0.16089-0.24435-0.40232-0.59585-0.53515-0.78126-0.13284-0.18575-0.39716-0.53941-0.58789-0.78516-0.19109-0.24577-0.54983-0.68321-0.79883-0.97266-0.24862-0.28982-0.69261-0.77232-0.98633-1.0742-0.29372-0.3019-0.75941-0.75208-1.0332-1-0.27419-0.2479-0.6425-0.57047-0.81836-0.7168-0.17581-0.14633-0.46605-0.38278-0.64649-0.52344-0.18006-0.141-0.5083-0.38616-0.72851-0.54492-0.2202-0.15876-0.5994-0.41884-0.84375-0.58008-0.244-0.16124-0.64644-0.41315-0.89258-0.56055-0.24648-0.14703-0.63722-0.37159-0.86914-0.49804-0.23228-0.12644-0.59956-0.31817-0.81445-0.42579-0.21487-0.10727-0.70093-0.33023-1.082-0.49609-0.38074-0.16622-0.95716-0.39842-1.2793-0.51563-0.32214-0.11756-0.78496-0.27858-1.0293-0.35743-0.244-0.07887-0.71671-0.2159-1.0488-0.30469-0.33208-0.08914-0.81815-0.20933-1.082-0.26757-0.26389-0.0586-0.75955-0.15305-1.1016-0.21094-0.34167-0.05792-0.82027-0.13122-1.0625-0.16211-0.24187-0.03092-0.74356-0.08125-1.1172-0.11329-0.4326-0.03697-1.0795-0.05758-1.7812-0.0586-0.80839-0.0017-1.2444 0.01422-1.6426 0.0586-0.29799 0.03305-0.78214 0.10067-1.0762 0.1504-0.29444 0.04974-0.79009 0.1518-1.1016 0.22851-0.31149 0.07674-0.76857 0.20524-1.0176 0.28516-0.24897 0.08023-0.69896 0.24182-0.99804 0.35938-0.29906 0.11721-0.80873 0.34745-1.1348 0.50977-0.32604 0.16196-0.81973 0.42948-1.0957 0.5957-0.27596 0.16622-0.69532 0.43979-0.9336 0.60743-0.23796 0.16729-0.63523 0.46767-0.88281 0.66797-0.2472 0.20031-0.66988 0.58003-0.93945 0.8418l-0.49023 0.47461-0.45313-0.44141c-0.255-0.244-0.602-0.563-0.778-0.71-0.176-0.148-0.479-0.39-0.674-0.537s-0.547-0.395-0.781-0.551c-0.23441-0.15556-0.60134-0.38297-0.81445-0.50586-0.21346-0.12254-0.6294-0.34018-0.92383-0.48438-0.29193-0.15012-0.77188-0.36353-1.0644-0.47852-0.29321-0.11498-0.73521-0.27367-0.98242-0.35352-0.24721-0.07921-0.67056-0.19987-0.9414-0.26758-0.27085-0.06712-0.65954-0.15375-0.86524-0.19336-0.20493-0.03978-0.5408-0.09624-0.7461-0.125-0.20493-0.02879-0.56441-0.07316-0.79883-0.09765-0.24968-0.02598-0.87545-0.04412-1.5098-0.04301-0.67941 0.0017-1.3377 0.02427-1.7656 0.06056-0.37542 0.03194-0.87141 0.08381-1.1016 0.11328-0.23015 0.02947-0.66577 0.09286-0.96875 0.14258-0.3026 0.0494-0.87669 0.16351-1.2773 0.25195-0.40028 0.08879-1.0252 0.24519-1.3867 0.34961-0.36121 0.10477-0.89644 0.27378-1.1895 0.375-0.29302 0.10087-0.80695 0.2919-1.1426 0.42579-0.33528 0.1339-0.89301 0.37462-1.2383 0.53516-0.34522 0.16053-0.93262 0.46018-1.3066 0.66406-0.37399 0.20422-0.96544 0.54829-1.3125 0.76563-0.34735 0.21736-0.87465 0.56883-1.1719 0.78126-0.29727 0.21239-0.71109 0.52109-0.91992 0.68555-0.20884 0.16444-0.61023 0.49834-0.89258 0.74023-0.28272 0.24152-0.78176 0.69972-1.1074 1.0176-0.32604 0.31824-0.77443 0.77801-0.99609 1.0234-0.22163 0.24542-0.54916 0.62143-0.72852 0.83594-0.179 0.21487-0.51419 0.64251-0.7461 0.95118-0.23157 0.30828-0.60474 0.83554-0.82813 1.1719-0.22305 0.33599-0.54347 0.8501-0.71289 1.1406-0.16942 0.29052-0.44973 0.80016-0.62305 1.1348-0.17296 0.33457-0.42203 0.84956-0.55274 1.1426-0.13071 0.29301-0.31835 0.73221-0.41602 0.97656-0.09803 0.24399-0.24892 0.64238-0.33594 0.88672-0.08701 0.24399-0.23613 0.70394-0.33203 1.0215-0.0959 0.31788-0.23916 0.83533-0.31836 1.1504-0.07921 0.31503-0.19761 0.84711-0.26367 1.1816-0.06609 0.33422-0.16157 0.8865-0.21094 1.2285-0.0494 0.34167-0.1131 0.88457-0.14258 1.207-0.02947 0.32213-0.36622 5.1982-0.74805 10.834-0.38145 5.6354-0.70614 10.326-0.72071 10.424l-0.02538 0.17774-0.26367-0.65625c-0.1442-0.36157-0.37285-0.96035-0.50782-1.3301-0.13461-0.36938-0.34817-0.99583-0.47461-1.3926-0.12609-0.39708-0.30982-1.0065-0.40821-1.3535-0.09874-0.34736-0.25904-0.9591-0.35742-1.3594-0.09838-0.40064-0.26436-1.1581-0.36914-1.6855-0.10477-0.52744-0.23152-1.2228-0.28125-1.5449-0.04974-0.32249-0.13068-0.9021-0.17969-1.2871-0.04897-0.385-0.12109-1.0804-0.16016-1.5449-0.03909-0.46492-0.08594-1.2052-0.10547-1.6445-0.0195-0.4397-0.03518-1.1896-0.03518-1.668 0-0.47877 0.01397-1.2226 0.03322-1.6523 0.01916-0.42976 0.06132-1.0939 0.0918-1.4746 0.03058-0.3811 0.08593-0.98044 0.125-1.332 0.03909-0.35162 0.11877-0.96691 0.17773-1.3672 0.0586-0.40064 0.16423-1.0312 0.23242-1.4023 0.06822-0.37116 0.17914-0.92963 0.24805-1.2422 0.06856-0.31255 0.19742-0.85739 0.28516-1.209 0.08772-0.35162 0.19867-0.78319 0.24805-0.95898 0.0494-0.17581 0.19476-0.66221 0.32227-1.082 0.12786-0.41982 0.35172-1.0995 0.49805-1.5098 0.14598-0.41023 0.36538-1.0019 0.48828-1.3145 0.12253-0.31255 0.34355-0.84777 0.49024-1.1895 0.14703-0.34203 0.4261-0.9582 0.62109-1.3691 0.19499-0.41129 0.50316-1.0262 0.6836-1.3672 0.18078-0.34132 0.4918-0.90811 0.69141-1.2598 0.19997-0.35162 0.51184-0.87886 0.69336-1.1719 0.18114-0.29302 0.53834-0.84389 0.79298-1.2246 0.25466-0.3811 0.63098-0.92594 0.83594-1.209 0.20493-0.28343 0.53245-0.72265 0.72852-0.97656 0.1957-0.25395 0.53213-0.67752 0.74805-0.9414 0.21595-0.2639 0.61002-0.7267 0.875-1.0293 0.26496-0.30297 0.73752-0.82351 1.0508-1.1562 0.31362-0.3328 0.88076-0.90196 1.2598-1.2656 0.37861-0.36404 0.9433-0.88936 1.2559-1.166 0.31255-0.27703 0.85739-0.73893 1.209-1.0273 0.35162-0.28876 0.94136-0.75279 1.3125-1.0312 0.37116-0.2788 0.97079-0.71036 1.332-0.95898 0.36157-0.24898 0.922-0.61963 1.2441-0.82422 0.3225-0.20458 0.81852-0.50852 1.1016-0.67578 0.28307-0.16729 0.73058-0.42434 0.99414-0.57032 0.26389-0.14562 0.77548-0.41829 1.1367-0.60547 0.36157-0.18683 0.99211-0.49341 1.4023-0.68164 0.41023-0.1886 0.98628-0.44387 1.2793-0.56641 0.29302-0.12289 0.68377-0.28265 0.86914-0.35547 0.18576-0.07316 0.60932-0.23329 0.9414-0.35547 0.33209-0.12253 0.90604-0.32136 1.2754-0.44141 0.36938-0.1204 0.9199-0.29242 1.2246-0.38086 0.30438-0.08809 0.85738-0.23809 1.2285-0.33399 0.37116-0.09554 0.89073-0.22106 1.1543-0.2793 0.2639-0.05792 0.72066-0.15392 1.0137-0.21289 0.29302-0.0586 0.77144-0.14754 1.0644-0.19727 0.29302-0.0494 0.82029-0.12907 1.1719-0.17773 0.35162-0.04863 0.93564-0.11949 1.2969-0.1582 0.36157-0.03833 1.0254-0.09606 1.4746-0.12696 0.4493-0.03058 0.92769-0.06158 1.0645-0.06839 0.13674-0.0068 1.0411-0.0077 2.0078-0.0017zm45.367 4.2578-3.8516 2.8027c-2.1193 1.5418-3.9372 2.8628-4.0391 2.9356l-0.18555 0.13281 1.1621 1.6035c0.63931 0.88186 1.1754 1.6044 1.1914 1.6055 0.0157 0.0017 1.834-1.311 4.041-2.916 2.7682-2.0128 4.0073-2.9347 3.9941-2.9688-0.0103-0.02768-0.5086-0.72289-1.1074-1.5469-0.59916-0.82436-1.1149-1.533-1.1465-1.5742zm-91.379 0.02538c-0.01133 0-0.08253 0.08287-0.15821 0.18555-0.07529 0.10264-0.58905 0.80778-1.1406 1.5664-0.55158 0.75832-1.0096 1.3995-1.0195 1.4258-0.0121 0.03126 1.146 0.8939 3.3672 2.5078 1.8618 1.3532 3.6748 2.6715 4.0293 2.9297l0.64453 0.46876 1.1621-1.5957c0.6386-0.87796 1.1537-1.6152 1.1445-1.6387-0.0092-0.02342-1.8159-1.3504-4.0137-2.9473-2.1974-1.5963-4.0041-2.9023-4.0156-2.9023zm-8.8 15.847-0.427 1.321c-0.23548 0.7253-0.51596 1.5782-0.6211 1.8965-0.13248 0.40098-0.17792 0.58504-0.14843 0.5957 0.02308 0.0085 2.1578 0.70264 4.7441 1.543 2.5864 0.84072 4.7072 1.5236 4.7129 1.5176 0.006-0.006 0.28581-0.85369 0.62109-1.8848 0.33527-1.0314 0.59713-1.8878 0.58008-1.9023-0.01661-0.01405-1.8686-0.62402-4.1152-1.3535-2.246-0.7295-4.368-1.4182-4.7148-1.5293zm108.94 0.0077c-0.0163-0.0026-2.1425 0.68295-4.7246 1.5254-2.5821 0.84243-4.704 1.5419-4.7168 1.5547-0.0128 0.01312 0.25245 0.87237 0.58985 1.9102 0.35659 1.0964 0.62876 1.8812 0.65039 1.873 0.0206-0.0077 2.1405-0.69628 4.709-1.5312 2.569-0.83465 4.6873-1.5282 4.709-1.541 0.0259-0.01525-0.16684-0.65443-0.57422-1.9043-0.33674-1.0336-0.62537-1.882-0.64258-1.8867zm-54.457 11.812c-0.01499 0-0.41614 0.68255-0.89063 1.5176-0.47451 0.83503-1.0222 1.7811-1.2168 2.1035-0.19464 0.32213-0.52644 0.84174-0.73633 1.1543-0.21026 0.31255-0.55338 0.80055-0.76368 1.084-0.21026 0.28306-0.50905 0.67576-0.66602 0.8711-0.15663 0.19535-0.46388 0.56245-0.68164 0.8164-0.21736 0.25394-0.63474 0.71675-0.92774 1.0293-0.29302 0.31255-0.77089 0.79216-1.0625 1.0664-0.2916 0.27419-0.7226 0.66616-0.95703 0.87109-0.23442 0.20457-0.62479 0.53368-0.86914 0.73047-0.244 0.1964-0.65994 0.51718-0.92382 0.71288-0.26353 0.19606-0.75188 0.54079-1.084 0.76563-0.33209 0.22518-0.92376 0.59993-1.3145 0.83398-0.39068 0.23442-0.98594 0.57257-1.3223 0.75196-0.3367 0.17901-0.88218 0.45256-1.2129 0.60742-0.33067 0.15485-0.82451 0.37729-1.0977 0.49414-0.27312 0.11686-0.83854 0.34089-1.2559 0.49609-0.41697 0.15521-0.99032 0.35457-1.2734 0.44336-0.28307 0.0884-0.68142 0.20861-0.88672 0.26758-0.20529 0.0586-0.63649 0.17293-0.95898 0.25391-0.32214 0.0807-0.93936 0.21588-1.3691 0.30077-0.42976 0.0853-1.0603 0.19673-1.4023 0.2461-0.34167 0.0497-0.98823 0.12819-1.4375 0.17578-0.44929 0.0473-1.9101 0.1953-3.2441 0.32813l-2.4258 0.24023 0.01559 6.627c0.01 4.4613 0.02606 6.7748 0.05272 7.086 0.02197 0.25395 0.06516 0.71868 0.0957 1.0312 0.03092 0.31255 0.09587 0.84744 0.14453 1.1895 0.04863 0.34167 0.1376 0.88457 0.19727 1.207 0.05928 0.32214 0.16973 0.86462 0.24609 1.2031 0.0764 0.33884 0.22051 0.91298 0.32032 1.2774 0.09945 0.36476 0.30466 1.0388 0.45703 1.498 0.15202 0.45888 0.39824 1.1386 0.54493 1.5098 0.14703 0.37115 0.34924 0.86517 0.45117 1.0996 0.10194 0.23441 0.35136 0.76359 0.55274 1.1738 0.20138 0.41022 0.48808 0.96872 0.63867 1.2422s0.41759 0.73628 0.59376 1.0293c0.17652 0.29302 0.5113 0.81746 0.74219 1.1641 0.23086 0.3463 0.57436 0.84032 0.76367 1.0996 0.1893 0.25892 0.52253 0.69522 0.74024 0.96875 0.21772 0.27348 0.49732 0.61699 0.62305 0.76368 0.12537 0.14632 0.35988 0.41439 0.52149 0.59374l0.29492 0.32618 0.0077 9.832 0.0098 9.8301h3.9785l0.0077-8.0176 0.0098-8.0176 0.50586 0.36719c0.27846 0.20174 0.74714 0.5287 1.043 0.72656 0.29586 0.19782 0.8151 0.52534 1.1543 0.72851 0.33883 0.20316 0.8348 0.48737 1.1016 0.63087l0.48633 0.26172 0.0781 0.30273c0.04369 0.16693 0.14772 0.50369 0.23047 0.74804 0.08236 0.244 0.20116 0.57029 0.26367 0.72657 0.06252 0.15627 0.2072 0.47739 0.32227 0.71288 0.11473 0.23512 0.32455 0.61786 0.46485 0.85157 0.14029 0.23334 0.35118 0.56035 0.46875 0.72657 0.11756 0.16585 0.33466 0.45486 0.48242 0.64061 0.14775 0.1854 0.50937 0.57827 0.80274 0.87306 0.29372 0.29479 0.72455 0.68697 0.95898 0.87304 0.23441 0.18611 0.59389 0.4508 0.79883 0.58789 0.20529 0.13709 0.51756 0.33201 0.69337 0.4336 0.17581 0.10122 2.073 1.0615 4.2168 2.1348l3.8984 1.9512 3.9688-1.9863c2.1829-1.0928 4.1445-2.0927 4.3594-2.2227 0.21488-0.12964 0.56638-0.36148 0.78125-0.51563 0.21489-0.15449 0.57632-0.43959 0.80078-0.63281 0.22447-0.19286 0.58357-0.53336 0.79883-0.75781 0.21558-0.22412 0.51314-0.55824 0.66015-0.74219 0.14669-0.18363 0.3638-0.47086 0.48243-0.63671 0.11827-0.16623 0.33041-0.49324 0.4707-0.72657 0.1403-0.23371 0.34818-0.61645 0.4629-0.85157 0.11507-0.23548 0.27217-0.58784 0.3496-0.78319 0.0774-0.19535 0.204-0.55484 0.2832-0.79884 0.0792-0.24436 0.17117-0.5486 0.20313-0.67577l0.0566-0.23047 0.4336-0.23047c0.2376-0.1268 0.7279-0.40746 1.0898-0.62305 0.36157-0.21595 0.92961-0.57489 1.2617-0.79687 0.33208-0.22234 0.80764-0.55061 1.0566-0.73243l0.45312-0.33203 0.008 8.0176 0.01 8.0156h3.9766l0.01-9.8301 0.008-9.832 0.31055-0.34571c0.17084-0.19072 0.46482-0.52981 0.65234-0.7539 0.18718-0.22376 0.48754-0.59711 0.66797-0.83008 0.18042-0.23299 0.46909-0.61696 0.64063-0.85351 0.17155-0.2362 0.48669-0.69386 0.70117-1.0156 0.21488-0.32178 0.53793-0.82999 0.71875-1.1309 0.18078-0.30083 0.48187-0.82808 0.66796-1.1719 0.18612-0.34381 0.40162-0.75384 0.48047-0.91015 0.0789-0.15628 0.27892-0.5802 0.44336-0.94141 0.1648-0.36156 0.42735-0.9765 0.58399-1.3672 0.15627-0.39069 0.41705-1.1093 0.58007-1.5976 0.16338-0.48836 0.38492-1.2169 0.49219-1.6172 0.10726-0.40064 0.26738-1.0544 0.35547-1.4551 0.0881-0.40063 0.20827-1.0156 0.26758-1.3672 0.0597-0.35162 0.13903-0.88842 0.17774-1.1914 0.0387-0.30296 0.0944-0.83018 0.125-1.1719 0.0302-0.34202 0.0723-0.96494 0.0918-1.3848 0.0206-0.44077 0.0352-3.3429 0.0352-6.8652 0.00036-4.8492-0.01-6.1028-0.0449-6.1152-0.0245-0.009-1.3396-0.1454-2.9219-0.30274-1.5823-0.1577-3.1407-0.31799-3.4629-0.35742-0.32213-0.0394-0.82417-0.11185-1.1172-0.16016-0.29301-0.0487-0.8046-0.14345-1.1367-0.21093-0.33208-0.0671-0.8673-0.18802-1.1894-0.26758-0.32213-0.0792-0.75368-0.19104-0.95899-0.25-0.20491-0.0586-0.66968-0.20399-1.0312-0.32226-0.36156-0.11792-0.89644-0.30184-1.1895-0.41016-0.29301-0.10797-0.79699-0.30894-1.1191-0.44532-0.32213-0.13603-0.85734-0.37461-1.1894-0.53124-0.33208-0.15663-0.85931-0.42131-1.1719-0.58789-0.31255-0.16693-0.80054-0.43997-1.084-0.60548-0.28306-0.1655-0.75386-0.45312-1.0469-0.64061-0.29301-0.18754-0.81581-0.54347-1.1621-0.79102s-0.84227-0.61804-1.1016-0.82227c-0.25927-0.20457-0.70469-0.57204-0.99023-0.8164-0.2852-0.24471-0.77103-0.68214-1.0801-0.97266-0.309-0.29017-0.8027-0.78313-1.0957-1.0957-0.29266-0.31255-0.71042-0.77538-0.92773-1.0293-0.21772-0.25394-0.52309-0.62301-0.67969-0.81836-0.15698-0.19534-0.45773-0.58607-0.66798-0.86914-0.21026-0.28343-0.55337-0.77142-0.76366-1.084-0.20991-0.31255-0.54171-0.83215-0.73633-1.1543-0.19499-0.3225-0.7423-1.2685-1.2168-2.1035-0.47405-0.83423-0.87464-1.5163-0.89063-1.5176zm-57.93 5.9668v4.0137h9.9805v-4.0137h-4.9902zm105.88 0v4.0137h9.9805v-4.0137h-4.9922zm-47.939 1.7402c0.0128-0.000698 0.0296 0.01848 0.0391 0.04301 0.01 0.02453 0.22137 0.31636 0.4707 0.64844 0.24934 0.33208 0.59018 0.77126 0.75782 0.97656 0.16728 0.20493 0.49376 0.59156 0.7246 0.85937 0.23051 0.26815 0.67186 0.75616 0.98047 1.084 0.30864 0.32817 0.81579 0.83925 1.127 1.1348 0.31113 0.29586 0.76575 0.71371 1.0098 0.92969 0.24436 0.21559 0.65038 0.56142 0.9043 0.76953 0.25395 0.20814 0.74229 0.58981 1.084 0.84766 0.34202 0.25785 0.72476 0.5417 0.85155 0.63086 0.12716 0.0892 0.49797 0.34033 0.82227 0.55663 0.32391 0.21666 0.90602 0.5838 1.2949 0.81641 0.38856 0.23264 0.95107 0.55273 1.248 0.71289 0.29692 0.16055 0.879 0.45736 1.2949 0.66016 0.41625 0.20245 1.0448 0.49198 1.3965 0.64258 0.35163 0.15059 0.94332 0.38953 1.3144 0.53124 0.37116 0.14136 1.0177 0.37126 1.4375 0.50977 0.41981 0.13852 1.0765 0.33877 1.459 0.44532 0.38251 0.10655 1.0463 0.27395 1.4746 0.37304 0.42833 0.0987 1.0819 0.23525 1.4531 0.30274 0.37116 0.0678 0.97032 0.16406 1.3301 0.21484 0.36014 0.0508 1.2781 0.15499 2.041 0.23242 0.76324 0.0774 1.4004 0.14258 1.416 0.14258 0.0157 0 0.023 2.2095 0.0156 4.9102-0.0117 4.2602-0.0207 4.9875-0.0722 5.4961-0.0323 0.32214-0.0927 0.8302-0.13281 1.1289-0.0398 0.29905-0.11185 0.77147-0.16016 1.0488-0.0486 0.27739-0.15197 0.79483-0.23047 1.1504-0.0781 0.35588-0.21501 0.90637-0.30274 1.2246-0.0877 0.31824-0.23277 0.80271-0.32227 1.0762-0.0895 0.27348-0.23453 0.69706-0.32226 0.9414-0.0881 0.244-0.24359 0.65232-0.34765 0.90625-0.10372 0.25394-0.2775 0.65587-0.38477 0.89453-0.10727 0.23903-0.37656 0.7918-0.59961 1.2266-0.22268 0.43508-0.57811 1.0781-0.78906 1.4297-0.21062 0.35162-0.56634 0.90781-0.78906 1.2363-0.2227 0.32818-0.57294 0.82192-0.7793 1.0957-0.2067 0.27384-0.56993 0.7329-0.80859 1.0195-0.23868 0.28663-0.6198 0.7205-0.84571 0.96485-0.22553 0.244-0.68776 0.71476-1.0273 1.0469-0.33954 0.33209-0.78493 0.7482-0.99024 0.92579-0.20492 0.17722-0.52518 0.44706-0.71093 0.59765l-0.33789 0.27344-0.0234-0.65039c-0.0128-0.35729-0.0497-0.84179-0.082-1.0762-0.0324-0.23441-0.0985-0.61274-0.14649-0.8418-0.0483-0.22873-0.15038-0.61504-0.22851-0.85937-0.0781-0.24472-0.21342-0.617-0.30079-0.82618-0.0877-0.20919-0.26294-0.57558-0.38867-0.8164-0.12573-0.24081-0.34692-0.6184-0.49219-0.8379-0.14491-0.21949-0.39717-0.56658-0.56054-0.77148-0.16338-0.20528-0.49018-0.56689-0.72461-0.80273-0.23477-0.23583-0.5925-0.55984-0.79493-0.7207-0.2028-0.1609-0.50548-0.38475-0.67382-0.49805-0.16871-0.1133-0.47971-0.30591-0.69141-0.42774-0.21133-0.12182-0.50833-0.27715-0.6582-0.3457-0.14989-0.0689-0.45308-0.19689-0.67578-0.28321-0.22269-0.0867-0.59975-0.21127-0.83594-0.27733-0.23654-0.066-0.59742-0.15359-0.80273-0.19336-0.20494-0.0398-0.49199-0.0907-0.63868-0.11524-0.20351-0.0334-1.8589-0.047-7.0156-0.0566-4.6499-0.009-6.8752-0.00085-7.1563 0.0254-0.22446 0.0209-0.55074 0.063-0.72656 0.0918-0.1758 0.0291-0.43162 0.0785-0.56837 0.10938-0.13674 0.0313-0.41438 0.10261-0.61719 0.16015-0.2028 0.0578-0.5463 0.17523-0.76367 0.25977-0.21736 0.0849-0.50549 0.20454-0.63868 0.26562-0.13355 0.0615-0.38936 0.19191-0.56836 0.29101-0.17936 0.0987-0.50188 0.29651-0.7168 0.43751-0.21487 0.14065-0.55838 0.39024-0.76368 0.55469-0.20493 0.16443-0.56441 0.48984-0.79883 0.7246-0.23441 0.23477-0.54735 0.57985-0.69727 0.76563-0.14988 0.1854-0.40569 0.53689-0.56836 0.78125-0.16302 0.244-0.41086 0.66599-0.55079 0.93945-0.13994 0.27348-0.31906 0.65817-0.39648 0.85352-0.07742 0.19534-0.19139 0.51559-0.25391 0.71093-0.06252 0.19535-0.14984 0.51364-0.19531 0.70899-0.04548 0.19534-0.10848 0.51559-0.13868 0.71093-0.03058 0.19535-0.06499 0.44318-0.0781 0.55079-0.01354 0.10726-0.03509 0.47879-0.04685 0.82617l-0.02146 0.63085-0.35547-0.2871c-0.19534-0.15842-0.58572-0.49337-0.86914-0.74414-0.28307-0.25074-0.82913-0.77266-1.2109-1.1602-0.38181-0.38749-0.85985-0.89643-1.0645-1.1309-0.20423-0.23441-0.50084-0.5859-0.65821-0.78124-0.15769-0.19535-0.43746-0.55484-0.62109-0.79884-0.18362-0.24435-0.54219-0.75599-0.79688-1.1367-0.25502-0.3811-0.57795-0.88471-0.7168-1.1192-0.13887-0.23441-0.33432-0.57617-0.43555-0.75976-0.10158-0.18328-0.32543-0.61483-0.49805-0.95899-0.17261-0.34381-0.41085-0.84087-0.52735-1.1055-0.11685-0.26425-0.30058-0.7038-0.4082-0.97657s-0.26792-0.705-0.35743-0.95898c-0.08915-0.25395-0.2198-0.64326-0.28906-0.86524-0.06891-0.22163-0.18749-0.63539-0.26563-0.91991-0.0781-0.28485-0.19778-0.76593-0.26562-1.0703-0.06746-0.30401-0.16228-0.76964-0.21094-1.0332-0.04829-0.26389-0.12073-0.7031-0.16016-0.97657-0.03978-0.27348-0.09553-0.73628-0.125-1.0293s-0.06993-0.78938-0.08984-1.1016c-0.02163-0.33705-0.03714-2.4195-0.03714-5.123 0-3.7616 0.0085-4.5547 0.04684-4.5547 0.02598 0 0.59684-0.0565 1.2695-0.125 0.67233-0.0682 1.5272-0.16548 1.8984-0.21484 0.37115-0.049 0.95518-0.136 1.2969-0.19531 0.34203-0.0589 0.88488-0.16353 1.207-0.23242 0.3225-0.0686 0.84173-0.1898 1.1543-0.26758 0.31255-0.0781 0.84423-0.22142 1.1816-0.31837 0.33777-0.097 0.90616-0.27395 1.2617-0.39258 0.35588-0.11897 0.83789-0.28798 1.0723-0.37499 0.23441-0.087 0.6793-0.26064 0.98828-0.38672 0.309-0.12609 0.81303-0.34195 1.1191-0.48047 0.30615-0.13852 0.84371-0.39646 1.1953-0.57227 0.35198-0.17581 0.81636-0.41563 1.0313-0.53319 0.21487-0.11757 0.66203-0.37426 0.99414-0.57032 0.33208-0.19605 0.82808-0.49907 1.1016-0.67383 0.27348-0.17475 0.70506-0.46219 0.95898-0.63867 0.25394-0.17687 0.68551-0.49071 0.95898-0.69531 0.27348-0.20494 0.69739-0.53243 0.94141-0.72852 0.24436-0.19606 0.54704-0.44441 0.67384-0.55273 0.12715-0.10868 0.4474-0.389 0.71094-0.62305 0.26389-0.2337 0.83891-0.78649 1.2793-1.2266 0.44005-0.44007 1.0007-1.026 1.2461-1.3027 0.24542-0.27631 0.59779-0.68458 0.7832-0.90624 0.18575-0.22162 0.53672-0.65908 0.7793-0.97266 0.24258-0.31361 0.51951-0.68464 0.61719-0.82422 0.09767-0.13994 0.18874-0.25479 0.20117-0.25586zm46.234 13.211c-0.0198 0-0.0598 0.0752-0.0879 0.16797-0.0278 0.0927-0.30216 0.94107-0.60938 1.8848-0.30687 0.94369-0.55202 1.7221-0.54492 1.7285 0.007 0.007 2.1372 0.70297 4.7324 1.5469 2.5956 0.84353 4.7308 1.5202 4.7461 1.5039 0.0157-0.0163 0.29967-0.86952 0.63282-1.8945 0.33279-1.025 0.60351-1.8663 0.59961-1.8691-0.004-0.003-2.1287-0.6946-4.7207-1.5371-2.592-0.84213-4.7281-1.5313-4.748-1.5313zm-92.518 0.004c-0.03305 0.002-1.6423 0.51964-3.5762 1.1504-1.9339 0.63113-4.04 1.3192-4.6797 1.5273-0.67054 0.21771-1.1621 0.39542-1.1621 0.41993 0.000349 0.0234 0.26877 0.87003 0.59766 1.8809 0.32853 1.0108 0.60582 1.8464 0.61719 1.8574 0.01099 0.0114 2.1434-0.67014 4.7383-1.5137 2.5952-0.84352 4.7255-1.5403 4.7344-1.5488 0.0089-0.009-0.05792-0.24214-0.14843-0.51953-0.09092-0.27774-0.36484-1.124-0.61134-1.8809-0.36226-1.1128-0.46075-1.3759-0.50976-1.373zm46.211 23.016h0.0043c4.126-0.003 6.3601 0.009 6.6035 0.0332 0.20245 0.0206 0.51646 0.0679 0.69727 0.10547 0.18078 0.0373 0.47583 0.11806 0.65625 0.17774 0.18042 0.06 0.50389 0.1937 0.71875 0.29882 0.21488 0.10478 0.52713 0.28301 0.69336 0.39453 0.16622 0.11118 0.43481 0.31549 0.59961 0.45508 0.16445 0.13922 0.41918 0.38882 0.56445 0.55469 0.14491 0.16551 0.37445 0.46749 0.50977 0.66992 0.13532 0.20246 0.31745 0.51843 0.40625 0.70313 0.0884 0.18432 0.22265 0.52325 0.29687 0.75195 0.0746 0.22837 0.16459 0.55858 0.20117 0.73437l0.0664 0.32032v3.8359l-0.92969 0.46094c-0.51144 0.25394-0.93611 0.47052-0.94531 0.48047-0.009 0.01-0.0594 0.32025-0.11133 0.6914-0.0519 0.37115-0.12659 0.824-0.16602 1.0059-0.0391 0.1822-0.12836 0.50158-0.19726 0.70898-0.0686 0.20742-0.19531 0.53867-0.28126 0.73438-0.0863 0.19569-0.25459 0.52767-0.375 0.73828-0.1204 0.21025-0.34318 0.54575-0.49413 0.74609-0.15059 0.20067-0.40552 0.50622-0.56641 0.67774-0.16089 0.17154-0.44653 0.44032-0.63477 0.59765-0.18788 0.1577-0.50953 0.39877-0.71484 0.53515-0.25288 0.16836-1.3637 0.74349-3.4531 1.7891l-3.082 1.543-3.0215-1.5117c-1.6618-0.83107-3.1614-1.5985-3.334-1.7051-0.17262-0.1069-0.45594-0.302-0.62891-0.43555-0.17296-0.13355-0.44636-0.37-0.60938-0.52343s-0.4254-0.43037-0.58203-0.61719c-0.15628-0.18683-0.3938-0.50564-0.52735-0.70704-0.13354-0.20138-0.32313-0.52237-0.42187-0.71483-0.09874-0.19214-0.25213-0.53335-0.33985-0.75782-0.08773-0.22446-0.20863-0.59512-0.26758-0.82421-0.05894-0.22874-0.15393-0.75525-0.21289-1.168-0.05894-0.4127-0.11222-0.76418-0.11719-0.78124-0.0051-0.017-0.43246-0.23966-0.94922-0.4961l-0.9375-0.4668v-3.8359l0.08398-0.38673c0.04548-0.21239 0.13849-0.54826 0.20703-0.74608 0.06856-0.19783 0.19371-0.50496 0.2793-0.6836 0.0856-0.17866 0.26702-0.49127 0.40234-0.69336s0.35652-0.49409 0.49219-0.65039c0.13567-0.15628 0.3496-0.3741 0.47461-0.48242 0.12537-0.10869 0.3242-0.27058 0.44141-0.35938s0.36059-0.24874 0.54102-0.35742c0.18042-0.10833 0.49873-0.26934 0.70899-0.35742 0.21027-0.0881 0.49608-0.19264 0.63282-0.23242 0.13674-0.0394 0.37497-0.0976 0.53125-0.12891 0.15628-0.0309 0.41208-0.0696 0.56836-0.0859 0.15618-0.0164 3.0915-0.0324 6.5195-0.0352zm8.0566 4.0098-7.9922 0.002h-7.988v3.9785h15.982z" />
</svg>