<?xml version="1.0" encoding="utf-8"?>
<svg version="1.1" xmlns:cc="http://creativecommons.org/ns#" xmlns:dc="http://purl.org/dc/elements/1.1/" xmlns:rdf="http://www.w3.org/1999/02/22-rdf-syntax-ns#" xmlns="http://www.w3.org/2000/svg" xmlns:xlink="http://www.w3.org/1999/xlink" x="0px" y="0px" viewBox="0 0 1024 768" xml:space="preserve">
<path fill="#000000" d="m508.93 227.81v15.9h6.31v-15.9h-3.16-3.15zm-22.26 3.56c-0.02 0-1.37 0.44-3 0.97-1.64 0.53-2.98 0.99-2.98 1.02s1.1 3.41 2.43 7.52c1.34 4.11 2.44 7.48 2.45 7.49s1.35-0.42 2.99-0.95 2.99-0.98 3-0.99-1.08-3.4-2.42-7.54-2.46-7.52-2.47-7.52zm50.85 0.01c-0.03-0.01-1.15 3.37-2.49 7.51-1.35 4.14-2.44 7.54-2.43 7.55 0.01 0 1.36 0.45 3 0.98s2.99 0.95 3 0.94 1.11-3.38 2.45-7.48c1.33-4.11 2.42-7.5 2.42-7.52 0-0.03-1.33-0.49-2.95-1.01s-2.97-0.96-3-0.97zm26.02 12.15l-4.63 6.37c-2.54 3.51-4.63 6.4-4.64 6.42-0.01 0.03 1.12 0.88 2.51 1.89s2.55 1.84 2.57 1.83c0.02 0 2.11-2.86 4.65-6.35 2.54-3.5 4.63-6.39 4.64-6.41 0-0.03-1.09-0.85-2.44-1.83-1.34-0.98-2.49-1.81-2.55-1.85l-0.11-0.07zm-102.9 0.05c-0.02-0.02-1.15 0.77-2.51 1.76s-2.51 1.84-2.55 1.87c-0.06 0.06 0.78 1.26 4.55 6.44 2.54 3.5 4.65 6.38 4.67 6.39 0.03 0.01 1.2-0.82 2.59-1.83l2.54-1.84-0.12-0.18c-0.07-0.09-2.15-2.96-4.63-6.37-2.47-3.41-4.52-6.22-4.54-6.24zm51.16 6.45c-0.57 0-1.3 0.02-1.61 0.02-0.31 0.01-1.09 0.05-1.74 0.08-0.66 0.03-1.63 0.1-2.17 0.14-0.55 0.05-1.45 0.14-2 0.2-0.56 0.06-1.39 0.16-1.84 0.23-0.45 0.06-1.33 0.2-1.97 0.3-0.63 0.11-1.65 0.3-2.25 0.42-0.61 0.12-1.49 0.31-1.97 0.42-0.48 0.12-1.41 0.35-2.06 0.52s-1.79 0.5-2.54 0.73c-0.74 0.23-1.64 0.51-2 0.64-0.35 0.12-1.04 0.36-1.52 0.54-0.48 0.17-1.4 0.53-2.05 0.79-0.65 0.27-1.65 0.69-2.23 0.94-0.57 0.26-1.82 0.85-2.76 1.32-0.95 0.47-2.22 1.13-2.82 1.47s-1.56 0.89-2.11 1.23c-0.56 0.33-1.58 0.97-2.26 1.42s-1.58 1.06-2 1.36c-0.42 0.29-1.25 0.91-1.86 1.37-0.6 0.45-1.43 1.1-1.83 1.43-0.4 0.32-1.13 0.93-1.61 1.34-0.48 0.42-1.24 1.09-1.69 1.51-0.45 0.41-1.24 1.17-1.76 1.68-0.53 0.51-1.39 1.4-1.93 1.98-0.53 0.57-1.26 1.37-1.61 1.77s-0.99 1.15-1.41 1.66-1.07 1.34-1.46 1.84c-0.38 0.49-1.03 1.38-1.45 1.97-0.42 0.58-1.1 1.58-1.51 2.19-0.41 0.62-1.04 1.62-1.4 2.23-0.37 0.6-0.96 1.62-1.31 2.25-0.36 0.64-0.93 1.73-1.28 2.43-0.35 0.69-0.86 1.75-1.13 2.33-0.27 0.59-0.7 1.56-0.94 2.15-0.25 0.59-0.69 1.7-0.98 2.48-0.29 0.77-0.71 1.99-0.95 2.7-0.23 0.71-0.57 1.79-0.74 2.4-0.17 0.6-0.46 1.69-0.65 2.42-0.18 0.73-0.46 1.95-0.61 2.72-0.16 0.76-0.38 1.92-0.48 2.56-0.11 0.65-0.26 1.64-0.34 2.21-0.08 0.58-0.19 1.55-0.25 2.17-0.07 0.62-0.14 1.47-0.18 1.89-0.03 0.42-0.08 1.24-0.11 1.83s-0.06 2.14-0.06 3.44 0.03 2.84 0.06 3.41 0.1 1.54 0.14 2.14c0.05 0.6 0.14 1.54 0.2 2.09 0.06 0.54 0.15 1.27 0.2 1.63s0.16 1.12 0.25 1.69 0.26 1.51 0.37 2.09c0.11 0.57 0.29 1.43 0.4 1.91s0.32 1.38 0.47 1.99c0.16 0.62 0.42 1.6 0.59 2.2 0.18 0.59 0.51 1.66 0.74 2.38 0.24 0.71 0.63 1.83 0.87 2.49 0.24 0.65 0.6 1.59 0.8 2.08s0.56 1.34 0.8 1.88 0.76 1.66 1.16 2.48c0.4 0.81 0.94 1.87 1.19 2.33 0.25 0.47 0.61 1.12 0.79 1.44 0.19 0.33 0.6 1.02 0.91 1.54l0.57 0.95-0.33 4.8c-0.18 2.64-0.34 4.94-0.36 5.12l-0.04 0.32-1.71-2.36c-0.94-1.3-1.73-2.38-1.75-2.39-0.03-0.01-2.91 2.05-6.41 4.59-3.5 2.55-6.37 4.65-6.38 4.68s0.81 1.19 1.83 2.59c1.01 1.39 1.87 2.52 1.89 2.5 0.03-0.02 2.84-2.06 6.25-4.54s6.22-4.49 6.24-4.48c0.01 0.02-0.75 11.38-1.7 25.24-0.94 13.86-1.7 25.22-1.68 25.24s1.43 0.13 3.13 0.25c1.7 0.11 3.11 0.18 3.13 0.16 0.02-0.03 1.68-24.17 3.69-53.64 2.01-29.48 3.69-53.92 3.74-54.32 0.04-0.41 0.15-1.17 0.24-1.7s0.23-1.26 0.31-1.63 0.26-1.08 0.4-1.58c0.13-0.49 0.37-1.28 0.53-1.74 0.16-0.47 0.43-1.2 0.6-1.64 0.17-0.43 0.58-1.33 0.9-2 0.33-0.66 0.77-1.53 0.99-1.91 0.22-0.39 0.6-1.01 0.83-1.39 0.24-0.37 0.66-0.98 0.93-1.36 0.27-0.39 0.75-1.02 1.06-1.4 0.31-0.39 0.86-1.04 1.23-1.45 0.36-0.41 1-1.07 1.41-1.47 0.42-0.41 0.97-0.93 1.23-1.17 0.27-0.23 0.76-0.64 1.09-0.91s0.85-0.67 1.15-0.89c0.31-0.23 0.95-0.67 1.43-0.98 0.48-0.32 1.19-0.76 1.58-0.98 0.38-0.23 1.14-0.64 1.69-0.91 0.54-0.27 1.26-0.61 1.6-0.76 0.34-0.14 0.8-0.33 1.02-0.42 0.21-0.09 0.72-0.27 1.12-0.41 0.41-0.14 1.04-0.35 1.4-0.46 0.37-0.11 1.02-0.29 1.44-0.4 0.42-0.1 1.17-0.27 1.67-0.36 0.49-0.1 1.38-0.24 1.97-0.31 0.59-0.08 1.46-0.17 1.94-0.2 0.47-0.03 1.38-0.06 2.02-0.06 0.63 0 1.51 0.04 1.97 0.09 0.45 0.05 1.09 0.13 1.42 0.2 0.33 0.06 0.89 0.18 1.25 0.27 0.35 0.09 0.94 0.27 1.29 0.39 0.36 0.12 0.85 0.3 1.1 0.4s0.8 0.35 1.21 0.56c0.42 0.21 1.01 0.53 1.3 0.71s0.79 0.5 1.1 0.72 0.85 0.65 1.21 0.95 0.94 0.85 1.3 1.22c0.36 0.38 0.88 0.96 1.15 1.29 0.27 0.34 1.18 1.64 2.02 2.91 0.84 1.26 1.54 2.29 1.56 2.29s0.72-1.03 1.56-2.29c0.84-1.27 1.75-2.57 2.02-2.91 0.27-0.33 0.78-0.91 1.13-1.27 0.36-0.37 0.86-0.86 1.13-1.08 0.26-0.23 0.77-0.64 1.13-0.9 0.36-0.27 0.95-0.67 1.31-0.89s0.96-0.55 1.33-0.73c0.37-0.19 0.9-0.44 1.18-0.55 0.28-0.12 0.8-0.31 1.16-0.43 0.35-0.12 0.94-0.29 1.29-0.38 0.36-0.09 0.84-0.21 1.07-0.25 0.24-0.05 0.74-0.13 1.13-0.19 0.57-0.08 1.07-0.1 2.59-0.1 1.41 0 2.13 0.03 2.82 0.1 0.51 0.06 1.32 0.16 1.8 0.24 0.49 0.07 1.3 0.22 1.81 0.33s1.3 0.3 1.76 0.43c0.46 0.12 1.23 0.36 1.72 0.53 0.49 0.16 1.29 0.46 1.79 0.65 0.49 0.2 1.49 0.66 2.22 1.02 0.73 0.37 1.68 0.88 2.11 1.14 0.44 0.26 0.98 0.59 1.22 0.75 0.23 0.15 0.72 0.48 1.08 0.74 0.37 0.26 0.99 0.73 1.38 1.04 0.4 0.32 0.96 0.79 1.26 1.05 0.29 0.26 0.86 0.8 1.25 1.19 0.4 0.39 1.03 1.04 1.39 1.45 0.37 0.41 0.92 1.06 1.23 1.45 0.31 0.38 0.78 1 1.04 1.37 0.26 0.36 0.68 0.98 0.93 1.37 0.24 0.39 0.63 1.02 0.85 1.41 0.22 0.38 0.66 1.25 0.99 1.91 0.32 0.67 0.73 1.57 0.9 2 0.17 0.44 0.43 1.14 0.57 1.55 0.14 0.42 0.33 1.02 0.42 1.33s0.26 0.92 0.37 1.35c0.1 0.43 0.26 1.13 0.34 1.55 0.08 0.41 0.19 1.08 0.25 1.49 0.06 0.4 0.14 1.03 0.18 1.38 0.03 0.36 1.7 24.71 3.71 54.11 2 29.41 3.66 53.48 3.68 53.5 0.02 0.03 1.44-0.05 3.15-0.17 1.72-0.12 3.12-0.22 3.13-0.22 0.01-0.01-0.77-11.37-1.71-25.24-0.95-13.88-1.71-25.25-1.69-25.27 0.01-0.01 2.82 2 6.23 4.48s6.22 4.53 6.25 4.54c0.03 0.02 0.89-1.12 1.91-2.53l1.86-2.56-6.35-4.61c-3.49-2.53-6.37-4.63-6.41-4.65-0.04-0.03-0.68 0.8-1.8 2.35l-1.74 2.39-0.04-0.32c-0.02-0.18-0.18-2.48-0.36-5.12l-0.32-4.8 0.58-0.97c0.32-0.53 0.86-1.47 1.2-2.07 0.34-0.61 1.01-1.92 1.5-2.91s1.09-2.24 1.32-2.76c0.23-0.53 0.58-1.37 0.79-1.86 0.2-0.5 0.56-1.45 0.81-2.11 0.25-0.67 0.66-1.84 0.9-2.6 0.25-0.76 0.6-1.87 0.77-2.48 0.17-0.6 0.42-1.55 0.56-2.11s0.36-1.47 0.48-2.03c0.13-0.56 0.3-1.42 0.4-1.91 0.09-0.5 0.22-1.21 0.28-1.58s0.18-1.12 0.25-1.66c0.08-0.55 0.2-1.46 0.26-2.03 0.06-0.58 0.15-1.5 0.2-2.06 0.04-0.56 0.11-1.6 0.14-2.33 0.05-0.82 0.06-2.34 0.04-4.08-0.02-1.73-0.06-3.23-0.12-3.99-0.05-0.66-0.14-1.7-0.2-2.31-0.07-0.6-0.17-1.49-0.23-1.97s-0.21-1.49-0.34-2.24c-0.12-0.75-0.34-1.93-0.48-2.62s-0.41-1.91-0.61-2.72c-0.2-0.8-0.51-1.96-0.68-2.56-0.17-0.61-0.52-1.72-0.77-2.48s-0.66-1.94-0.92-2.62-0.58-1.53-0.73-1.89-0.52-1.23-0.84-1.94c-0.31-0.72-0.91-2-1.34-2.85s-1.06-2.07-1.42-2.7c-0.35-0.64-0.94-1.65-1.31-2.26-0.36-0.6-0.98-1.58-1.36-2.17-0.39-0.59-1.09-1.61-1.57-2.28s-1.2-1.64-1.61-2.17-1.13-1.43-1.61-2-1.29-1.51-1.81-2.09c-0.51-0.57-1.63-1.74-2.49-2.59-0.85-0.85-1.93-1.89-2.39-2.31-0.47-0.42-1.19-1.05-1.61-1.41s-1.15-0.97-1.63-1.36c-0.48-0.38-1.28-1-1.78-1.37-0.49-0.38-1.2-0.9-1.58-1.16-0.37-0.27-1.27-0.88-2-1.36-0.72-0.48-1.83-1.18-2.45-1.55s-1.54-0.91-2.06-1.19c-0.51-0.29-1.62-0.87-2.47-1.3-0.86-0.43-1.99-0.98-2.51-1.22-0.53-0.23-1.42-0.62-1.97-0.86-0.56-0.23-1.51-0.61-2.12-0.84-0.6-0.23-1.73-0.63-2.51-0.89-0.77-0.26-1.89-0.62-2.47-0.79-0.59-0.17-1.71-0.48-2.49-0.67-0.77-0.2-1.88-0.46-2.47-0.59s-1.55-0.32-2.13-0.43c-0.58-0.1-1.57-0.27-2.2-0.36s-1.56-0.22-2.07-0.28-1.35-0.15-1.86-0.2-1.31-0.11-1.77-0.14c-0.47-0.03-1.55-0.09-2.4-0.12s-2.02-0.05-2.59-0.04zm-2.39 6.38c0.22-0.01 1.65-0.01 3.18 0v0.01c1.53 0.01 3.14 0.04 3.58 0.07 0.43 0.03 1.22 0.1 1.74 0.15 0.53 0.05 1.47 0.15 2.09 0.23 0.62 0.07 1.59 0.21 2.17 0.3 0.57 0.1 1.38 0.24 1.8 0.32s1.22 0.24 1.78 0.37c0.55 0.12 1.54 0.35 2.19 0.52s1.73 0.47 2.4 0.67c0.66 0.21 1.62 0.51 2.11 0.68 0.5 0.17 1.36 0.47 1.92 0.68s1.48 0.58 2.05 0.82c0.58 0.24 1.45 0.62 1.95 0.85 0.49 0.22 1.51 0.72 2.25 1.09 0.75 0.38 1.71 0.89 2.14 1.13 0.44 0.24 1.23 0.7 1.76 1.02 0.53 0.31 1.38 0.85 1.9 1.18s1.43 0.95 2.03 1.37c0.59 0.42 1.33 0.95 1.64 1.18 0.31 0.24 0.98 0.76 1.49 1.17s1.31 1.07 1.78 1.47c0.46 0.4 1.16 1.02 1.55 1.37 0.38 0.36 1.13 1.07 1.65 1.58s1.34 1.35 1.81 1.86c0.48 0.51 1.17 1.28 1.55 1.72 0.38 0.43 1.04 1.22 1.46 1.74 0.43 0.53 1.08 1.37 1.45 1.87 0.37 0.49 0.86 1.15 1.08 1.46 0.21 0.31 0.73 1.07 1.14 1.69s1.05 1.65 1.43 2.28c0.38 0.64 0.91 1.54 1.16 2 0.26 0.47 0.79 1.5 1.19 2.29 0.39 0.79 0.96 1.98 1.25 2.65 0.3 0.66 0.71 1.64 0.92 2.17 0.21 0.52 0.56 1.47 0.79 2.11 0.23 0.63 0.57 1.63 0.75 2.22 0.19 0.59 0.45 1.48 0.59 1.98 0.14 0.49 0.34 1.25 0.45 1.69 0.11 0.43 0.3 1.24 0.42 1.8 0.13 0.56 0.32 1.51 0.43 2.11 0.11 0.61 0.28 1.61 0.37 2.23s0.21 1.59 0.28 2.17c0.06 0.57 0.15 1.51 0.2 2.08 0.04 0.58 0.11 1.72 0.15 2.54 0.04 0.9 0.05 2.27 0.03 3.44-0.02 1.07-0.08 2.49-0.12 3.15-0.05 0.67-0.14 1.71-0.21 2.31-0.06 0.61-0.17 1.56-0.25 2.12-0.08 0.55-0.19 1.31-0.26 1.69-0.06 0.37-0.2 1.13-0.31 1.69-0.1 0.56-0.31 1.51-0.45 2.11s-0.39 1.62-0.56 2.25c-0.17 0.64-0.47 1.68-0.67 2.32-0.2 0.63-0.52 1.59-0.71 2.14-0.19 0.54-0.52 1.43-0.73 1.97s-0.45 1.16-0.54 1.38l-0.16 0.39-0.04-0.28c-0.03-0.15-0.54-7.6-1.15-16.54-0.6-8.94-1.14-16.67-1.18-17.18-0.05-0.52-0.15-1.38-0.23-1.92s-0.23-1.42-0.33-1.95c-0.11-0.53-0.3-1.37-0.42-1.87-0.13-0.5-0.36-1.33-0.51-1.84-0.16-0.52-0.42-1.32-0.59-1.77-0.16-0.45-0.43-1.16-0.6-1.56-0.16-0.4-0.49-1.16-0.73-1.68-0.25-0.52-0.67-1.36-0.93-1.86-0.27-0.5-0.68-1.23-0.92-1.61-0.23-0.39-0.63-1.03-0.88-1.41-0.26-0.39-0.64-0.95-0.85-1.24-0.21-0.3-0.63-0.86-0.93-1.25-0.31-0.39-0.88-1.08-1.27-1.54s-1.1-1.23-1.57-1.71c-0.46-0.48-1.2-1.19-1.63-1.58-0.44-0.4-1.02-0.91-1.3-1.14s-0.74-0.61-1.03-0.83-0.8-0.61-1.15-0.86c-0.35-0.26-0.96-0.67-1.34-0.93-0.39-0.25-1.03-0.65-1.42-0.89-0.39-0.23-1.01-0.58-1.38-0.78-0.37-0.21-0.95-0.51-1.29-0.68s-1.11-0.52-1.72-0.79c-0.6-0.26-1.51-0.63-2.03-0.82-0.51-0.18-1.24-0.44-1.63-0.56-0.39-0.13-1.14-0.34-1.66-0.48-0.53-0.15-1.3-0.34-1.72-0.43s-1.21-0.24-1.75-0.34c-0.54-0.09-1.3-0.2-1.68-0.25-0.39-0.05-1.19-0.13-1.78-0.18-0.68-0.06-1.71-0.09-2.82-0.1-1.29 0-1.98 0.03-2.61 0.1-0.47 0.05-1.24 0.16-1.71 0.24-0.46 0.07-1.25 0.24-1.74 0.36-0.5 0.12-1.23 0.33-1.62 0.45-0.4 0.13-1.11 0.39-1.58 0.57-0.47 0.19-1.29 0.55-1.8 0.81-0.52 0.26-1.3 0.68-1.74 0.95-0.44 0.26-1.1 0.69-1.48 0.96s-1.01 0.74-1.4 1.06-1.07 0.92-1.49 1.33l-0.78 0.76-0.72-0.7c-0.39-0.39-0.94-0.89-1.22-1.13-0.28-0.23-0.76-0.61-1.07-0.85-0.31-0.23-0.87-0.63-1.24-0.87-0.38-0.25-0.96-0.61-1.29-0.81-0.34-0.19-1-0.54-1.47-0.77-0.46-0.24-1.23-0.57-1.69-0.75-0.47-0.19-1.17-0.44-1.56-0.57-0.39-0.12-1.06-0.31-1.49-0.42s-1.05-0.24-1.37-0.31c-0.33-0.06-0.86-0.15-1.19-0.2-0.32-0.04-0.89-0.11-1.27-0.15-0.39-0.04-1.38-0.07-2.39-0.07-1.08 0.01-2.12 0.04-2.8 0.1-0.6 0.05-1.38 0.13-1.75 0.18-0.36 0.04-1.06 0.15-1.54 0.22-0.48 0.08-1.39 0.26-2.03 0.4-0.63 0.14-1.62 0.39-2.19 0.56-0.58 0.17-1.43 0.43-1.89 0.59-0.47 0.16-1.28 0.47-1.81 0.68-0.54 0.21-1.42 0.6-1.97 0.85-0.55 0.26-1.48 0.73-2.07 1.05-0.6 0.33-1.53 0.87-2.08 1.22-0.55 0.34-1.39 0.9-1.86 1.24s-1.13 0.82-1.46 1.08c-0.34 0.27-0.97 0.79-1.42 1.18-0.45 0.38-1.24 1.11-1.76 1.61-0.51 0.51-1.22 1.24-1.58 1.63-0.35 0.39-0.87 0.98-1.15 1.32-0.29 0.34-0.82 1.02-1.19 1.51-0.36 0.49-0.96 1.33-1.31 1.86s-0.86 1.35-1.13 1.81-0.72 1.27-0.99 1.8c-0.28 0.53-0.67 1.35-0.88 1.81-0.21 0.47-0.5 1.16-0.66 1.55-0.15 0.39-0.39 1.02-0.53 1.41s-0.37 1.12-0.53 1.62c-0.15 0.51-0.38 1.33-0.5 1.83-0.13 0.5-0.32 1.34-0.42 1.87-0.11 0.53-0.26 1.41-0.34 1.95-0.07 0.54-0.18 1.41-0.22 1.92-0.05 0.51-0.58 8.24-1.19 17.18-0.6 8.94-1.12 16.39-1.14 16.54l-0.04 0.29-0.42-1.05c-0.23-0.57-0.59-1.52-0.8-2.1-0.22-0.59-0.56-1.59-0.76-2.22s-0.49-1.59-0.65-2.14c-0.15-0.55-0.41-1.52-0.56-2.16-0.16-0.63-0.42-1.84-0.59-2.68-0.17-0.83-0.37-1.94-0.45-2.45s-0.2-1.43-0.28-2.04-0.19-1.71-0.25-2.45c-0.07-0.73-0.14-1.91-0.17-2.61-0.03-0.69-0.06-1.89-0.06-2.65 0-0.75 0.03-1.93 0.06-2.62 0.03-0.68 0.09-1.73 0.14-2.33 0.05-0.61 0.14-1.56 0.2-2.12s0.19-1.53 0.28-2.17c0.09-0.63 0.26-1.63 0.37-2.22s0.28-1.48 0.39-1.97c0.11-0.5 0.32-1.36 0.46-1.92s0.31-1.24 0.39-1.52 0.31-1.05 0.51-1.72 0.56-1.74 0.79-2.4c0.23-0.65 0.58-1.59 0.77-2.08 0.2-0.5 0.55-1.35 0.78-1.89 0.24-0.54 0.68-1.52 0.99-2.17s0.8-1.63 1.08-2.17c0.29-0.54 0.78-1.44 1.1-2s0.81-1.39 1.1-1.86c0.29-0.46 0.85-1.34 1.26-1.94 0.4-0.61 1-1.47 1.32-1.92 0.33-0.45 0.85-1.14 1.16-1.55 0.31-0.4 0.84-1.07 1.19-1.49 0.34-0.42 0.96-1.16 1.38-1.64s1.18-1.3 1.67-1.83c0.5-0.53 1.4-1.43 2-2.01s1.5-1.41 1.99-1.85c0.5-0.44 1.36-1.17 1.92-1.63s1.5-1.19 2.09-1.63c0.59-0.45 1.54-1.13 2.11-1.52 0.57-0.4 1.46-0.99 1.97-1.31 0.51-0.33 1.3-0.81 1.75-1.08 0.45-0.26 1.16-0.67 1.58-0.9s1.23-0.66 1.8-0.96 1.57-0.78 2.23-1.08c0.65-0.3 1.56-0.71 2.02-0.9 0.47-0.2 1.09-0.45 1.38-0.57 0.3-0.11 0.97-0.37 1.5-0.56 0.52-0.19 1.44-0.51 2.02-0.7 0.59-0.19 1.46-0.46 1.94-0.6 0.49-0.14 1.37-0.38 1.95-0.53 0.59-0.16 1.42-0.36 1.84-0.45 0.41-0.09 1.14-0.24 1.6-0.33 0.47-0.1 1.23-0.24 1.69-0.32 0.47-0.07 1.3-0.2 1.86-0.28s1.49-0.19 2.06-0.25 1.63-0.15 2.34-0.2 1.47-0.1 1.69-0.11zm75.16 6.75l-6.11 4.45c-3.36 2.45-6.25 4.54-6.41 4.66l-0.29 0.21 1.84 2.54c1.02 1.4 1.87 2.55 1.89 2.55 0.03 0 2.91-2.08 6.41-4.63 4.4-3.19 6.36-4.65 6.34-4.71-0.01-0.04-0.81-1.15-1.76-2.45-0.95-1.31-1.77-2.43-1.82-2.5l-0.09-0.12zm-144.98 0.04c-0.02 0-0.13 0.14-0.25 0.3s-0.93 1.28-1.81 2.48c-0.87 1.2-1.6 2.22-1.62 2.26-0.02 0.05 1.82 1.42 5.34 3.98 2.96 2.15 5.84 4.24 6.4 4.65l1.02 0.75 1.84-2.54c1.02-1.39 1.83-2.56 1.82-2.6-0.02-0.03-2.88-2.14-6.37-4.67-3.48-2.53-6.35-4.61-6.37-4.61zm-13.95 25.15l-0.68 2.09c-0.38 1.15-0.82 2.51-0.99 3.01-0.21 0.64-0.28 0.93-0.23 0.94 0.03 0.02 3.42 1.12 7.53 2.45 4.1 1.34 7.46 2.42 7.47 2.41s0.45-1.35 0.99-2.99c0.53-1.64 0.94-2.99 0.92-3.02-0.03-0.02-2.97-0.99-6.53-2.14-3.57-1.16-6.93-2.25-7.48-2.43l-1-0.32zm172.84 0.01c-0.03-0.01-3.4 1.08-7.5 2.42-4.09 1.34-7.46 2.45-7.48 2.47s0.4 1.38 0.93 3.03c0.57 1.74 1 2.98 1.04 2.97 0.03-0.01 3.39-1.11 7.47-2.43 4.07-1.33 7.43-2.43 7.47-2.45s-0.27-1.04-0.91-3.02c-0.54-1.64-0.99-2.99-1.02-2.99zm-86.4 18.74c-0.03 0-0.66 1.08-1.42 2.41-0.75 1.32-1.62 2.83-1.93 3.34s-0.83 1.33-1.17 1.83c-0.33 0.49-0.87 1.27-1.21 1.72-0.33 0.45-0.81 1.07-1.06 1.38-0.24 0.31-0.73 0.89-1.08 1.29-0.34 0.41-1 1.14-1.47 1.64-0.46 0.49-1.22 1.26-1.69 1.69-0.46 0.44-1.14 1.06-1.51 1.38-0.37 0.33-1 0.85-1.38 1.16-0.39 0.31-1.05 0.82-1.47 1.13s-1.19 0.86-1.72 1.22c-0.52 0.35-1.46 0.95-2.08 1.32s-1.57 0.91-2.1 1.19c-0.53 0.29-1.4 0.72-1.92 0.97-0.53 0.24-1.31 0.6-1.75 0.78-0.43 0.19-1.33 0.54-1.99 0.79-0.66 0.24-1.57 0.56-2.02 0.7s-1.08 0.33-1.41 0.42c-0.32 0.1-1.01 0.28-1.52 0.41s-1.49 0.34-2.17 0.48c-0.68 0.13-1.68 0.31-2.22 0.38-0.55 0.08-1.57 0.21-2.29 0.28-0.71 0.08-3.03 0.31-5.14 0.53l-3.85 0.38 0.02 10.51c0.02 7.08 0.05 10.75 0.09 11.24 0.03 0.41 0.1 1.14 0.15 1.64 0.05 0.49 0.15 1.34 0.23 1.89 0.08 0.54 0.22 1.4 0.31 1.91s0.27 1.37 0.39 1.91 0.35 1.45 0.51 2.03 0.48 1.65 0.73 2.37c0.24 0.73 0.63 1.81 0.86 2.4s0.55 1.37 0.72 1.75c0.16 0.37 0.55 1.2 0.87 1.86 0.32 0.65 0.78 1.53 1.02 1.97 0.24 0.43 0.66 1.17 0.94 1.63 0.28 0.47 0.81 1.3 1.17 1.85 0.37 0.55 0.92 1.33 1.22 1.74s0.82 1.11 1.17 1.54 0.79 0.98 0.99 1.21 0.57 0.66 0.83 0.94l0.46 0.52 0.02 15.6 0.01 15.6h6.31l0.02-12.72 0.01-12.72 0.81 0.58c0.44 0.32 1.18 0.83 1.65 1.15 0.47 0.31 1.3 0.83 1.83 1.16 0.54 0.32 1.33 0.77 1.75 1l0.77 0.41 0.13 0.48c0.07 0.27 0.23 0.8 0.36 1.19s0.32 0.9 0.42 1.15 0.33 0.76 0.51 1.13c0.18 0.38 0.51 0.98 0.74 1.36 0.22 0.37 0.55 0.88 0.74 1.15 0.19 0.26 0.53 0.72 0.77 1.01 0.23 0.3 0.8 0.92 1.27 1.39 0.46 0.47 1.15 1.09 1.52 1.38 0.37 0.3 0.94 0.72 1.27 0.94 0.33 0.21 0.82 0.52 1.1 0.69 0.28 0.16 3.29 1.68 6.69 3.38l6.19 3.1 6.29-3.15c3.47-1.74 6.58-3.33 6.92-3.53 0.34-0.21 0.9-0.58 1.24-0.82s0.91-0.7 1.27-1c0.35-0.31 0.93-0.85 1.27-1.2 0.34-0.36 0.81-0.89 1.04-1.18 0.24-0.29 0.58-0.75 0.77-1.01 0.19-0.27 0.52-0.78 0.74-1.15 0.23-0.38 0.56-0.98 0.74-1.36 0.18-0.37 0.43-0.93 0.55-1.24 0.13-0.31 0.33-0.88 0.46-1.27 0.12-0.39 0.26-0.87 0.32-1.07l0.09-0.37 0.68-0.36c0.38-0.2 1.16-0.65 1.73-0.99 0.58-0.34 1.48-0.91 2.01-1.26 0.52-0.36 1.28-0.88 1.67-1.17l0.72-0.52 0.01 12.72 0.02 12.72h6.31l0.01-15.6 0.02-15.6 0.49-0.55c0.27-0.3 0.74-0.84 1.03-1.19 0.3-0.36 0.78-0.95 1.06-1.32 0.29-0.37 0.75-0.98 1.02-1.36 0.27-0.37 0.77-1.09 1.11-1.61 0.34-0.51 0.86-1.31 1.14-1.79 0.29-0.48 0.77-1.32 1.06-1.86 0.3-0.55 0.64-1.2 0.76-1.44 0.13-0.25 0.45-0.92 0.71-1.5 0.26-0.57 0.68-1.55 0.92-2.17 0.25-0.62 0.67-1.76 0.93-2.53 0.25-0.78 0.61-1.93 0.78-2.57 0.17-0.63 0.42-1.67 0.56-2.31 0.14-0.63 0.33-1.61 0.42-2.17 0.1-0.55 0.22-1.4 0.29-1.88 0.06-0.48 0.15-1.32 0.2-1.87 0.04-0.54 0.11-1.53 0.14-2.19 0.03-0.7 0.05-5.3 0.05-10.89 0.01-7.7-0.01-9.69-0.06-9.71-0.04-0.01-2.13-0.23-4.64-0.48s-4.98-0.5-5.49-0.56c-0.51-0.07-1.31-0.18-1.78-0.26-0.46-0.08-1.28-0.23-1.8-0.33-0.53-0.11-1.38-0.3-1.89-0.43-0.51-0.12-1.2-0.3-1.52-0.4-0.33-0.09-1.06-0.32-1.64-0.5-0.57-0.19-1.42-0.49-1.88-0.66-0.47-0.17-1.27-0.49-1.78-0.7-0.51-0.22-1.36-0.6-1.89-0.85-0.52-0.25-1.36-0.67-1.86-0.93-0.49-0.26-1.26-0.7-1.71-0.96s-1.2-0.72-1.67-1.02c-0.46-0.29-1.29-0.86-1.84-1.25s-1.34-0.98-1.75-1.31c-0.41-0.32-1.12-0.9-1.57-1.29s-1.22-1.08-1.71-1.54c-0.49-0.47-1.27-1.25-1.74-1.74-0.46-0.5-1.13-1.23-1.47-1.64-0.35-0.4-0.83-0.98-1.08-1.29s-0.73-0.93-1.06-1.38-0.88-1.23-1.21-1.72c-0.34-0.5-0.86-1.32-1.17-1.83-0.31-0.52-1.18-2.02-1.93-3.34-0.75-1.33-1.39-2.41-1.41-2.41zm-91.92 9.47v6.36h15.84v-6.36h-7.92-7.92zm167.99 0v6.36h15.83v-6.36h-7.92-7.91zm-76.07 2.76c0.02 0 0.05 0.03 0.07 0.07 0.01 0.04 0.35 0.5 0.74 1.03 0.4 0.52 0.94 1.22 1.21 1.54 0.26 0.33 0.78 0.94 1.14 1.37 0.37 0.43 1.07 1.2 1.56 1.72s1.29 1.33 1.79 1.8c0.49 0.47 1.21 1.13 1.6 1.47 0.39 0.35 1.03 0.9 1.44 1.23 0.4 0.33 1.17 0.93 1.72 1.34 0.54 0.41 1.15 0.86 1.35 1s0.79 0.54 1.3 0.88c0.51 0.35 1.44 0.93 2.06 1.3 0.61 0.37 1.5 0.88 1.98 1.13 0.47 0.26 1.39 0.73 2.05 1.05s1.66 0.78 2.22 1.02c0.55 0.24 1.49 0.61 2.08 0.84 0.59 0.22 1.62 0.59 2.28 0.81 0.67 0.22 1.71 0.54 2.32 0.7 0.61 0.17 1.66 0.44 2.34 0.6 0.68 0.15 1.71 0.37 2.3 0.48 0.59 0.1 1.54 0.26 2.11 0.34s2.03 0.25 3.24 0.37 2.22 0.22 2.25 0.22c0.02 0 0.04 3.51 0.02 7.79-0.01 6.76-0.03 7.92-0.11 8.72-0.05 0.51-0.15 1.32-0.21 1.8-0.07 0.47-0.18 1.22-0.26 1.66s-0.24 1.26-0.36 1.82c-0.13 0.57-0.34 1.44-0.48 1.95-0.14 0.5-0.37 1.27-0.51 1.71-0.15 0.43-0.37 1.1-0.51 1.49s-0.39 1.03-0.56 1.44c-0.16 0.4-0.44 1.04-0.61 1.42s-0.6 1.25-0.95 1.94-0.92 1.71-1.25 2.27-0.9 1.44-1.25 1.96-0.91 1.31-1.24 1.74-0.9 1.16-1.28 1.62c-0.38 0.45-0.99 1.14-1.34 1.53-0.36 0.38-1.1 1.13-1.63 1.66-0.54 0.53-1.25 1.19-1.58 1.47-0.32 0.28-0.83 0.71-1.12 0.94l-0.54 0.44-0.03-1.03c-0.02-0.57-0.08-1.34-0.14-1.71-0.05-0.37-0.15-0.97-0.23-1.33-0.07-0.37-0.24-0.98-0.36-1.37-0.13-0.39-0.34-0.98-0.48-1.31s-0.42-0.91-0.61-1.3c-0.2-0.38-0.56-0.98-0.79-1.32-0.23-0.35-0.63-0.9-0.89-1.23-0.26-0.32-0.77-0.9-1.14-1.27-0.38-0.38-0.95-0.89-1.27-1.15-0.32-0.25-0.8-0.61-1.07-0.78-0.26-0.18-0.76-0.49-1.09-0.68-0.34-0.2-0.81-0.44-1.05-0.55-0.23-0.11-0.72-0.32-1.07-0.45-0.35-0.14-0.95-0.34-1.32-0.44-0.38-0.11-0.95-0.24-1.28-0.31-0.32-0.06-0.78-0.14-1.01-0.18-0.33-0.06-2.95-0.08-11.13-0.09-7.38-0.02-10.91 0-11.36 0.04-0.35 0.03-0.87 0.1-1.15 0.14-0.28 0.05-0.69 0.13-0.9 0.18-0.22 0.05-0.66 0.16-0.98 0.25s-0.87 0.28-1.21 0.42c-0.35 0.13-0.8 0.32-1.02 0.42-0.21 0.09-0.61 0.3-0.9 0.46-0.28 0.16-0.79 0.47-1.13 0.69-0.35 0.22-0.89 0.62-1.22 0.88-0.32 0.26-0.89 0.78-1.26 1.15-0.37 0.38-0.87 0.92-1.11 1.22-0.24 0.29-0.64 0.85-0.9 1.23-0.26 0.39-0.66 1.06-0.88 1.5-0.22 0.43-0.5 1.04-0.62 1.35-0.13 0.31-0.31 0.82-0.41 1.13s-0.24 0.82-0.31 1.13-0.17 0.81-0.22 1.12c-0.04 0.31-0.1 0.7-0.12 0.88-0.02 0.17-0.06 0.76-0.08 1.31l-0.03 1-0.56-0.46c-0.31-0.25-0.93-0.78-1.38-1.18-0.45-0.39-1.32-1.22-1.92-1.84-0.61-0.61-1.37-1.42-1.7-1.79-0.32-0.38-0.79-0.93-1.04-1.24s-0.69-0.88-0.98-1.27c-0.3-0.39-0.86-1.2-1.27-1.8-0.4-0.61-0.91-1.41-1.13-1.78s-0.54-0.91-0.7-1.2c-0.16-0.3-0.51-0.98-0.79-1.53-0.27-0.54-0.65-1.33-0.83-1.75-0.19-0.42-0.48-1.12-0.65-1.55s-0.43-1.12-0.57-1.52-0.35-1.02-0.46-1.37c-0.1-0.36-0.3-1.01-0.42-1.46-0.12-0.46-0.31-1.22-0.42-1.7-0.11-0.49-0.26-1.22-0.33-1.64-0.08-0.42-0.19-1.12-0.26-1.55-0.06-0.44-0.15-1.17-0.2-1.64-0.04-0.46-0.11-1.24-0.14-1.74-0.03-0.53-0.06-3.84-0.06-8.13 0-5.97 0.02-7.23 0.08-7.23 0.04 0 0.95-0.09 2.01-0.19 1.07-0.11 2.42-0.27 3.01-0.34 0.59-0.08 1.52-0.22 2.06-0.32 0.54-0.09 1.4-0.26 1.92-0.37 0.51-0.1 1.33-0.3 1.83-0.42 0.49-0.12 1.34-0.35 1.87-0.5 0.54-0.16 1.44-0.44 2-0.63 0.57-0.19 1.33-0.45 1.71-0.59 0.37-0.14 1.07-0.42 1.56-0.62s1.29-0.54 1.78-0.76c0.48-0.22 1.34-0.63 1.9-0.91 0.55-0.27 1.29-0.66 1.63-0.84 0.34-0.19 1.05-0.6 1.58-0.91s1.31-0.79 1.75-1.07c0.43-0.27 1.12-0.73 1.52-1.01s1.09-0.78 1.52-1.1c0.43-0.33 1.1-0.85 1.49-1.16s0.87-0.7 1.07-0.88c0.2-0.17 0.71-0.61 1.13-0.98 0.42-0.38 1.33-1.25 2.03-1.95s1.59-1.63 1.98-2.07c0.39-0.43 0.95-1.08 1.24-1.43 0.3-0.36 0.85-1.05 1.24-1.55 0.38-0.49 0.82-1.08 0.98-1.31 0.15-0.22 0.29-0.4 0.31-0.4zm73.36 20.96c-0.03 0-0.09 0.12-0.14 0.27-0.04 0.14-0.48 1.49-0.96 2.99-0.49 1.49-0.88 2.73-0.87 2.74s3.39 1.11 7.51 2.45c4.11 1.34 7.5 2.41 7.53 2.39 0.02-0.03 0.48-1.38 1-3.01 0.53-1.62 0.96-2.96 0.95-2.96 0-0.01-3.37-1.1-7.49-2.44-4.11-1.34-7.5-2.43-7.53-2.43zm-146.79 0c-0.05 0.01-2.61 0.83-5.67 1.83-3.07 1-6.41 2.09-7.43 2.42-1.06 0.35-1.84 0.63-1.84 0.67 0 0.03 0.42 1.38 0.95 2.98 0.52 1.61 0.96 2.93 0.98 2.95 0.01 0.02 3.4-1.06 7.51-2.4 4.12-1.34 7.5-2.45 7.52-2.46 0.01-0.01-0.09-0.38-0.24-0.82-0.14-0.44-0.58-1.79-0.97-2.99-0.58-1.76-0.73-2.18-0.81-2.18zm73.32 36.52c6.55 0 10.1 0.01 10.48 0.05 0.32 0.04 0.82 0.11 1.11 0.17s0.76 0.19 1.04 0.28c0.29 0.1 0.8 0.31 1.14 0.48 0.34 0.16 0.84 0.45 1.1 0.62 0.26 0.18 0.69 0.5 0.95 0.72 0.27 0.23 0.67 0.62 0.9 0.89 0.23 0.26 0.59 0.73 0.81 1.06 0.21 0.32 0.5 0.82 0.64 1.11 0.14 0.3 0.35 0.83 0.47 1.19 0.12 0.37 0.26 0.89 0.32 1.17l0.11 0.51v6.08l-1.48 0.74c-0.81 0.4-1.48 0.74-1.5 0.76-0.01 0.01-0.09 0.51-0.18 1.1-0.08 0.59-0.2 1.31-0.26 1.59-0.06 0.29-0.2 0.8-0.31 1.13s-0.31 0.85-0.45 1.16c-0.13 0.31-0.4 0.84-0.59 1.17s-0.55 0.87-0.79 1.19c-0.23 0.31-0.64 0.8-0.89 1.07-0.26 0.27-0.71 0.7-1.01 0.95s-0.81 0.63-1.13 0.85c-0.41 0.27-2.17 1.18-5.49 2.84l-4.88 2.44-4.8-2.39c-2.63-1.32-5.02-2.54-5.29-2.71s-0.72-0.48-1-0.69c-0.27-0.21-0.71-0.58-0.96-0.83-0.26-0.24-0.68-0.68-0.93-0.98-0.24-0.3-0.62-0.8-0.83-1.12s-0.52-0.83-0.67-1.13c-0.16-0.31-0.4-0.85-0.54-1.21-0.14-0.35-0.33-0.94-0.43-1.31-0.09-0.36-0.24-1.19-0.34-1.85-0.09-0.65-0.17-1.21-0.18-1.24-0.01-0.02-0.68-0.38-1.5-0.79l-1.49-0.74v-6.08l0.13-0.61c0.07-0.34 0.22-0.87 0.33-1.19 0.11-0.31 0.31-0.8 0.44-1.08 0.14-0.28 0.43-0.78 0.64-1.1s0.57-0.79 0.78-1.04c0.22-0.24 0.56-0.59 0.75-0.76 0.2-0.17 0.52-0.43 0.7-0.57 0.19-0.14 0.58-0.39 0.86-0.57 0.29-0.17 0.8-0.42 1.13-0.56s0.78-0.31 1-0.37c0.22-0.07 0.6-0.16 0.84-0.21 0.25-0.05 0.66-0.11 0.91-0.13 0.24-0.03 4.9-0.05 10.34-0.06zm12.78 6.36l-12.68 0.01h-12.68v6.31h25.36v-6.32zm-222.4 65.52c-4 0-7.89 0.39-11.65 1.16-3.38 0.7-5.82 1.64-7.33 2.8-1.48 1.12-2.22 2.63-2.22 4.53 0 0.92 0.3 1.78 0.9 2.59 0.6 0.8 1.32 1.3 2.16 1.47 1.8 0.46 2.89 0.79 3.27 1 0.42 0.22 0.9 0.67 1.43 1.38 0.63 0.87 1.02 2.02 1.16 3.42 0.17 1.37 0.42 5.98 0.73 13.82l0.11 12.92 0.05 4.8c0 3.44-0.72 6.22-2.16 8.33s-3.34 3.16-5.69 3.16c-1.34 0-2.41-0.35-3.22-1.05s-1.21-1.62-1.21-2.74c0-0.42 0.03-0.81 0.1-1.16 0.42-1.73 0.63-2.96 0.63-3.69 0-2.89-1.14-5.31-3.42-7.28-2.29-1.94-5.07-2.9-8.34-2.9-3.34 0-6.11 1.16-8.33 3.48-2.21 2.28-3.32 5.18-3.32 8.7 0 2.85 0.7 5.54 2.11 8.07 1.41 2.49 3.3 4.48 5.69 5.96 2.89 1.79 6.28 3.2 10.18 4.22 3.94 1.02 7.86 1.53 11.76 1.53 4.4 0 8.58-0.69 12.55-2.06 3.98-1.37 7.23-3.25 9.76-5.64 3.09-2.92 5.15-6.95 6.17-12.08 0.35-1.76 0.56-3.57 0.63-5.43 0.11-1.87 0.21-7.46 0.32-16.77 0.24-9.63 0.51-15.15 0.79-16.56 0.32-1.44 1.49-2.69 3.53-3.74 1.76-0.88 2.9-1.62 3.43-2.22 0.53-0.63 0.79-1.49 0.79-2.58 0-1.73-0.72-3.08-2.16-4.06-1.44-0.99-3.83-1.76-7.17-2.32-4.08-0.71-8.09-1.06-12.03-1.06zm399.52 1.06c-1.76 0-4.57 0.33-8.44 1-3.86 0.67-7.01 1.37-9.44 2.11-3.62 1.09-6.25 2.28-7.91 3.58-1.65 1.27-2.47 2.76-2.47 4.49 0 1.09 0.26 2.02 0.79 2.79 0.56 0.74 1.58 1.53 3.06 2.37 1.96 1.2 3.19 3.03 3.69 5.49 0.49 2.46 0.73 7.98 0.73 16.56 0 8.43-0.28 14.94-0.84 19.51-0.32 2.67-1.16 4.31-2.53 4.9-1.48 0.64-2.44 1.18-2.9 1.64-0.42 0.45-0.63 1.1-0.63 1.95 0 1.05 0.4 2.07 1.21 3.06 0.81 0.95 1.85 1.65 3.11 2.11 2.74 1.02 7.51 1.53 14.29 1.53 6.01 0 10.28-0.39 12.82-1.16 1.37-0.39 2.46-1.06 3.27-2.01 0.84-0.95 1.26-2 1.26-3.16 0-0.92-0.23-1.62-0.68-2.11-0.43-0.49-1.29-1.02-2.59-1.58-1.51-0.67-2.39-1.62-2.63-2.85-0.22-1.23-0.32-5.59-0.32-13.08v-16.93c0.07-5.24 0.33-11 0.79-17.29 0.35-4.05 0.53-6.63 0.53-7.76 0-3.44-1.39-5.16-4.17-5.16zm-116.65 6.8c-0.88 0-1.61 0.16-2.21 0.47l-24.15 15.19c-0.78 0.49-1.18 1.27-1.22 2.32v2.32c0 1.23 0.14 2.02 0.42 2.37 0.29 0.32 0.94 0.48 1.96 0.48h5.43c0.81 0 1.3 0.1 1.47 0.32 0.21 0.17 0.32 0.66 0.32 1.47v24.37c0 5.2 1.71 9.4 5.12 12.6 3.41 3.16 7.92 4.75 13.55 4.75 7.1 0 13.15-2.13 18.14-6.39 2.39-2 3.58-4.09 3.58-6.27 0-1.2-0.35-2.3-1.05-3.32s-1.48-1.53-2.32-1.53c-0.53 0-1.05 0.16-1.58 0.47-2.25 1.27-4.06 1.9-5.43 1.9-1.62 0-2.96-0.67-4.01-2-1.02-1.34-1.53-3.06-1.53-5.17v-17.83c0-0.98 0.17-1.65 0.53-2 0.35-0.35 1.02-0.53 2-0.53h9.55c1.3 0 2.19-0.31 2.68-0.95 0.5-0.66 0.74-1.84 0.74-3.53v-3.11c0-1.55-0.19-2.55-0.58-3.01-0.38-0.49-1.23-0.73-2.53-0.73h-9.75c-1.09 0-1.81-0.16-2.17-0.48-0.31-0.32-0.47-1-0.47-2.06v-7.12c0-1.19-0.16-1.98-0.48-2.37-0.28-0.42-0.86-0.63-1.74-0.63h-4.27zm-164.16 12.66c-0.56 0-1.25 0.15-2.06 0.47-1.72 0.63-2.88 0.95-3.48 0.95-0.53 0-1.19-0.07-2-0.21-3.98-0.78-6.84-1.16-8.6-1.16-6.33 0-11.32 2.16-14.97 6.48-2.57 3.03-3.85 6.63-3.85 10.81 0 3.87 1.24 7.28 3.74 10.24 2.53 2.95 6.63 5.81 12.29 8.59 2.7 1.3 4.06 2.74 4.06 4.33 0 1.01-0.35 1.84-1.06 2.47-0.7 0.6-1.63 0.9-2.79 0.9-1.09 0-2.11-0.28-3.06-0.84-0.95-0.6-2.15-1.67-3.59-3.22-2.63-2.81-4.37-4.54-5.22-5.17-0.81-0.67-1.7-1-2.69-1-2.53 0-3.79 1.62-3.79 4.85 0 2.01 0.61 4.41 1.84 7.23 1.23 2.77 2.57 4.81 4.01 6.11 0.95 0.85 2.25 1.27 3.9 1.27 0.46 0 1.2-0.07 2.22-0.21 0.59-0.11 1.12-0.16 1.58-0.16 0.42 0 2.34 0.19 5.75 0.58 3.62 0.46 6.11 0.69 7.49 0.69 5.34 0 9.86-1.43 13.55-4.28 4.29-3.27 6.43-7.34 6.43-12.23 0-3.87-1.33-7.14-4.01-9.81-3.16-3.16-7.71-6.08-13.65-8.75-3.31-1.52-4.96-3.13-4.96-4.85 0-0.99 0.35-1.83 1.05-2.54 0.74-0.73 1.6-1.1 2.59-1.1 1.47 0 3.34 1.09 5.59 3.27 2.14 2.04 3.69 3.35 4.64 3.95 0.98 0.6 2.09 0.9 3.32 0.9 1.48 0 2.71-0.46 3.69-1.37 0.99-0.95 1.48-2.13 1.48-3.54 0-1.44-0.42-3.14-1.27-5.11-0.84-1.97-1.93-3.78-3.27-5.43-1.65-2.08-3.28-3.11-4.9-3.11zm124.66 0c-0.56 0-1.24 0.15-2.05 0.47-1.72 0.63-2.88 0.95-3.48 0.95-0.53 0-1.2-0.07-2.01-0.21-3.97-0.78-6.83-1.16-8.59-1.16-6.33 0-11.32 2.16-14.98 6.48-2.57 3.03-3.85 6.63-3.85 10.81 0 3.87 1.25 7.28 3.74 10.24 2.54 2.95 6.63 5.81 12.29 8.59 2.71 1.3 4.06 2.74 4.06 4.33 0 1.01-0.35 1.84-1.05 2.47-0.7 0.6-1.64 0.9-2.8 0.9-1.09 0-2.11-0.28-3.05-0.84-0.95-0.6-2.15-1.67-3.59-3.22-2.64-2.81-4.38-4.54-5.22-5.17-0.81-0.67-1.71-1-2.69-1-2.53 0-3.8 1.62-3.8 4.85 0 2.01 0.62 4.41 1.85 7.23 1.23 2.77 2.56 4.81 4 6.11 0.95 0.85 2.26 1.27 3.91 1.27 0.46 0 1.19-0.07 2.21-0.21 0.6-0.11 1.13-0.16 1.59-0.16 0.42 0 2.33 0.19 5.74 0.58 3.62 0.46 6.12 0.69 7.49 0.69 5.35 0 9.86-1.43 13.55-4.28 4.29-3.27 6.44-7.34 6.44-12.23 0-3.87-1.34-7.14-4.01-9.81-3.16-3.16-7.72-6.08-13.66-8.75-3.3-1.52-4.96-3.13-4.96-4.85 0-0.99 0.36-1.83 1.06-2.54 0.74-0.73 1.6-1.1 2.58-1.1 1.48 0 3.34 1.09 5.59 3.27 2.15 2.04 3.69 3.35 4.64 3.95 0.99 0.6 2.1 0.9 3.33 0.9 1.47 0 2.7-0.46 3.69-1.37 0.98-0.95 1.47-2.13 1.47-3.54 0-1.44-0.42-3.14-1.26-5.11-0.85-1.97-1.94-3.78-3.27-5.43-1.65-2.08-3.29-3.11-4.91-3.11zm-190.63 0.05c-4.19 0-8.07 0.75-11.66 2.27-4.78 2-8.72 5.04-11.81 9.12-3.58 4.71-5.38 10.02-5.38 15.92 0 4.4 1.04 8.58 3.11 12.55 1.59 2.99 3.59 5.54 6.02 7.65 4.99 4.29 11.17 6.44 18.56 6.44 7.31 0 13.76-2.1 19.35-6.28 3.17-2.36 4.75-4.8 4.75-7.33 0-1.2-0.44-2.36-1.32-3.48-0.88-1.13-1.78-1.69-2.69-1.69-0.7 0-1.65 0.42-2.85 1.27-1.33 0.95-3.04 1.76-5.11 2.42-2.04 0.64-3.91 0.95-5.59 0.95-2.85 0-5.52-1-8.02-3-2.46-2.04-3.69-4.2-3.69-6.49 0-0.95 0.54-1.42 1.63-1.42h24.79c1.51 0 2.74-0.72 3.69-2.17 0.95-1.47 1.42-3.35 1.42-5.64 0-2.81-0.82-5.69-2.47-8.65-1.44-2.6-3.34-4.85-5.7-6.75-4.67-3.79-10.35-5.69-17.03-5.69zm387.7 0c-4.18 0-8.07 0.75-11.65 2.27-4.78 2-8.72 5.04-11.81 9.12-3.59 4.71-5.38 10.02-5.38 15.92 0 4.4 1.03 8.58 3.11 12.55 1.58 2.99 3.58 5.54 6.01 7.65 4.99 4.29 11.18 6.44 18.56 6.44 7.32 0 13.77-2.1 19.36-6.28 3.16-2.36 4.74-4.8 4.74-7.33 0-1.2-0.44-2.36-1.32-3.48-0.87-1.13-1.77-1.69-2.69-1.69-0.7 0-1.65 0.42-2.84 1.27-1.34 0.95-3.04 1.76-5.12 2.42-2.04 0.64-3.9 0.95-5.59 0.95-2.85 0-5.52-1-8.01-3-2.46-2.04-3.7-4.2-3.7-6.49 0-0.95 0.55-1.42 1.64-1.42h24.78c1.52 0 2.75-0.72 3.7-2.17 0.95-1.47 1.42-3.35 1.42-5.64 0-2.81-0.83-5.69-2.48-8.65-1.44-2.6-3.34-4.85-5.69-6.75-4.68-3.79-10.36-5.69-17.04-5.69zm-110.9 0.31c-5.31 0-10.03 0.37-14.18 1.11-6.23 1.13-9.34 3.25-9.34 6.38 0 0.78 0.25 1.58 0.74 2.43 0.53 0.81 1.14 1.35 1.85 1.63 2.28 1.02 3.76 1.88 4.43 2.59 0.66 0.7 1.67 2.46 3 5.27l12.71 27.05c1.83 3.87 2.74 6.63 2.74 8.28 0 1.41-0.37 2.59-1.1 3.54-0.74 0.95-1.66 1.42-2.75 1.42-1.37 0-2.25-0.77-2.63-2.32-0.49-2.04-0.86-3.36-1.11-3.96-0.25-0.59-0.74-1.28-1.48-2.05-1.54-1.69-3.58-2.53-6.11-2.53-2.54 0-4.68 0.93-6.44 2.79-1.72 1.83-2.58 4.1-2.58 6.81 0 3.27 1.25 5.95 3.74 8.06 3.24 2.75 7.46 4.12 12.66 4.12 6.43 0 11.93-2.18 16.5-6.54 2.22-2.11 4.19-4.68 5.91-7.7 1.76-2.99 3.5-6.86 5.22-11.6l6.96-19.15c2.01-5.41 3.78-9.3 5.33-11.65 0.98-1.48 2.32-2.53 4.01-3.17 2-0.7 3.37-1.44 4.11-2.21 0.77-0.81 1.16-1.86 1.16-3.16 0-3.59-3.73-5.38-11.18-5.38-4.01 0-7.21 0.54-9.6 1.63-2.39 1.06-3.58 2.48-3.58 4.27 0 1.13 0.66 2.48 2 4.06 0.88 1.02 1.32 2.34 1.32 3.96 0 2-0.58 4.09-1.74 6.27-1.16 2.15-2.29 3.22-3.38 3.22-1.02 0-2.19-1.23-3.53-3.69-1.19-2.18-1.99-3.73-2.37-4.64-0.35-0.92-0.53-1.79-0.53-2.64 0-0.88 0.39-1.88 1.16-3 0.81-1.2 1.21-2.24 1.21-3.11 0-2.47-1.44-4.21-4.32-5.23-2.15-0.77-5.08-1.16-8.81-1.16zm-170.81 0.06c-6.89 0-13.78 0.75-20.67 2.26-4.04 0.88-6.06 2.66-6.06 5.33 0 0.74 0.17 1.32 0.53 1.74 0.38 0.42 1.26 0.99 2.63 1.69 1.44 0.81 2.43 1.93 2.95 3.37 0.57 1.41 0.85 3.62 0.85 6.65v2.42c-0.04 2.04-0.05 4.5-0.05 7.39 0 7.73 1.17 13.23 3.53 16.5 2.78 3.9 7.54 5.86 14.29 5.86 4.08 0 7.89-1.22 11.44-3.64 1.8-1.23 2.87-1.94 3.22-2.11 0.35-0.21 0.74-0.32 1.16-0.32 1.16 0 1.83 1.09 2 3.27 0.11 1.13 0.46 1.88 1.06 2.27 0.63 0.39 1.79 0.58 3.48 0.58 4.11 0 8.37-0.51 12.76-1.53 7.49-1.72 11.23-4.17 11.23-7.33 0-1.62-0.86-2.85-2.58-3.69-2.04-0.99-3.06-2.08-3.06-3.27v-23.26c0.04-2.42 0.09-4.48 0.16-6.17 0.03-1.19 0.05-1.98 0.05-2.37 0-3.76-1.77-5.64-5.32-5.64-6.37 0-12.82 0.81-19.36 2.42-3.44 0.85-5.17 2.36-5.17 4.54 0 1.62 1.01 2.95 3.01 4.01 0.98 0.52 1.65 1 2 1.42 0.36 0.39 0.6 1.02 0.74 1.9 0.39 2.11 0.58 6.04 0.58 11.81 0 5.84-0.38 9.6-1.16 11.29-0.38 0.84-1.07 1.56-2.05 2.16-0.99 0.56-1.99 0.84-3.01 0.84-4.04 0-6.06-3.06-6.06-9.17v-28.59c0-1.75-1.04-2.63-3.12-2.63zm-106.52 9.12c1.76 0 3.18 0.6 4.27 1.79 1.09 1.2 1.64 2.75 1.64 4.64 0 2.08-1.13 3.11-3.38 3.11h-5.32c-1.27 0-2.17-0.21-2.69-0.63-0.5-0.42-0.74-1.16-0.74-2.21 0-1.48 0.53-2.94 1.58-4.38 1.12-1.55 2.67-2.32 4.64-2.32zm387.71 0c1.75 0 3.18 0.6 4.27 1.79 1.09 1.2 1.63 2.75 1.63 4.64 0 2.08-1.12 3.11-3.37 3.11h-5.33c-1.26 0-2.16-0.21-2.69-0.63-0.49-0.42-0.74-1.16-0.74-2.21 0-1.48 0.53-2.94 1.58-4.38 1.13-1.55 2.68-2.32 4.65-2.32z" />
</svg>