<?xml version="1.0" encoding="utf-8"?>
<svg version="1.1" xmlns:cc="http://creativecommons.org/ns#" xmlns:dc="http://purl.org/dc/elements/1.1/" xmlns:rdf="http://www.w3.org/1999/02/22-rdf-syntax-ns#" xmlns="http://www.w3.org/2000/svg" xmlns:xlink="http://www.w3.org/1999/xlink" x="0px" y="0px" viewBox="0 0 1024 768" xml:space="preserve">
<rect fill="#4d4d4d" width="1024" height="768" />

 
 <g id="logo-group" transform="translate(-179.89 -138) scale(1.3514)">
  <path id="path703255" style="font-variant-ligatures:none" d="m356.86 434.15q4.3706 0 8.8973 0.78046 3.7072 0.62438 5.3072 1.717t1.6 3.0048q0 1.2097-0.58535 1.9122-0.58536 0.6634-2.5365 1.639-2.2634 1.1707-2.6146 2.7707-0.31219 1.5609-0.58535 12.253-0.11707 10.341-0.23414 12.409-0.078 2.0682-0.46829 4.0194-1.1317 5.6974-4.5657 8.9364-2.8097 2.6536-7.2193 4.1755t-9.2876 1.5219q-4.3316 0-8.7022-1.1317-4.3316-1.1317-7.5315-3.1219-2.6536-1.639-4.2145-4.4096-1.5609-2.8097-1.5609-5.9706 0-3.9023 2.4585-6.4389 2.4585-2.5756 6.1657-2.5756 3.6292 0 6.1657 2.1463 2.5365 2.1853 2.5365 5.3852 0 0.8195-0.46829 2.7316-0.078 0.39024-0.078 0.85852 0 1.2488 0.89755 2.0292 0.89753 0.78047 2.3804 0.78047 2.6146 0 4.2145-2.3414 1.6-2.3414 1.6-6.1657l-0.0391-3.5511-0.078-9.5607q-0.35121-8.7022-0.54633-10.224-0.15609-1.5609-0.85852-2.5365-0.58535-0.78047-1.0536-1.0146-0.42926-0.23414-2.4195-0.74145-0.93656-0.19511-1.6-1.0926-0.66339-0.89754-0.66339-1.9122 0-2.1073 1.639-3.356 1.678-1.2878 5.4243-2.0682 4.1755-0.85851 8.6242-0.85851z" stroke-miterlimit="2" stroke-width="0" fill="#ededed"/>
  <path id="path703257" style="font-variant-ligatures:none" d="m410.75 470.75h-18.341q-1.2097 0-1.2097 1.0536 0 2.5365 2.7316 4.7999 2.7707 2.2243 5.9316 2.2243 1.8731 0 4.1365-0.70242 2.3024-0.74145 3.7853-1.7951 1.3268-0.93656 2.1073-0.93656 1.0146 0 1.9902 1.2488 0.97559 1.2488 0.97559 2.5756 0 2.8097-3.5121 5.4242-6.2047 4.6438-14.322 4.6438-8.1949 0-13.736-4.7609-2.6926-2.3414-4.4487-5.6584-2.3024-4.4096-2.3024-9.2876 0-6.5559 3.9804-11.785 3.4341-4.5267 8.7412-6.7511 3.9804-1.678 8.6242-1.678 7.4145 0 12.605 4.2145 2.6146 2.1073 4.2145 4.995 1.8341 3.278 1.8341 6.3998 0 2.5365-1.0536 4.1755-1.0536 1.6-2.7316 1.6zm-17.326-7.2974h3.9414q2.4975 0 2.4975-2.3024 0-2.1073-1.2097-3.4341t-3.1609-1.3268q-2.1853 0-3.4341 1.717-1.1707 1.6-1.1707 3.2389 0 1.1707 0.54634 1.639 0.58534 0.46828 1.9902 0.46828z" stroke-miterlimit="2" stroke-width="0" fill="#ededed"/>
  <path id="path703259" style="font-variant-ligatures:none" d="m432.76 449.37q1.9512 0 6.3608 0.85851 0.89754 0.1561 1.4829 0.1561 0.6634 0 2.5755-0.70243 0.89755-0.35121 1.5219-0.35121 1.7951 0 3.6292 2.3024 1.4829 1.8341 2.4195 4.0194 0.93656 2.1853 0.93656 3.7853 0 1.5609-1.0927 2.6146-1.0926 1.0146-2.7316 1.0146-1.3658 0-2.4585-0.6634-1.0536-0.66339-3.4341-2.9268-2.4975-2.4195-4.1365-2.4195-1.0927 0-1.9122 0.8195-0.78046 0.78046-0.78046 1.8731 0 1.9122 3.6682 3.5902 6.595 2.9658 10.107 6.4779 2.9658 2.9658 2.9658 7.2584 0 5.4242-4.7609 9.0534-4.0974 3.1609-10.029 3.1609-1.5219 0-5.5413-0.5073-3.7853-0.42926-4.2536-0.42926-0.5073 0-1.1707 0.11707-1.1317 0.15609-1.639 0.15609-1.8341 0-2.8877-0.93656-1.6-1.4439-2.9658-4.5267-1.3658-3.1219-1.3658-5.3462 0-3.5902 2.8097-3.5902 1.0927 0 1.9902 0.74144 0.93656 0.70242 3.8633 3.8243 1.6 1.717 2.6536 2.3804 1.0536 0.62437 2.2634 0.62437 1.2878 0 2.0682-0.6634 0.78046-0.70242 0.78046-1.8341 0-1.756-3.0048-3.1999-6.2828-3.0828-9.0924-6.3608-2.7707-3.278-2.7707-7.5706 0-4.6438 2.8487-7.9998 4.0584-4.7999 11.083-4.7999z" stroke-miterlimit="2" stroke-width="0" fill="#ededed"/>
  <path id="path703261" style="font-variant-ligatures:none" d="m476.63 451.59v21.151q0 6.7901 4.4877 6.7901 1.1317 0 2.2243-0.62437 1.0927-0.6634 1.5219-1.6 0.85852-1.8731 0.85852-8.351 0-6.3998-0.42926-8.7412-0.1561-0.97558-0.54633-1.4048-0.39023-0.46828-1.4829-1.0536-2.2243-1.1707-2.2243-2.9658 0-2.4194 3.8243-3.356 7.2584-1.7951 14.322-1.7951 3.9414 0 3.9414 4.1755 0 0.42926-0.039 1.756-0.078 1.8731-0.11707 4.5657v17.209q0 1.3268 2.2634 2.4194 1.9122 0.93657 1.9122 2.7316 0 3.5121-8.312 5.4243-4.8779 1.1317-9.4437 1.1317-1.8731 0-2.5755-0.42926-0.66341-0.42925-0.78047-1.678-0.19512-2.4195-1.4829-2.4195-0.46829 0-0.85852 0.23414-0.39023 0.19512-2.3804 1.5609-3.9414 2.6926-8.4681 2.6926-7.4925 0-10.575-4.3316-2.6146-3.6292-2.6146-12.214 0-3.1999 0.0391-5.4633 0-1.3268 0-1.7951 0-3.356-0.62438-4.917-0.58536-1.6-2.1853-2.4975-1.5219-0.78047-1.9512-1.2488-0.39023-0.46828-0.39023-1.2878 0-2.9658 4.4877-3.9414 7.6486-1.678 15.297-1.678 2.3024 0 2.3024 1.9512z" stroke-miterlimit="2" stroke-width="0" fill="#ededed"/>
  <path id="path703263" style="font-variant-ligatures:none" d="m525.01 449.37q1.9512 0 6.3608 0.85851 0.89753 0.1561 1.4829 0.1561 0.66339 0 2.5756-0.70243 0.89753-0.35121 1.5219-0.35121 1.7951 0 3.6292 2.3024 1.4829 1.8341 2.4195 4.0194 0.93656 2.1853 0.93656 3.7853 0 1.5609-1.0926 2.6146-1.0927 1.0146-2.7316 1.0146-1.3658 0-2.4585-0.6634-1.0536-0.66339-3.4341-2.9268-2.4975-2.4195-4.1365-2.4195-1.0926 0-1.9121 0.8195-0.78047 0.78046-0.78047 1.8731 0 1.9122 3.6682 3.5902 6.595 2.9658 10.107 6.4779 2.9658 2.9658 2.9658 7.2584 0 5.4242-4.7609 9.0534-4.0975 3.1609-10.029 3.1609-1.5219 0-5.5413-0.5073-3.7853-0.42926-4.2536-0.42926-0.5073 0-1.1707 0.11707-1.1317 0.15609-1.639 0.15609-1.8341 0-2.8877-0.93656-1.6-1.4439-2.9658-4.5267-1.3658-3.1219-1.3658-5.3462 0-3.5902 2.8097-3.5902 1.0926 0 1.9902 0.74144 0.93656 0.70242 3.8633 3.8243 1.6 1.717 2.6536 2.3804 1.0536 0.62437 2.2634 0.62437 1.2878 0 2.0682-0.6634 0.78047-0.70242 0.78047-1.8341 0-1.756-3.0048-3.1999-6.2828-3.0828-9.0925-6.3608-2.7707-3.278-2.7707-7.5706 0-4.6438 2.8487-7.9998 4.0584-4.7999 11.083-4.7999z" stroke-miterlimit="2" stroke-width="0" fill="#ededed"/>
  <path id="path703265" style="font-variant-ligatures:none" d="m570.98 459.59v13.19q0 2.3414 1.1317 3.8243 1.1707 1.4829 2.9658 1.4829 1.5219 0 4.0194-1.4048 0.58536-0.35121 1.1707-0.35121 0.93656 0 1.717 1.1317 0.78047 1.1317 0.78047 2.4585 0 2.4194-2.6536 4.6438-5.5413 4.7218-13.424 4.7218-6.2438 0-10.029-3.5121-3.7853-3.5511-3.7853-9.3266v-18.029q0-0.89754-0.23414-1.0926-0.19512-0.23414-1.0927-0.23414h-4.0194q-1.1317 0-1.4439-0.35121-0.31219-0.39024-0.31219-1.7561v-1.717q0.0391-1.1707 0.89755-1.717l17.873-11.239q0.6634-0.35121 1.639-0.35121h3.1609q0.97559 0 1.2878 0.46828 0.3512 0.42926 0.3512 1.756v5.2682q0 1.1707 0.35122 1.5219 0.39023 0.35121 1.6 0.35121h7.2193q1.4439 0 1.8731 0.54633 0.42926 0.50731 0.42926 2.2243v2.3024q0 1.8731-0.54633 2.6146-0.54633 0.70242-1.9902 0.70242h-7.0632q-1.0926 0-1.4829 0.39024-0.39024 0.39023-0.39024 1.4829z" stroke-miterlimit="2" stroke-width="0" fill="#ededed"/>
  <path id="path703267" style="font-variant-ligatures:none" d="m621.99 468.57-5.1511 14.166q-1.9122 5.2682-3.8633 8.5852-1.9122 3.356-4.3706 5.6974-5.073 4.8389-12.214 4.8389-5.7755 0-9.3656-3.0438-2.7707-2.3414-2.7707-5.9706 0-3.0048 1.9121-5.034 1.9512-2.0682 4.7609-2.0682t4.5267 1.8731q0.81949 0.85851 1.0927 1.5219 0.27316 0.6634 0.81949 2.9268 0.42926 1.717 1.9512 1.717 1.2097 0 2.0292-1.0536t0.8195-2.6146q0-1.8341-2.0292-6.1267l-9.4046-20.019q-1.4829-3.1219-2.2243-3.9023-0.74145-0.78047-3.278-1.9122-0.78047-0.31219-1.3658-1.2097-0.54632-0.93656-0.54632-1.7951 0-3.4731 6.9071-4.7218 4.6048-0.81949 10.497-0.81949 4.1365 0 6.5169 0.85851 3.1999 1.1317 3.1999 3.8633 0 0.97559-0.89753 2.3024-0.85852 1.2488-0.85852 2.2243 0 0.93656 0.39023 1.9512 0.42926 1.0146 1.756 3.4341 1.4829 2.7316 2.6146 2.7316 1.2097 0 2.4975-2.3804 1.2878-2.4195 1.2878-4.6438 0-1.7951-0.97559-2.9268-1.4829-1.756-1.4829-3.0048 0-1.9902 2.6536-3.1609 2.6536-1.2097 7.1023-1.2097 8.273 0 8.273 3.9804 0 1.4439-0.85852 2.3414-0.81949 0.85851-3.0438 1.639-1.8731 0.70242-2.9658 2.3414-1.717 2.6146-3.9414 8.6242z" stroke-miterlimit="2" stroke-width="0" fill="#ededed"/>
  <path id="path703269" style="font-variant-ligatures:none" d="m654.61 457.29v12.527q0 8.312 0.23413 9.6778 0.27317 1.3658 1.9512 2.1073 1.4439 0.62437 1.9121 1.1707 0.5073 0.54633 0.5073 1.5609 0 1.2878-0.93656 2.3414-0.89753 1.0536-2.4194 1.4829-2.8097 0.85852-9.4827 0.85852-7.5315 0-10.575-1.1317-1.4048-0.50731-2.3024-1.5609-0.89754-1.0926-0.89754-2.2634 0-0.93656 0.46829-1.4439 0.5073-0.50731 2.1463-1.2097 1.5219-0.6634 1.8731-3.6292 0.62438-5.073 0.62438-14.439 0-9.5217-0.54634-12.253-0.54633-2.7316-2.7316-4.0584-1.639-0.93656-2.2634-1.756-0.58534-0.85852-0.58534-2.0682 0-1.9122 1.8341-3.317 1.8341-1.4439 5.8535-2.6536 2.6926-0.8195 6.9852-1.5609 4.2926-0.74145 6.2438-0.74145 3.0828 0 3.0828 3.8243 0 1.2488-0.39023 5.7364-0.50731 6.9852-0.58535 12.8z" stroke-miterlimit="2" stroke-width="0" fill="#ededed"/>
  <path id="path703271" style="font-variant-ligatures:none" d="m697.65 470.75h-18.341q-1.2097 0-1.2097 1.0536 0 2.5365 2.7316 4.7999 2.7707 2.2243 5.9316 2.2243 1.8731 0 4.1365-0.70242 2.3024-0.74145 3.7853-1.7951 1.3268-0.93656 2.1073-0.93656 1.0146 0 1.9902 1.2488 0.97559 1.2488 0.97559 2.5756 0 2.8097-3.5121 5.4242-6.2047 4.6438-14.322 4.6438-8.1949 0-13.736-4.7609-2.6926-2.3414-4.4487-5.6584-2.3024-4.4096-2.3024-9.2876 0-6.5559 3.9804-11.785 3.4341-4.5267 8.7412-6.7511 3.9804-1.678 8.6242-1.678 7.4144 0 12.605 4.2145 2.6146 2.1073 4.2145 4.995 1.8341 3.278 1.8341 6.3998 0 2.5365-1.0536 4.1755-1.0536 1.6-2.7316 1.6zm-17.326-7.2974h3.9414q2.4975 0 2.4975-2.3024 0-2.1073-1.2097-3.4341t-3.1609-1.3268q-2.1853 0-3.4341 1.717-1.1707 1.6-1.1707 3.2389 0 1.1707 0.54633 1.639 0.58535 0.46828 1.9902 0.46828z" stroke-miterlimit="2" stroke-width="0" fill="#ededed"/>
  <path id="icon" stroke-width=".75" fill="#33b9c7" d="m512.06 270.7h-2.3352v11.759h4.6704v-11.759zm-18.806 2.6292c-0.0117 0.001-1.0112 0.32484-2.221 0.71891-1.2098 0.39406-2.1997 0.73392-2.1997 0.75517 0 0.0213 0.80858 2.5266 1.7964 5.5674 0.98827 3.0412 1.8027 5.5348 1.8098 5.5419 0.007 0.007 1.0046-0.30941 2.2168-0.70348 1.2122-0.39364 2.2114-0.72266 2.2201-0.73058 0.009-0.008-0.79815-2.5204-1.7926-5.5828-0.99495-3.0629-1.8182-5.5678-1.8298-5.5665zm37.634 0.0104c-0.023-0.007-0.85485 2.4937-1.8486 5.5578-0.99375 3.0637-1.8006 5.5761-1.7931 5.5832 0.008 0.007 1.0066 0.3336 2.2202 0.72641 1.2135 0.39281 2.213 0.70724 2.2214 0.6989 0.008-0.008 0.82147-2.5016 1.8073-5.5402 0.98581-3.0391 1.7923-5.5432 1.7923-5.5648 0-0.0213-0.9804-0.35612-2.1788-0.74352-1.1984-0.38739-2.1976-0.71056-2.2205-0.71765zm-56.89 9.0285c-0.015-0.0154-0.85275 0.57087-1.861 1.3036-1.0083 0.73225-1.8578 1.3557-1.8869 1.3849-0.0438 0.0438 0.58004 0.92618 3.3673 4.7642 1.8815 2.5908 3.4382 4.7163 3.4594 4.7238 0.0213 0.008 0.8832-0.60048 1.9157-1.3507l1.877-1.364-0.0917-0.12969c-0.0503-0.0705-1.59-2.193-3.4215-4.716-1.8322-2.523-3.3428-4.5998-3.3578-4.6155zm76.222 0.0163-0.0776-0.0534-3.4252 4.7142c-1.8836 2.5929-3.4294 4.7317-3.4352 4.7525-0.005 0.0213 0.83107 0.64969 1.859 1.3965 1.0279 0.74685 1.8819 1.3574 1.8974 1.3569 0.0154-0.00041 1.5662-2.1184 3.4456-4.7062 1.8798-2.5879 3.4223-4.7221 3.4282-4.7426 0.006-0.0204-0.80482-0.62841-1.8014-1.3507-0.99705-0.72267-1.8477-1.3377-1.8907-1.3673zm-38.368 4.7543c-0.42409 0.005-0.9591 0.0129-1.1884 0.0192-0.22935 0.006-0.81105 0.0309-1.2927 0.055-0.48164 0.0246-1.2039 0.0726-1.6054 0.10592-0.40115 0.0338-1.0676 0.0992-1.4804 0.14553-0.41283 0.0463-1.0225 0.12218-1.3552 0.16888-0.33235 0.0467-0.9891 0.14887-1.4595 0.22727-0.46996 0.0784-1.2206 0.21684-1.668 0.30774-0.44702 0.0909-1.1038 0.23269-1.4595 0.31484-0.35528 0.0826-1.0404 0.25437-1.522 0.38198-0.48163 0.12801-1.3261 0.36987-1.8765 0.53834-0.55044 0.16847-1.2164 0.38073-1.4804 0.47205-0.26354 0.0913-0.7698 0.2723-1.1246 0.40198-0.35488 0.12969-1.0388 0.39407-1.5191 0.58797-0.4808 0.19391-1.2222 0.50624-1.6484 0.69389-0.42575 0.18765-1.3465 0.62675-2.0462 0.97575-0.69973 0.34902-1.638 0.83857-2.085 1.0884-0.44702 0.24936-1.151 0.65719-1.5638 0.9057-0.41283 0.24895-1.1634 0.72391-1.668 1.0558-0.50457 0.33235-1.1705 0.78315-1.4804 1.0021-0.30941 0.21935-0.9291 0.67512-1.3761 1.0133-0.44702 0.3386-1.0571 0.8148-1.3552 1.0588-0.29816 0.24353-0.83272 0.69264-1.1884 0.99705-0.35528 0.30483-0.91823 0.80483-1.251 1.1113-0.33235 0.30607-0.9207 0.86737-1.3073 1.2468-0.38655 0.37947-1.027 1.0371-1.4228 1.4616-0.39615 0.42409-0.93405 1.0154-1.1951 1.3136-0.26105 0.29815-0.72933 0.85155-1.0409 1.2302-0.31108 0.37822-0.79687 0.98827-1.0792 1.3552-0.28231 0.36696-0.7677 1.0238-1.0788 1.4595-0.31067 0.43576-0.81188 1.1676-1.1138 1.6263-0.30191 0.4587-0.77018 1.1997-1.04 1.6472-0.27022 0.44702-0.70556 1.1976-0.96743 1.668-0.26229 0.46996-0.6893 1.2769-0.94867 1.7931-0.25979 0.51582-0.63593 1.2944-0.83565 1.7293-0.20016 0.43494-0.51333 1.148-0.69639 1.5846s-0.50749 1.2627-0.72099 1.8361c-0.2135 0.57337-0.52959 1.4741-0.70306 2.0016-0.17306 0.5275-0.41992 1.3248-0.54794 1.7722-0.12844 0.44702-0.34361 1.2539-0.47872 1.7931-0.1351 0.53918-0.34069 1.4437-0.45661 2.0104-0.11593 0.5667-0.27648 1.4207-0.35612 1.8974-0.0801 0.47705-0.19182 1.2139-0.24853 1.6384-0.0567 0.42409-0.14095 1.1468-0.18765 1.6054-0.0463 0.4587-0.10383 1.0871-0.12761 1.397-0.0242 0.30941-0.0621 0.9195-0.0851 1.3552-0.0225 0.43576-0.0413 1.5804-0.0413 2.5437-0.00042 0.9633 0.0183 2.0984 0.0413 2.5228 0.0233 0.42408 0.0709 1.1372 0.10675 1.5846 0.0354 0.44702 0.10134 1.1414 0.14637 1.5429 0.045 0.40115 0.11051 0.9453 0.14595 1.2093 0.0355 0.26354 0.1201 0.8265 0.18807 1.251 0.0675 0.42409 0.18974 1.1184 0.27105 1.5429 0.0813 0.42408 0.21351 1.0621 0.29399 1.4178 0.0805 0.35528 0.23894 1.0179 0.35278 1.4724 0.11384 0.45453 0.31067 1.1864 0.43743 1.6263 0.12677 0.43993 0.37238 1.2318 0.54627 1.7594 0.17348 0.5275 0.46204 1.3561 0.64135 1.8415 0.17931 0.48539 0.44702 1.1797 0.59506 1.5429 0.14803 0.3632 0.41366 0.98873 0.59005 1.3903 0.1764 0.40115 0.56337 1.2256 0.86025 1.8319 0.29649 0.6059 0.6918 1.3849 0.87818 1.7306 0.1864 0.34569 0.45078 0.82523 0.58797 1.0663 0.13719 0.24102 0.43827 0.75352 0.66845 1.1397l0.41908 0.70139-0.23977 3.552c-0.13178 1.9532-0.25228 3.6575-0.26771 3.7868l-0.0284 0.23519-1.2668-1.7476c-0.69682-0.9612-1.2806-1.756-1.2969-1.7664-0.0163-0.01-2.1484 1.5204-4.738 3.4015-2.5892 1.8807-4.7142 3.437-4.7212 3.4582-0.008 0.0212 0.60048 0.8832 1.351 1.9149 0.7506 1.0321 1.3815 1.8661 1.4015 1.8536 0.02-0.0121 2.1017-1.5237 4.6258-3.3585 2.5241-1.8344 4.5995-3.326 4.6116-3.3139s-0.55086 8.4158-1.251 18.674c-0.69973 10.259-1.2602 18.664-1.2452 18.678 0.015 0.0142 1.0567 0.0955 2.3148 0.18098 1.2581 0.0855 2.301 0.1397 2.3173 0.12009 0.0163-0.0192 1.2456-17.881 2.7322-39.692 1.4862-21.812 2.7289-39.901 2.7618-40.198 0.0329-0.29815 0.11342-0.86235 0.17973-1.2539 0.0659-0.39155 0.16972-0.93577 0.23018-1.2093 0.0609-0.27355 0.19266-0.79769 0.29315-1.1647 0.1005-0.36696 0.27856-0.94867 0.39574-1.2927s0.31691-0.88823 0.44368-1.2093c0.12719-0.32109 0.427-0.98745 0.66678-1.4804 0.23977-0.49289 0.56963-1.1313 0.73309-1.4178 0.16346-0.2869 0.44076-0.74685 0.61632-1.0225 0.17557-0.27564 0.4833-0.73184 0.68388-1.0133 0.20017-0.2819 0.55253-0.7481 0.78233-1.0363 0.22977-0.28816 0.63884-0.77018 0.90907-1.0717 0.27064-0.30107 0.74268-0.79185 1.0492-1.09 0.3065-0.29857 0.71682-0.68471 0.91155-0.8586 0.19516-0.17347 0.55586-0.47789 0.8019-0.67637 0.24645-0.19808 0.63092-0.49581 0.85485-0.66137 0.22435-0.16513 0.69805-0.49164 1.0538-0.72474 0.3557-0.23352 0.8811-0.56045 1.1676-0.72684 0.2869-0.16638 0.84983-0.46746 1.251-0.66886 0.40157-0.20142 0.93615-0.45411 1.1884-0.5617 0.25229-0.108 0.59005-0.24812 0.7506-0.31233 0.16055-0.0638 0.53584-0.20141 0.834-0.30566 0.29816-0.10383 0.76432-0.25646 1.0358-0.3386 0.27189-0.0822 0.75016-0.21351 1.0634-0.29191 0.31316-0.0784 0.8682-0.20099 1.2331-0.2723 0.36487-0.0713 1.0216-0.17472 1.4595-0.22977 0.43785-0.055 1.0838-0.1201 1.4354-0.14428 0.35153-0.0242 1.0229-0.0442 1.492-0.0442 0.47329 0 1.1234 0.0284 1.4608 0.0638 0.33444 0.035 0.80775 0.10175 1.0516 0.14804 0.24395 0.0467 0.6597 0.13886 0.92325 0.20558 0.26397 0.0667 0.69556 0.19474 0.95911 0.28481 0.26396 0.0897 0.62966 0.22352 0.81314 0.2965 0.18348 0.0734 0.58714 0.26062 0.89655 0.41616 0.30984 0.15512 0.74143 0.39032 0.9591 0.52251 0.2181 0.13218 0.5838 0.37363 0.81315 0.53667 0.22935 0.16305 0.63301 0.47747 0.89655 0.69848 0.26397 0.22101 0.69765 0.62841 0.9645 0.90487 0.26647 0.27689 0.64802 0.7064 0.84773 0.95453 0.19933 0.24853 0.8724 1.2155 1.4958 2.1492 0.623 0.93367 1.1426 1.6976 1.1539 1.6976 0.0117 0 0.53085-0.76395 1.1538-1.6976 0.62342-0.93368 1.2965-1.9006 1.4958-2.1492 0.19974-0.24812 0.57671-0.67304 0.83775-0.9441 0.26103-0.27063 0.6355-0.63051 0.83152-0.79943 0.19641-0.16888 0.57379-0.4687 0.83902-0.66678 0.26522-0.19765 0.70056-0.49164 0.96705-0.6526 0.26646-0.16138 0.70974-0.40574 0.98498-0.54335 0.27522-0.13761 0.66928-0.32026 0.8757-0.40575 0.20641-0.0859 0.59131-0.22893 0.85485-0.31858 0.26396-0.0892 0.69556-0.21726 0.9591-0.28356 0.26396-0.0667 0.6205-0.1497 0.7923-0.18432 0.17222-0.0346 0.54752-0.0967 0.834-0.13803 0.42034-0.06 0.7923-0.0742 1.9182-0.0734 1.0388 0.001 1.5734 0.0204 2.085 0.0751 0.37822 0.0405 0.97913 0.11842 1.3352 0.17306 0.35571 0.0546 0.95663 0.16596 1.3348 0.24728 0.37822 0.0817 0.96495 0.22393 1.3031 0.31692 0.3386 0.0926 0.91072 0.26813 1.2718 0.39031 0.36112 0.12176 0.95662 0.34111 1.3235 0.48747 0.36655 0.14637 1.1072 0.48539 1.6463 0.75353 0.53918 0.26771 1.2427 0.64509 1.5638 0.8382 0.32109 0.19307 0.72475 0.44244 0.89655 0.55419 0.17222 0.11176 0.53418 0.36028 0.8052 0.55252 0.27063 0.19224 0.73016 0.5396 1.0216 0.7719 0.29106 0.23227 0.70765 0.58088 0.92535 0.77438 0.21809 0.1939 0.63676 0.5888 0.9312 0.8778 0.2944 0.28898 0.75682 0.7719 1.0283 1.073 0.27106 0.30149 0.68056 0.78352 0.91035 1.0717 0.22977 0.28815 0.57546 0.74518 0.7677 1.0158 0.19266 0.27105 0.5004 0.72683 0.68388 1.0137 0.1839 0.28648 0.46788 0.75563 0.63134 1.0425 0.16305 0.28648 0.49289 0.9249 0.73267 1.4178 0.23977 0.49289 0.5396 1.1593 0.66636 1.4804 0.12678 0.32109 0.31734 0.83693 0.42326 1.1468 0.10592 0.30983 0.24686 0.7506 0.31358 0.97995 0.0667 0.22935 0.18682 0.67971 0.26688 1.0008 0.0801 0.32109 0.19433 0.8361 0.25396 1.1443 0.0593 0.30858 0.14344 0.80565 0.18682 1.105 0.0438 0.2994 0.10132 0.7602 0.12843 1.0241 0.0271 0.26355 1.2631 18.282 2.746 40.04 1.4833 21.758 2.71 39.574 2.7263 39.59 0.0158 0.0163 1.0663-0.0417 2.3336-0.12843 1.2676-0.0863 2.3081-0.16013 2.3127-0.16347 0.005-0.003-0.56545-8.409-1.2656-18.679-0.70014-10.27-1.2639-18.682-1.2523-18.694 0.0117-0.0117 2.0866 1.4799 4.6112 3.3147 2.5241 1.8348 4.6066 3.3464 4.6274 3.3593 0.0204 0.0129 0.65761-0.82943 1.4153-1.8715l1.3782-1.8944-4.6988-3.4132c-2.5841-1.8773-4.7204-3.4264-4.7471-3.4427-0.0321-0.0192-0.50082 0.59089-1.3344 1.7368l-1.2856 1.7668-0.0284-0.23352c-0.0154-0.12886-0.13594-1.8323-0.26771-3.7864l-0.23978-3.552 0.43035-0.7185c0.23685-0.39489 0.63592-1.0858 0.88695-1.535 0.25145-0.44952 0.7539-1.4174 1.1168-2.1513 0.36279-0.73392 0.7998-1.6534 0.9708-2.0433 0.17139-0.38989 0.43368-1.0091 0.58338-1.3761 0.1497-0.36696 0.42201-1.0708 0.60507-1.5638 0.18306-0.49331 0.4833-1.3565 0.6672-1.9182 0.18431-0.56211 0.43827-1.3878 0.56503-1.8348 0.12677-0.44744 0.31484-1.151 0.41825-1.5638 0.10342-0.41283 0.26271-1.0884 0.35445-1.5012 0.0913-0.41283 0.2231-1.0508 0.29232-1.4178 0.0697-0.36696 0.16388-0.89235 0.20934-1.1676 0.0459-0.27523 0.1301-0.82898 0.18723-1.2302 0.0575-0.40157 0.1422-1.0772 0.18848-1.5012 0.0463-0.4245 0.11218-1.1092 0.14595-1.522 0.0342-0.41284 0.0838-1.1872 0.1105-1.7214 0.0305-0.60924 0.0404-1.7343 0.0271-3.0232-0.0134-1.279-0.0467-2.3902-0.0884-2.949-0.0371-0.49332-0.10508-1.2627-0.15096-1.7097-0.0463-0.44745-0.12218-1.1042-0.16847-1.4595-0.0463-0.3557-0.15887-1.1018-0.2502-1.6584-0.0917-0.55669-0.25103-1.4295-0.35445-1.939-0.10341-0.50999-0.30858-1.4149-0.45577-2.0112-0.1472-0.59631-0.37322-1.4503-0.50207-1.8974-0.12886-0.44744-0.38531-1.2731-0.57004-1.8348-0.18473-0.56212-0.4904-1.4345-0.67971-1.9391-0.18932-0.50456-0.43202-1.1334-0.54002-1.3969-0.10759-0.26355-0.38572-0.91118-0.61841-1.4387-0.23227-0.5275-0.67971-1.4753-0.99457-2.1058-0.31484-0.63092-0.78728-1.5316-1.0496-2.0016-0.26229-0.47037-0.69805-1.221-0.96825-1.668-0.27063-0.44744-0.72558-1.1697-1.0112-1.6054-0.28565-0.43576-0.8073-1.196-1.1593-1.6888-0.35154-0.49289-0.88778-1.2155-1.1909-1.6054-0.30316-0.38989-0.84068-1.0562-1.1947-1.4803-0.35403-0.42451-0.95489-1.1188-1.3352-1.5429-0.38072-0.4245-1.2093-1.2881-1.841-1.9198-0.63175-0.63133-1.4303-1.4011-1.7743-1.7105-0.34403-0.309-0.87863-0.77895-1.1885-1.0438-0.30983-0.26521-0.85357-0.71598-1.2093-1.0021-0.35528-0.28607-0.94657-0.74518-1.3135-1.0204-0.36696-0.27521-0.89235-0.66177-1.1676-0.85815-0.27522-0.19682-0.94118-0.64885-1.4804-1.0041-0.53918-0.3557-1.3552-0.87149-1.814-1.1468-0.4587-0.27479-1.1438-0.67179-1.522-0.88192-0.37821-0.20975-1.2039-0.64218-1.8348-0.96037-0.6305-0.31818-1.4657-0.72308-1.8556-0.89986-0.3899-0.17639-1.0467-0.46244-1.4595-0.63467-0.41283-0.17263-1.1163-0.45328-1.5638-0.62424-0.44702-0.17098-1.2823-0.4683-1.8556-0.66095-0.57337-0.19265-1.399-0.45495-1.8348-0.58338-0.43577-0.12802-1.2614-0.35237-1.8348-0.49831-0.57338-0.14596-1.399-0.34195-1.8348-0.43535-0.43577-0.0934-1.1447-0.23477-1.5754-0.31483-0.43035-0.0797-1.1622-0.201-1.6263-0.26939-0.4637-0.0684-1.1526-0.16138-1.5312-0.20684-0.37821-0.0455-0.99749-0.11133-1.3761-0.14636-0.37822-0.035-0.96953-0.0834-1.3136-0.10676-0.34402-0.0238-1.1414-0.0617-1.7722-0.0842-0.6305-0.0225-1.4937-0.0375-1.9182-0.0329zm0.5838 4.7267c1.1355 0.007 2.3269 0.0325 2.648 0.0571 0.32109 0.0242 0.90277 0.073 1.2927 0.108 0.38989 0.035 1.0842 0.1105 1.5429 0.16763 0.4587 0.0567 1.1814 0.16012 1.6054 0.22893 0.42451 0.0692 1.025 0.17347 1.3344 0.23185 0.30983 0.0584 0.90075 0.18057 1.3136 0.27148 0.41283 0.0909 1.1446 0.26646 1.6263 0.38989 0.48164 0.12385 1.2794 0.34736 1.7722 0.49665 0.49289 0.1497 1.1968 0.37447 1.5638 0.49915 0.36696 0.1251 1.005 0.35403 1.4178 0.50874 0.41283 0.15471 1.0976 0.42659 1.522 0.60423 0.42451 0.17764 1.0717 0.45995 1.4386 0.62716 0.36696 0.16722 1.1176 0.53168 1.668 0.81068 0.55044 0.27856 1.2635 0.65302 1.5846 0.83235 0.32109 0.17931 0.9045 0.51874 1.2964 0.75352 0.3924 0.23519 1.027 0.62925 1.4111 0.87525 0.38405 0.24645 1.058 0.70181 1.4974 1.012 0.43953 0.31067 0.98663 0.70556 1.216 0.87818 0.22935 0.17263 0.72683 0.56086 1.105 0.8628 0.37822 0.30232 0.96908 0.79102 1.3127 1.0867 0.34319 0.29565 0.85942 0.75308 1.1467 1.0162 0.2869 0.26313 0.8382 0.78855 1.2248 1.1676 0.38614 0.37905 0.98955 0.99833 1.3402 1.3769 0.35113 0.37821 0.86693 0.95032 1.1472 1.2706 0.28023 0.32067 0.76643 0.9024 1.0813 1.2927 0.31441 0.39073 0.79687 1.0104 1.0721 1.3774 0.2748 0.36696 0.63217 0.85485 0.79395 1.0842 0.16179 0.22935 0.54251 0.7923 0.84569 1.251 0.30358 0.4587 0.78188 1.2184 1.0629 1.6888 0.28065 0.46995 0.66637 1.1363 0.85695 1.4804 0.19016 0.34402 0.58506 1.1038 0.87735 1.6888 0.29232 0.58463 0.71016 1.467 0.92783 1.9599 0.21809 0.49289 0.52292 1.2155 0.67762 1.6054 0.15472 0.38989 0.41951 1.0934 0.58882 1.5638 0.16929 0.46996 0.41908 1.2114 0.55502 1.6472 0.13636 0.43576 0.33193 1.0925 0.43493 1.4595 0.10258 0.36696 0.2527 0.92992 0.33318 1.251 0.0805 0.32109 0.22101 0.9216 0.31275 1.3344 0.0917 0.41283 0.23311 1.1163 0.31483 1.5638 0.0813 0.44702 0.2035 1.1884 0.27106 1.6472 0.0676 0.4587 0.16138 1.181 0.2085 1.6054 0.0471 0.42409 0.11343 1.1188 0.1472 1.5437 0.0337 0.42451 0.0834 1.2689 0.10967 1.8765 0.0292 0.6622 0.038 1.6801 0.023 2.5429-0.0142 0.79102-0.0542 1.8419-0.0892 2.3352-0.035 0.49289-0.10176 1.2622-0.14804 1.7097-0.0467 0.44702-0.13177 1.151-0.18932 1.5638-0.0575 0.41283-0.14219 0.97575-0.18848 1.251-0.0459 0.27522-0.14929 0.8382-0.22977 1.251-0.0805 0.41283-0.2306 1.1163-0.33361 1.5638-0.1034 0.44702-0.29148 1.1976-0.41824 1.668-0.12677 0.46996-0.34987 1.2393-0.49582 1.7097-0.14553 0.46996-0.38072 1.183-0.5225 1.5846-0.14136 0.40115-0.38531 1.058-0.54126 1.4595-0.15596 0.40115-0.33694 0.8607-0.40157 1.0208l-0.11801 0.29107-0.0308-0.20767c-0.0171-0.11426-0.39782-5.6216-0.8457-12.238-0.44827-6.617-0.8436-12.34-0.87817-12.718-0.035-0.37863-0.11051-1.0166-0.16847-1.4178-0.0575-0.40157-0.16847-1.0508-0.24603-1.4432-0.0776-0.39281-0.21726-1.0158-0.30983-1.3844-0.093-0.36904-0.26354-0.98287-0.37905-1.3644-0.11552-0.38113-0.31025-0.9687-0.43244-1.3052-0.12217-0.33652-0.3215-0.85568-0.44243-1.1539-0.12135-0.29815-0.36696-0.85815-0.54627-1.2448-0.1789-0.38656-0.48872-1.0058-0.68805-1.3761-0.19975-0.3703-0.50332-0.9078-0.67513-1.1947-0.17138-0.28647-0.4662-0.756-0.6551-1.0425-0.1889-0.28689-0.47121-0.69972-0.62717-0.9174-0.15596-0.21809-0.46704-0.63217-0.69097-0.9207-0.22435-0.28856-0.64635-0.80272-0.9387-1.1426-0.2919-0.34027-0.81315-0.90825-1.158-1.2627-0.34486-0.35445-0.89033-0.88237-1.2118-1.1734-0.32192-0.29106-0.75389-0.6697-0.96037-0.8415-0.20641-0.1718-0.54835-0.44827-0.7602-0.61341-0.21142-0.16554-0.59631-0.45327-0.85485-0.63967s-0.70431-0.49331-0.9912-0.68263c-0.28648-0.18931-0.7581-0.48497-1.0471-0.65803-0.28939-0.17263-0.74934-0.43534-1.0216-0.5838-0.27272-0.14845-0.70223-0.37321-0.95453-0.49956-0.25228-0.12594-0.8244-0.38907-1.2718-0.5838-0.44702-0.19516-1.123-0.46746-1.5012-0.60507-0.37822-0.13803-0.92242-0.3261-1.2093-0.41867-0.28648-0.0926-0.84022-0.25395-1.2302-0.3582-0.38989-0.10467-0.96202-0.24603-1.2718-0.31441-0.30983-0.0688-0.89115-0.18015-1.2927-0.24812-0.40115-0.068-0.96202-0.15304-1.2464-0.18931-0.28398-0.0363-0.87488-0.0963-1.3136-0.13386-0.50791-0.0434-1.2656-0.0684-2.0896-0.0696-0.94912-0.002-1.4616 0.0167-1.9291 0.0688-0.34986 0.0388-0.91868 0.11843-1.2639 0.17681-0.3457 0.0584-0.92745 0.17973-1.2932 0.2698-0.36571 0.0901-0.9036 0.24102-1.196 0.33485-0.29232 0.0942-0.81855 0.28398-1.1697 0.422-0.35112 0.13761-0.95161 0.40616-1.3344 0.59673-0.3828 0.19016-0.96075 0.50582-1.2848 0.70098-0.324 0.19516-0.81734 0.51583-1.0971 0.71265-0.27939 0.19641-0.7456 0.55002-1.0363 0.78518-0.29023 0.23518-0.7869 0.67929-1.1034 0.98662l-0.57546 0.55878-0.53084-0.51833c-0.2919-0.28523-0.69973-0.66011-0.90615-0.83318-0.20642-0.17347-0.56295-0.45661-0.7923-0.62967-0.22935-0.17263-0.64218-0.4637-0.9174-0.64677-0.27522-0.18264-0.70515-0.44994-0.95535-0.59422-0.25062-0.14387-0.73851-0.40074-1.0842-0.57004-0.34275-0.17625-0.9075-0.42525-1.251-0.56025-0.34425-0.135-0.86325-0.3225-1.1535-0.41625-0.29025-0.093-0.78675-0.234-1.1048-0.3135-0.318-0.0788-0.774-0.1815-1.0155-0.228-0.24061-0.0467-0.63467-0.11301-0.8757-0.14678-0.24061-0.0338-0.66303-0.0851-0.93825-0.11384-0.29315-0.0305-1.0275-0.0509-1.7722-0.0496-0.7977 0.002-1.5709 0.0283-2.0733 0.0709-0.44077 0.0375-1.0225 0.0967-1.2927 0.13135-0.27022 0.0346-0.78188 0.11051-1.1376 0.16889-0.35528 0.058-1.0308 0.19056-1.5012 0.2944-0.46996 0.10425-1.2018 0.2894-1.6263 0.412-0.42409 0.12301-1.0529 0.32026-1.397 0.4391-0.34403 0.11843-0.94785 0.34403-1.3419 0.50123-0.39365 0.15721-1.0479 0.43994-1.4533 0.62842-0.40532 0.18848-1.0963 0.53876-1.5354 0.77813-0.4391 0.23977-1.1321 0.64468-1.5396 0.89985-0.40782 0.2552-1.0267 0.66845-1.3756 0.91785-0.34902 0.24936-0.83527 0.61173-1.0804 0.80482-0.24519 0.19307-0.71766 0.58338-1.0492 0.86738-0.33194 0.28356-0.91658 0.82147-1.2989 1.1947-0.3828 0.37364-0.90862 0.91448-1.1689 1.2026-0.26021 0.28815-0.6451 0.72975-0.85568 0.9816-0.21016 0.25228-0.60507 0.75435-0.87735 1.1168-0.27188 0.36195-0.7089 0.98122-0.97117 1.3761-0.26188 0.39448-0.63884 0.9966-0.83775 1.3377s-0.52793 0.94155-0.73142 1.3344c-0.20307 0.39281-0.49539 0.99577-0.64885 1.3398-0.15346 0.34402-0.3728 0.85987-0.48747 1.1468-0.1151 0.28647-0.29232 0.75562-0.39449 1.0425-0.10216 0.28647-0.27813 0.8265-0.39072 1.1993-0.11259 0.37322-0.28106 0.98078-0.37405 1.3507-0.093 0.36987-0.23269 0.9933-0.31025 1.3861-0.0776 0.3924-0.1889 1.0417-0.24686 1.4432-0.058 0.40115-0.13344 1.0392-0.16805 1.4178-0.0346 0.37821-0.42951 6.1016-0.8778 12.718-0.44786 6.6165-0.8286 12.124-0.8457 12.239l-0.0309 0.2085-0.30816-0.77145c-0.1693-0.42451-0.43743-1.1264-0.59589-1.5604-0.15804-0.43368-0.40866-1.1701-0.55711-1.6359-0.14804-0.46621-0.36404-1.1805-0.47955-1.5879-0.11593-0.40783-0.30483-1.1259-0.42034-1.5958-0.11551-0.47038-0.31066-1.3615-0.43368-1.9808-0.12301-0.61925-0.27147-1.4357-0.32985-1.814-0.0584-0.37864-0.15304-1.058-0.21058-1.51-0.0575-0.45202-0.14178-1.2686-0.18765-1.814-0.0459-0.54585-0.10217-1.4145-0.1251-1.9303-0.0229-0.51625-0.0417-1.3982-0.0417-1.9599 0-0.56212 0.0183-1.4344 0.0409-1.939 0.0225-0.50457 0.0701-1.2836 0.10592-1.7306 0.0359-0.44745 0.10258-1.151 0.14845-1.5638 0.0459-0.41283 0.1397-1.1355 0.20892-1.6054 0.0688-0.47038 0.19099-1.2114 0.27105-1.6472 0.0801-0.43577 0.21184-1.0925 0.29274-1.4595 0.0805-0.36696 0.23101-1.005 0.33402-1.4178 0.10299-0.41283 0.23435-0.9195 0.29232-1.1259 0.058-0.20642 0.22809-0.77895 0.3778-1.2718 0.15012-0.4929 0.41283-1.2906 0.58463-1.7722 0.17139-0.48164 0.42909-1.1759 0.57338-1.5429 0.14386-0.36696 0.40282-0.99578 0.57504-1.397 0.17263-0.40158 0.50082-1.1246 0.72975-1.6071 0.22893-0.48289 0.59005-1.2051 0.8019-1.6054 0.21225-0.40074 0.57796-1.0658 0.81232-1.4787 0.23478-0.41283 0.60048-1.0321 0.8136-1.3761 0.21267-0.34403 0.63134-0.99165 0.9303-1.4386 0.29899-0.44745 0.7406-1.0855 0.98123-1.4178 0.24061-0.33277 0.62592-0.84863 0.85612-1.1468 0.22977-0.29816 0.6255-0.79523 0.879-1.105 0.25354-0.30984 0.71558-0.85403 1.0267-1.2093 0.31108-0.35571 0.86692-0.96623 1.2347-1.3569 0.36822-0.39073 1.0329-1.06 1.4779-1.487 0.44452-0.42742 1.1088-1.043 1.4758-1.3678 0.36696-0.32526 1.005-0.86858 1.4178-1.2072 0.41283-0.33903 1.1072-0.88365 1.5429-1.2106 0.43577-0.32734 1.1396-0.83355 1.5638-1.1254 0.42451-0.29232 1.0813-0.72766 1.4595-0.96787 0.37864-0.2402 0.96038-0.59757 1.2927-0.79395 0.33235-0.19641 0.85815-0.49707 1.1676-0.66846 0.30984-0.17097 0.91028-0.4908 1.3344-0.71056 0.42451-0.21935 1.1655-0.58046 1.6472-0.80145 0.48164-0.22143 1.1572-0.52083 1.5012-0.6647 0.34403-0.14428 0.804-0.33276 1.0216-0.41825 0.2181-0.0859 0.71516-0.27397 1.105-0.41742 0.3899-0.14386 1.0638-0.37738 1.4974-0.51833 0.43368-0.14136 1.0809-0.34194 1.4386-0.44577 0.35737-0.10342 1.0066-0.28022 1.4424-0.39281 0.43577-0.11217 1.0458-0.2598 1.3552-0.32818 0.30984-0.068 0.84443-0.18014 1.1884-0.24937 0.34403-0.0688 0.90698-0.17263 1.251-0.23101 0.34403-0.058 0.9633-0.15263 1.3761-0.20976 0.41283-0.0571 1.0979-0.14094 1.522-0.18639 0.42451-0.045 1.2031-0.11134 1.7306-0.14762 0.52751-0.0359 1.0904-0.0721 1.251-0.0801 0.16055-0.008 1.221-0.009 2.356-0.002zm53.337 5.0803-0.0676-0.0876-4.5232 3.291c-2.4882 1.8102-4.6216 3.3611-4.7413 3.4465l-0.21726 0.15554 1.364 1.8824c0.7506 1.0354 1.3794 1.8836 1.3982 1.8848 0.0184 0.002 2.1538-1.5392 4.745-3.4236 3.2501-2.3632 4.7046-3.4444 4.6892-3.4844-0.0121-0.0325-0.59797-0.85027-1.301-1.8177-0.70347-0.96787-1.309-1.7985-1.3461-1.8469zm-107.36-0.0585c-0.0133 0-0.0963 0.0984-0.18515 0.21893-0.0884 0.12051-0.69055 0.9474-1.3382 1.8381-0.6476 0.89033-1.1868 1.6438-1.1984 1.6747-0.0142 0.0367 1.3456 1.0492 3.9536 2.944 2.186 1.5888 4.3151 3.1363 4.7313 3.4394l0.75645 0.55127 1.3636-1.874c0.74977-1.0308 1.3548-1.8969 1.344-1.9244s-2.1309-1.5842-4.7113-3.459c-2.58-1.8742-4.7025-3.4088-4.716-3.4088zm-9.5858 18.846-0.7395-0.23849-0.50325 1.5487c-0.27647 0.85156-0.60423 1.8544-0.72767 2.228-0.15554 0.47079-0.20933 0.68554-0.17471 0.69805 0.0271 0.01 2.5341 0.82568 5.5707 1.8123 3.0366 0.98708 5.5269 1.7889 5.5336 1.7819 0.007-0.007 0.33485-1.0033 0.7285-2.2139 0.39364-1.2109 0.69972-2.2159 0.67971-2.233-0.0195-0.0165-2.1938-0.73125-4.8315-1.5878-2.637-0.8565-5.1278-1.665-5.535-1.7955zm127.16-0.231c-0.0192-0.003-2.5154 0.80273-5.5469 1.7918-3.0316 0.9891-5.524 1.811-5.539 1.826-0.015 0.0154 0.29691 1.0246 0.69305 2.243 0.41867 1.2873 0.73893 2.208 0.76433 2.1984 0.0242-0.009 2.512-0.81817 5.5277-1.7985 3.0162-0.97995 5.504-1.7944 5.5294-1.8094 0.0304-0.0179-0.19557-0.76853-0.67387-2.236-0.39573-1.2147-0.73517-2.2118-0.7548-2.2155zm-63.938 13.869c-0.0176 0-0.48789 0.80227-1.045 1.7827-0.55711 0.9804-1.2002 2.0921-1.4287 2.4707-0.22852 0.37821-0.61758 0.98827-0.864 1.3552-0.24686 0.36696-0.6501 0.93908-0.897 1.2719-0.24686 0.33234-0.59923 0.7923-0.78352 1.0216-0.1839 0.22936-0.54377 0.66095-0.79943 0.95911-0.2552 0.29815-0.7456 0.84232-1.0896 1.2093-0.34403 0.36696-0.90532 0.9303-1.2477 1.2523-0.34236 0.32192-0.84773 0.78188-1.123 1.0225-0.27523 0.24019-0.73476 0.62591-1.0216 0.85695-0.28648 0.2306-0.77438 0.60798-1.0842 0.83775-0.30941 0.23019-0.88192 0.63467-1.2718 0.89865-0.3899 0.26438-1.0842 0.70515-1.5429 0.97995-0.45869 0.27522-1.1576 0.6722-1.5525 0.88282-0.39532 0.21017-1.0366 0.53126-1.4249 0.71307-0.38823 0.18181-0.96825 0.44285-1.289 0.58004-0.32067 0.1372-0.9837 0.39866-1.4737 0.58088-0.48956 0.18223-1.1626 0.41659-1.495 0.52084-0.33235 0.10383-0.80145 0.24519-1.0425 0.31442-0.24103 0.0688-0.74726 0.20266-1.1259 0.29773-0.37822 0.0947-1.1008 0.25437-1.6054 0.35404-0.50457 0.10008-1.2456 0.22976-1.6472 0.28773-0.40115 0.0584-1.1614 0.15137-1.6888 0.20725-0.5275 0.0555-2.2409 0.22852-3.8072 0.38447l-2.8485 0.28356 0.0171 7.779c0.0117 5.2379 0.0325 7.956 0.0638 8.3212 0.0258 0.29816 0.0763 0.84233 0.11217 1.2093 0.0363 0.36696 0.11217 0.9954 0.1693 1.397 0.0571 0.40115 0.16055 1.0392 0.2306 1.4178 0.0696 0.37822 0.19975 1.0137 0.2894 1.4111 0.0897 0.39782 0.25854 1.0734 0.37572 1.5012 0.11676 0.42826 0.35904 1.2189 0.53793 1.7581 0.17848 0.53876 0.46579 1.3365 0.63801 1.7722 0.17263 0.43576 0.41117 1.0174 0.53084 1.2927 0.11968 0.27522 0.41117 0.89445 0.6476 1.3761 0.23644 0.48164 0.57463 1.1384 0.75143 1.4595 0.17681 0.32109 0.49081 0.86527 0.69764 1.2093 0.20725 0.34403 0.5984 0.95828 0.86948 1.3652 0.27105 0.40658 0.67429 0.98828 0.89655 1.2927 0.22226 0.30399 0.61341 0.81562 0.86902 1.1368 0.25562 0.32109 0.58547 0.72433 0.73309 0.89655 0.1472 0.1718 0.42283 0.48539 0.61257 0.69597l0.34486 0.38323 0.0104 11.543 0.0104 11.543h4.6704l0.0104-9.414 0.0104-9.4132 0.59422 0.43034c0.32693 0.23686 0.87863 0.62008 1.226 0.85238 0.34737 0.23226 0.957 0.61758 1.3552 0.85612 0.39782 0.23852 0.9795 0.57212 1.2927 0.7406l0.56963 0.3069 0.0934 0.35613c0.0513 0.19599 0.17264 0.59046 0.2698 0.87735 0.0967 0.28647 0.23644 0.67137 0.30983 0.85485 0.0734 0.18348 0.24395 0.55961 0.37905 0.8361 0.1347 0.27605 0.37989 0.72641 0.54461 1.0008 0.16471 0.27396 0.41241 0.6576 0.55044 0.85275 0.13803 0.19473 0.39281 0.5325 0.56629 0.7506 0.17347 0.21767 0.59756 0.67929 0.942 1.0254 0.34485 0.34611 0.85192 0.80775 1.1272 1.0262 0.27522 0.21851 0.69764 0.52876 0.93825 0.68972 0.24103 0.16096 0.60674 0.38989 0.81315 0.50916 0.20642 0.11884 2.4349 1.2472 4.9519 2.5074l4.577 2.2906 4.6595-2.3327c2.5629-1.2831 4.8664-2.4574 5.1187-2.61 0.25229-0.15221 0.66512-0.42493 0.9174-0.60591 0.25229-0.18139 0.67471-0.51457 0.93825-0.74142 0.26354-0.22644 0.6868-0.62717 0.93953-0.8907 0.25311-0.26313 0.60131-0.65553 0.77392-0.8715 0.17222-0.2156 0.42701-0.55212 0.56629-0.74685 0.13886-0.19516 0.3874-0.5788 0.55211-0.85275 0.16472-0.27439 0.40949-0.72475 0.54418-1.0008 0.13511-0.27648 0.31942-0.69014 0.41033-0.9195 0.0909-0.22935 0.24103-0.65178 0.33402-0.93825 0.093-0.2869 0.19932-0.64344 0.23685-0.79275l0.0679-0.27147 0.50791-0.27063c0.27897-0.14887 0.85485-0.47788 1.2798-0.731 0.42451-0.25354 1.0909-0.67387 1.4808-0.9345 0.38989-0.26104 0.94822-0.64843 1.2406-0.8619l0.53168-0.38781 0.0104 9.4118 0.0104 9.4118h4.6704l0.0104-11.542 0.0104-11.542 0.36487-0.40657c0.20058-0.22393 0.54461-0.62175 0.76478-0.88485 0.21976-0.26271 0.57296-0.7014 0.7848-0.97493 0.21183-0.27355 0.55002-0.72433 0.75142-1.0021 0.20142-0.27731 0.57213-0.8136 0.82395-1.1914 0.25229-0.3778 0.63176-0.97575 0.84405-1.329 0.21225-0.3532 0.56421-0.97245 0.7827-1.3761 0.21851-0.40366 0.47288-0.88402 0.56546-1.0676 0.0926-0.18348 0.32609-0.68096 0.51916-1.105 0.19349-0.42451 0.50165-1.1468 0.68555-1.6054 0.18348-0.4587 0.49081-1.3031 0.68221-1.8765 0.19182-0.57337 0.45161-1.4274 0.57755-1.8974 0.12593-0.47038 0.31316-1.2393 0.41658-1.7097 0.10342-0.47038 0.24478-1.1926 0.31441-1.6054 0.0701-0.41283 0.16431-1.0412 0.20976-1.397 0.0454-0.3557 0.11133-0.97492 0.1472-1.3761 0.0355-0.40157 0.083-1.1334 0.10591-1.6263 0.0242-0.5175 0.0417-3.924 0.0417-8.0595 0.00042-5.6933-0.0104-7.167-0.0517-7.1816-0.0288-0.01-1.5721-0.1693-3.4298-0.35403-1.8578-0.18515-3.6875-0.37405-4.0658-0.42034-0.37821-0.0463-0.96952-0.13094-1.3136-0.18765-0.34402-0.0572-0.94447-0.16847-1.3344-0.2477-0.38989-0.0788-1.0187-0.22017-1.397-0.31358-0.37821-0.093-0.88485-0.22559-1.1259-0.29482-0.2406-0.0688-0.7848-0.23852-1.2093-0.37738-0.4245-0.13845-1.0529-0.35571-1.397-0.48289-0.34402-0.12677-0.93532-0.36154-1.3136-0.52166-0.37821-0.15972-1.007-0.44119-1.397-0.62509-0.38989-0.18389-1.0091-0.49456-1.3761-0.69014-0.36696-0.19599-0.93907-0.51499-1.2718-0.70931-0.33234-0.19432-0.88612-0.53376-1.2302-0.7539-0.34402-0.22018-0.95827-0.63801-1.3648-0.92865-0.40657-0.29065-0.98827-0.72517-1.2927-0.96495-0.30441-0.24019-0.82732-0.67137-1.1626-0.95827-0.33485-0.28731-0.9057-0.80063-1.2686-1.1417-0.36279-0.34069-0.94118-0.91987-1.2852-1.2868-0.34361-0.36696-0.83445-0.91117-1.0896-1.2093-0.25562-0.29815-0.61549-0.72975-0.79935-0.9591-0.18431-0.22935-0.53668-0.6893-0.78353-1.0216-0.24687-0.33277-0.6501-0.90487-0.897-1.2718-0.24645-0.36696-0.6355-0.97702-0.864-1.3552-0.22893-0.37864-0.87195-1.4903-1.429-2.4707-0.55711-0.9804-1.0275-1.7827-1.0454-1.7827zm0.006 9.0502c0.015-0.00082 0.0359 0.0217 0.0471 0.0505 0.0113 0.0288 0.25979 0.37113 0.55252 0.76102 0.29274 0.38989 0.69306 0.9057 0.88988 1.1468 0.1964 0.24061 0.57879 0.69514 0.84982 1.0096 0.27064 0.31483 0.789 0.88695 1.1513 1.2718 0.36237 0.3853 0.95782 0.98415 1.3232 1.3311 0.36529 0.34736 0.89865 0.83857 1.1852 1.0921 0.2869 0.25312 0.76522 0.66054 1.0634 0.90488 0.29816 0.24437 0.87067 0.69222 1.2718 0.99495 0.40157 0.30274 0.85193 0.63592 1.0008 0.74059 0.14929 0.10467 0.58255 0.39823 0.9633 0.65219 0.3803 0.25437 1.0654 0.68555 1.522 0.95865 0.4562 0.27314 1.115 0.65052 1.4637 0.83857 0.34862 0.18849 1.0337 0.5371 1.522 0.77521 0.48872 0.23769 1.226 0.57671 1.6388 0.75352 0.41284 0.17681 1.1072 0.45704 1.5429 0.62342 0.43577 0.16596 1.196 0.43493 1.6888 0.59756 0.4929 0.16263 1.2639 0.39823 1.713 0.52333 0.44911 0.1251 1.2277 0.32235 1.7306 0.43869 0.5029 0.11592 1.2706 0.27606 1.7064 0.35529 0.43577 0.0796 1.1384 0.19306 1.5608 0.25269 0.42284 0.0596 1.502 0.18265 2.3978 0.27356 0.8961 0.0909 1.6442 0.16555 1.6626 0.16555s0.0263 2.5942 0.0176 5.765c-0.0137 5.0019-0.025 5.8559-0.0855 6.4531-0.0379 0.37822-0.10801 0.97538-0.15513 1.3261-0.0467 0.35111-0.13218 0.9045-0.1889 1.2302-0.0571 0.32568-0.17889 0.93405-0.27105 1.3515-0.0917 0.41783-0.25103 1.065-0.35403 1.4386-0.103 0.37363-0.27272 0.942-0.3778 1.2631-0.10509 0.32109-0.27564 0.81817-0.37864 1.105-0.10341 0.28647-0.28731 0.76522-0.40949 1.0634-0.12177 0.29815-0.32484 0.77189-0.45078 1.0521-0.12594 0.28064-0.44327 0.92819-0.70515 1.4386-0.26145 0.51082-0.67804 1.2664-0.92572 1.6792-0.24728 0.41283-0.66386 1.0658-0.92535 1.4515-0.26147 0.38531-0.67346 0.96413-0.91575 1.2856-0.24269 0.32151-0.67012 0.85988-0.95033 1.1964-0.28023 0.33652-0.72642 0.84607-0.99165 1.133-0.26479 0.28648-0.80812 0.84022-1.2068 1.2302-0.39865 0.3899-0.92198 0.879-1.163 1.0875-0.2406 0.20808-0.61591 0.52333-0.834 0.70014l-0.39615 0.32151-0.0275-0.76268c-0.015-0.41949-0.0584-0.98789-0.0963-1.2631-0.038-0.27522-0.11551-0.72016-0.17181-0.9891-0.0567-0.26855-0.17806-0.72308-0.2698-1.01-0.0917-0.28732-0.25103-0.72266-0.35361-0.96825-0.10301-0.24561-0.30775-0.67762-0.45537-0.96037-0.14762-0.28273-0.40782-0.72517-0.57838-0.98288-0.17014-0.2577-0.46662-0.66595-0.65844-0.90652-0.19182-0.24103-0.57421-0.66429-0.84945-0.94118-0.27564-0.27689-0.69556-0.65803-0.93322-0.8469-0.23811-0.1889-0.59465-0.45202-0.7923-0.58505-0.19808-0.13302-0.56295-0.35903-0.8115-0.50207-0.24812-0.14303-0.59548-0.32609-0.77145-0.40657-0.17598-0.0809-0.53376-0.23018-0.79523-0.33152-0.26146-0.10174-0.70264-0.24811-0.97995-0.32568-0.27772-0.0775-0.70139-0.17931-0.94245-0.22601-0.24061-0.0467-0.57838-0.10842-0.7506-0.13719-0.23894-0.0392-2.1813-0.055-8.2358-0.0663-5.4594-0.01-8.0722-0.00041-8.4022 0.0309-0.26354 0.0246-0.64843 0.073-0.85485 0.10675-0.20641 0.0342-0.50665 0.0922-0.6672 0.12843-0.16054 0.0367-0.48664 0.12219-0.72475 0.18974-0.23811 0.0679-0.64134 0.20516-0.89655 0.30441-0.2552 0.0997-0.59214 0.2402-0.74851 0.31192-0.1568 0.0722-0.45704 0.22601-0.6672 0.34236-0.21059 0.11592-0.5888 0.34611-0.84113 0.51165-0.25228 0.16513-0.65552 0.45871-0.89655 0.65178-0.2406 0.19306-0.66303 0.57629-0.93825 0.85192-0.27522 0.27564-0.64426 0.67888-0.82027 0.897-0.17597 0.21768-0.47621 0.63051-0.6672 0.9174-0.1914 0.28648-0.48206 0.78398-0.64635 1.105-0.1643 0.32109-0.37322 0.77145-0.46412 1.0008s-0.22518 0.60465-0.29858 0.834-0.1768 0.60465-0.23018 0.834c-0.0534 0.22935-0.12635 0.60465-0.1618 0.834-0.0359 0.22935-0.078 0.52-0.0934 0.64635-0.0159 0.12593-0.04 0.56295-0.0538 0.9708l-0.0254 0.74101-0.417-0.33735c-0.22935-0.18599-0.68889-0.5788-1.0216-0.87323-0.33235-0.29439-0.97163-0.9078-1.4199-1.3628-0.44828-0.45494-1.0112-1.0525-1.2514-1.3277-0.23978-0.27522-0.58797-0.68805-0.77273-0.9174-0.18514-0.22935-0.51333-0.65177-0.72892-0.93825-0.21558-0.2869-0.63675-0.8874-0.93577-1.3344-0.29941-0.44744-0.67721-1.0383-0.84023-1.3136-0.16305-0.27522-0.39406-0.67679-0.51291-0.89235-0.11926-0.21518-0.38238-0.72183-0.58505-1.1259-0.20266-0.40366-0.4808-0.9879-0.61758-1.2986-0.13719-0.31025-0.35278-0.8265-0.47913-1.1468-0.12635-0.32026-0.31525-0.82605-0.42034-1.1242-0.10467-0.29816-0.25687-0.75518-0.33819-1.0158-0.0809-0.26021-0.22226-0.74684-0.314-1.0809-0.0917-0.33443-0.23143-0.89985-0.31108-1.2572-0.0792-0.35694-0.19057-0.90277-0.2477-1.2122-0.0567-0.30983-0.14136-0.82568-0.18765-1.1468-0.0467-0.32109-0.11301-0.86528-0.14761-1.2093-0.0346-0.34403-0.0821-0.92535-0.10551-1.2919-0.0254-0.39573-0.0425-2.841-0.0425-6.0152 0-4.4164 0.01-5.3488 0.0555-5.3488 0.0305 0 0.70098-0.0659 1.4908-0.14637 0.78937-0.0801 1.7918-0.19307 2.2276-0.25103 0.43576-0.0575 1.1209-0.16138 1.522-0.23102 0.40157-0.0692 1.0396-0.19224 1.4178-0.27313 0.37864-0.0805 0.98827-0.22185 1.3552-0.31317 0.36696-0.0917 0.99165-0.2598 1.3878-0.37363 0.39657-0.11384 1.0629-0.32151 1.4804-0.46079 0.41783-0.13969 0.98497-0.33777 1.2602-0.43993 0.27522-0.10216 0.79732-0.30692 1.1601-0.45495 0.36279-0.14804 0.9537-0.40199 1.3131-0.56462 0.35945-0.16263 0.99165-0.46454 1.4044-0.67095 0.41325-0.20642 0.95745-0.48831 1.2098-0.62634 0.25228-0.13803 0.77767-0.43951 1.1676-0.6697 0.38989-0.23018 0.97162-0.5863 1.2927-0.79148 0.32109-0.20517 0.82777-0.54294 1.1259-0.75015 0.29815-0.20766 0.80482-0.5742 1.1259-0.81442 0.32109-0.24061 0.81855-0.62591 1.105-0.85613 0.2869-0.23019 0.64343-0.52292 0.7923-0.6501 0.14929-0.1276 0.52459-0.45662 0.834-0.73142 0.30983-0.27438 0.9858-0.92197 1.5028-1.4386 0.51666-0.51667 1.1751-1.2051 1.4632-1.53 0.28815-0.32442 0.70181-0.8031 0.9195-1.0634 0.21809-0.2602 0.62884-0.77437 0.91365-1.1426 0.28481-0.36821 0.61132-0.80355 0.726-0.96742 0.11467-0.1643 0.22059-0.29899 0.23518-0.30024zm-0.0834 42.538c4.8497-0.004 7.4705 0.009 7.7565 0.0384 0.23769 0.0242 0.6059 0.0797 0.81818 0.12384 0.21225 0.0438 0.55961 0.13761 0.77144 0.20767 0.21183 0.0705 0.59172 0.22893 0.84398 0.35236 0.25229 0.12302 0.61799 0.3311 0.81315 0.46204 0.19516 0.13053 0.51249 0.37154 0.70598 0.53543 0.19308 0.16346 0.49039 0.45661 0.66095 0.65135 0.17014 0.19433 0.43951 0.54794 0.59839 0.78562 0.15888 0.2377 0.37405 0.60966 0.4783 0.82651 0.10383 0.21642 0.26063 0.61341 0.34778 0.88192 0.0876 0.26813 0.1939 0.65678 0.23685 0.86318l0.0784 0.3753v4.5036l-1.0917 0.5421c-0.60048 0.29815-1.1005 0.55127-1.1113 0.56295-0.0109 0.0113-0.0696 0.37738-0.13052 0.81315-0.0609 0.43576-0.14845 0.96742-0.19474 1.181-0.0459 0.21392-0.1497 0.58839-0.2306 0.8319-0.0805 0.24353-0.22935 0.63092-0.33026 0.8607-0.10133 0.22976-0.29982 0.61965-0.44119 0.86692-0.14136 0.24686-0.40198 0.64176-0.57921 0.87698-0.1768 0.2356-0.47663 0.59339-0.66553 0.79477-0.1889 0.20141-0.52417 0.51792-0.74518 0.70265-0.22059 0.18515-0.59797 0.46746-0.83903 0.62758-0.2969 0.19766-1.6017 0.87405-4.0549 2.1016l-3.6175 1.8106-3.5474-1.7739c-1.9511-0.97575-3.7134-1.8765-3.916-2.0016-0.20267-0.12551-0.53418-0.35653-0.73726-0.51332-0.20307-0.1568-0.52542-0.43244-0.71682-0.61258s-0.49831-0.50665-0.68221-0.72599c-0.18348-0.21935-0.46204-0.59214-0.61883-0.8286-0.15679-0.23644-0.3803-0.61508-0.49623-0.84105-0.11593-0.22559-0.29524-0.62633-0.39823-0.88988-0.103-0.26354-0.24437-0.69889-0.31358-0.96787-0.0692-0.26855-0.18265-0.88485-0.25187-1.3694-0.0692-0.48455-0.13052-0.89737-0.13636-0.9174-0.006-0.02-0.50748-0.28272-1.1142-0.5838l-1.1002-0.5475v-4.5036l0.0972-0.45369c0.0534-0.24937 0.16305-0.64344 0.24352-0.8757 0.0805-0.23227 0.22852-0.59381 0.32901-0.80355 0.1005-0.20976 0.31275-0.57588 0.47163-0.81315s0.41909-0.58172 0.57838-0.76523c0.15929-0.18348 0.40991-0.43785 0.55669-0.56503 0.1472-0.12761 0.37989-0.31692 0.5175-0.42117s0.42326-0.29357 0.6351-0.42117c0.21183-0.12719 0.58713-0.31609 0.83399-0.41951 0.24687-0.10341 0.58047-0.22642 0.74101-0.27313 0.16055-0.0463 0.44202-0.11426 0.6255-0.15096 0.18348-0.0363 0.48372-0.0817 0.6672-0.10091 0.18348-0.0192 3.6296-0.0371 7.6575-0.0404zm0.0758 4.71h-9.3825v4.6704h18.765v-4.6725zm-62.154-49.292h-5.8587v4.7121h11.718v-4.7121zm124.3 0h-5.8575v4.7121h11.718v-4.7122zm-116.48 17.56c-0.0388 0.002-1.9286 0.61048-4.1992 1.351-2.2706 0.74101-4.7429 1.5471-5.494 1.7915-0.78727 0.25561-1.3657 0.46495-1.3657 0.49372 0.00041 0.0275 0.31608 1.0212 0.70222 2.208 0.38572 1.1868 0.71224 2.1688 0.72558 2.1818 0.0129 0.0134 2.5166-0.78645 5.5632-1.7768 3.047-0.99037 5.5486-1.8085 5.559-1.8185s-0.068-0.28481-0.17431-0.61048c-0.10675-0.3261-0.43034-1.3198-0.71974-2.2084-0.42534-1.3065-0.5396-1.615-0.59714-1.6117zm108.62-0.005c-0.0233 0-0.0692 0.0892-0.10216 0.19807-0.0326 0.10884-0.35404 1.1046-0.71474 2.2126-0.36029 1.108-0.64885 2.0212-0.64051 2.0287 0.008 0.008 2.5078 0.8244 5.5549 1.8152 3.0474 0.99038 5.5552 1.7852 5.5732 1.766 0.0184-0.0192 0.35277-1.0196 0.74392-2.223 0.39073-1.2034 0.70682-2.1914 0.70223-2.1946-0.005-0.003-2.4978-0.81562-5.5411-1.8048-3.0433-0.98873-5.5523-1.7981-5.5757-1.7981z"/>
 </g>

</svg>